<svg width="298" height="50" viewBox="0 0 298 50" fill="none" xmlns="http://www.w3.org/2000/svg">
<path d="M43 16.8H29C27.8954 16.8 27 17.6954 27 18.8V32.8C27 33.9046 27.8954 34.8 29 34.8H43C44.1046 34.8 45 33.9046 45 32.8V18.8C45 17.6954 44.1046 16.8 43 16.8Z" stroke="white" stroke-width="2" stroke-linecap="round" stroke-linejoin="round"/>
<path d="M27 22.8H45" stroke="white" stroke-width="2" stroke-linecap="round" stroke-linejoin="round"/>
<path d="M40 14.8V18.8" stroke="white" stroke-width="2" stroke-linecap="round" stroke-linejoin="round"/>
<path d="M32 14.8V18.8" stroke="white" stroke-width="2" stroke-linecap="round" stroke-linejoin="round"/>
<path d="M72.75 22.55C72.75 23.2948 72.5026 23.9042 72.0078 24.3781C71.5182 24.8521 70.8385 25.1542 69.9688 25.2844V25.3312C70.9688 25.451 71.7292 25.7479 72.25 26.2219C72.776 26.6906 73.0391 27.3052 73.0391 28.0656C73.0391 29.1281 72.6224 29.9588 71.7891 30.5578C70.9609 31.1568 69.8151 31.4562 68.3516 31.4562C66.8307 31.4562 65.6146 31.2505 64.7031 30.8391V29.2062C65.2083 29.4458 65.7734 29.6307 66.3984 29.7609C67.0286 29.8911 67.6042 29.9562 68.125 29.9562C70.1302 29.9562 71.1328 29.3 71.1328 27.9875C71.1328 27.3833 70.8307 26.9224 70.2266 26.6047C69.6276 26.287 68.737 26.1281 67.5547 26.1281H66.1797V24.6281H67.4688C69.7448 24.6281 70.8828 24.0213 70.8828 22.8078C70.8828 22.3234 70.6875 21.9406 70.2969 21.6594C69.9115 21.3781 69.3698 21.2375 68.6719 21.2375C68.1198 21.2375 67.5938 21.3104 67.0938 21.4562C66.5938 21.6021 66.0755 21.8495 65.5391 22.1984L64.6875 20.9328C65.8594 20.1203 67.2396 19.7141 68.8281 19.7141C70.0365 19.7141 70.9922 19.9719 71.6953 20.4875C72.3984 21.0031 72.75 21.6906 72.75 22.55ZM80.5469 31.3L80.1797 30.0969H80.1172C79.7005 30.6229 79.2812 30.9823 78.8594 31.175C78.4375 31.3625 77.8958 31.4562 77.2344 31.4562C76.3854 31.4562 75.7214 31.2271 75.2422 30.7687C74.7682 30.3104 74.5312 29.662 74.5312 28.8234C74.5312 27.9328 74.862 27.2609 75.5234 26.8078C76.1849 26.3547 77.1927 26.1073 78.5469 26.0656L80.0391 26.0187V25.5578C80.0391 25.0057 79.9089 24.5943 79.6484 24.3234C79.3932 24.0474 78.9948 23.9094 78.4531 23.9094C78.0104 23.9094 77.5859 23.9745 77.1797 24.1047C76.7734 24.2349 76.3828 24.3885 76.0078 24.5656L75.4141 23.2531C75.8828 23.0083 76.3958 22.8234 76.9531 22.6984C77.5104 22.5682 78.0365 22.5031 78.5312 22.5031C79.6302 22.5031 80.4583 22.7427 81.0156 23.2219C81.5781 23.701 81.8594 24.4536 81.8594 25.4797V31.3H80.5469ZM77.8125 30.05C78.4792 30.05 79.013 29.8651 79.4141 29.4953C79.8203 29.1203 80.0234 28.5969 80.0234 27.925V27.175L78.9141 27.2219C78.0495 27.2531 77.4193 27.3989 77.0234 27.6594C76.6328 27.9146 76.4375 28.3078 76.4375 28.8391C76.4375 29.2245 76.5521 29.5239 76.7812 29.7375C77.0104 29.9458 77.3542 30.05 77.8125 30.05ZM91.9766 22.6594V31.3H90.1328V24.1125H86.2578V31.3H84.4219V22.6594H91.9766ZM96.3672 22.6594V27.0891C96.3672 27.6047 96.3255 28.3625 96.2422 29.3625L100.578 22.6594H102.82V31.3H101.055V26.9484C101.055 26.7088 101.068 26.3208 101.094 25.7844C101.125 25.2479 101.151 24.8573 101.172 24.6125L96.8516 31.3H94.6094V22.6594H96.3672ZM108.922 31.4562C107.615 31.4562 106.62 31.076 105.938 30.3156C105.26 29.55 104.922 28.4536 104.922 27.0266C104.922 25.5734 105.276 24.4562 105.984 23.675C106.698 22.8937 107.727 22.5031 109.07 22.5031C109.982 22.5031 110.802 22.6724 111.531 23.0109L110.977 24.4875C110.201 24.1854 109.56 24.0344 109.055 24.0344C107.56 24.0344 106.812 25.0266 106.812 27.0109C106.812 27.9797 106.997 28.7088 107.367 29.1984C107.742 29.6828 108.289 29.925 109.008 29.925C109.826 29.925 110.599 29.7219 111.328 29.3156V30.9172C111 31.1099 110.648 31.2479 110.273 31.3312C109.904 31.4146 109.453 31.4562 108.922 31.4562ZM115.195 26.1125H117.359C119.771 26.1125 120.977 26.9458 120.977 28.6125C120.977 29.4927 120.669 30.162 120.055 30.6203C119.44 31.0734 118.542 31.3 117.359 31.3H113.359V22.6594H115.195V26.1125ZM119.133 28.6594C119.133 28.2271 118.969 27.925 118.641 27.7531C118.312 27.5812 117.849 27.4953 117.25 27.4953H115.195V29.9406H117.281C117.885 29.9406 118.344 29.8312 118.656 29.6125C118.974 29.3937 119.133 29.076 119.133 28.6594ZM129.008 22.6594V26.1281H133.078V22.6594H134.914V31.3H133.078V27.5734H129.008V31.3H127.172V22.6594H129.008ZM142.953 31.3L142.586 30.0969H142.523C142.107 30.6229 141.688 30.9823 141.266 31.175C140.844 31.3625 140.302 31.4562 139.641 31.4562C138.792 31.4562 138.128 31.2271 137.648 30.7687C137.174 30.3104 136.938 29.662 136.938 28.8234C136.938 27.9328 137.268 27.2609 137.93 26.8078C138.591 26.3547 139.599 26.1073 140.953 26.0656L142.445 26.0187V25.5578C142.445 25.0057 142.315 24.5943 142.055 24.3234C141.799 24.0474 141.401 23.9094 140.859 23.9094C140.417 23.9094 139.992 23.9745 139.586 24.1047C139.18 24.2349 138.789 24.3885 138.414 24.5656L137.82 23.2531C138.289 23.0083 138.802 22.8234 139.359 22.6984C139.917 22.5682 140.443 22.5031 140.938 22.5031C142.036 22.5031 142.865 22.7427 143.422 23.2219C143.984 23.701 144.266 24.4536 144.266 25.4797V31.3H142.953ZM140.219 30.05C140.885 30.05 141.419 29.8651 141.82 29.4953C142.227 29.1203 142.43 28.5969 142.43 27.925V27.175L141.32 27.2219C140.456 27.2531 139.826 27.3989 139.43 27.6594C139.039 27.9146 138.844 28.3078 138.844 28.8391C138.844 29.2245 138.958 29.5239 139.188 29.7375C139.417 29.9458 139.76 30.05 140.219 30.05ZM158.539 22.6594V31.3H156.695V24.1125H152.82V31.3H150.984V22.6594H158.539ZM165.555 31.4562C164.461 31.4562 163.612 31.063 163.008 30.2766H162.898C162.971 31.0057 163.008 31.4484 163.008 31.6047V35.1437H161.172V22.6594H162.656C162.698 22.8208 162.784 23.2062 162.914 23.8156H163.008C163.581 22.9406 164.44 22.5031 165.586 22.5031C166.664 22.5031 167.503 22.8937 168.102 23.675C168.706 24.4562 169.008 25.5526 169.008 26.9641C169.008 28.3755 168.701 29.4771 168.086 30.2687C167.477 31.0604 166.633 31.4562 165.555 31.4562ZM165.109 24.0031C164.38 24.0031 163.846 24.2167 163.508 24.6437C163.174 25.0708 163.008 25.7531 163.008 26.6906V26.9641C163.008 28.0161 163.174 28.7792 163.508 29.2531C163.841 29.7219 164.385 29.9562 165.141 29.9562C165.776 29.9562 166.266 29.6958 166.609 29.175C166.953 28.6542 167.125 27.912 167.125 26.9484C167.125 25.9797 166.953 25.2479 166.609 24.7531C166.271 24.2531 165.771 24.0031 165.109 24.0031ZM172.898 22.6594V27.0891C172.898 27.6047 172.857 28.3625 172.773 29.3625L177.109 22.6594H179.352V31.3H177.586V26.9484C177.586 26.7088 177.599 26.3208 177.625 25.7844C177.656 25.2479 177.682 24.8573 177.703 24.6125L173.383 31.3H171.141V22.6594H172.898ZM185.742 31.4562C184.398 31.4562 183.346 31.0656 182.586 30.2844C181.831 29.4979 181.453 28.4172 181.453 27.0422C181.453 25.6307 181.805 24.5213 182.508 23.7141C183.211 22.9068 184.177 22.5031 185.406 22.5031C186.547 22.5031 187.448 22.8495 188.109 23.5422C188.771 24.2349 189.102 25.188 189.102 26.4016V27.3937H183.344C183.37 28.2323 183.596 28.8781 184.023 29.3312C184.451 29.7792 185.052 30.0031 185.828 30.0031C186.339 30.0031 186.812 29.9562 187.25 29.8625C187.693 29.7635 188.167 29.6021 188.672 29.3781V30.8703C188.224 31.0838 187.771 31.2349 187.312 31.3234C186.854 31.412 186.331 31.4562 185.742 31.4562ZM185.406 23.8937C184.823 23.8937 184.354 24.0786 184 24.4484C183.651 24.8182 183.443 25.3573 183.375 26.0656H187.297C187.286 25.3521 187.115 24.813 186.781 24.4484C186.448 24.0786 185.99 23.8937 185.406 23.8937ZM182.977 20.3703C182.977 20.0474 183.062 19.8156 183.234 19.675C183.411 19.5292 183.625 19.4562 183.875 19.4562C184.151 19.4562 184.37 19.537 184.531 19.6984C184.698 19.8599 184.781 20.0838 184.781 20.3703C184.781 20.6463 184.698 20.8677 184.531 21.0344C184.365 21.201 184.146 21.2844 183.875 21.2844C183.625 21.2844 183.411 21.2088 183.234 21.0578C183.062 20.9068 182.977 20.6776 182.977 20.3703ZM186.047 20.3703C186.047 20.0474 186.133 19.8156 186.305 19.675C186.482 19.5292 186.695 19.4562 186.945 19.4562C187.221 19.4562 187.443 19.537 187.609 19.6984C187.776 19.8599 187.859 20.0838 187.859 20.3703C187.859 20.6516 187.773 20.8755 187.602 21.0422C187.43 21.2036 187.211 21.2844 186.945 21.2844C186.695 21.2844 186.482 21.2088 186.305 21.0578C186.133 20.9068 186.047 20.6776 186.047 20.3703ZM196.148 29.5422L196.25 29.1672C196.464 28.3911 196.648 27.7948 196.805 27.3781L198.742 22.6594H201.188V31.3H199.492V24.3234L199.352 24.7922C199.117 25.6307 198.919 26.2479 198.758 26.6437L196.867 31.3H195.477L193.586 26.6125C193.326 25.9354 193.086 25.1724 192.867 24.3234V31.3H191.188V22.6594H193.617L195.492 27.2375C195.659 27.6594 195.878 28.4276 196.148 29.5422Z" fill="white"/>
</svg>
