<svg width="294" height="264" viewBox="0 0 294 264" fill="none" xmlns="http://www.w3.org/2000/svg">
<g filter="url(#filter0_d_55_1981)">
<path d="M6 12C6 7.58172 9.58172 4 14 4H278C282.418 4 286 7.58172 286 12V246C286 250.418 282.418 254 278 254H14C9.58172 254 6 250.418 6 246V12Z" fill="white"/>
<g filter="url(#filter1_d_55_1981)">
<path d="M6 12C6 7.58172 9.58172 4 14 4H278C282.418 4 286 7.58172 286 12V61H6V12Z" fill="#6556D9"/>
<path d="M27.2188 48H23.5469V33.25C23.5469 31.4896 23.5885 30.0938 23.6719 29.0625C23.4323 29.3125 23.1354 29.5885 22.7812 29.8906C22.4375 30.1927 21.2708 31.151 19.2812 32.7656L17.4375 30.4375L24.1562 25.1562H27.2188V48ZM42.4688 33.7344C44.7708 33.7344 46.5938 34.3438 47.9375 35.5625C49.2812 36.7812 49.9531 38.4427 49.9531 40.5469C49.9531 42.9844 49.1875 44.8906 47.6562 46.2656C46.1354 47.6302 43.9688 48.3125 41.1562 48.3125C38.6042 48.3125 36.599 47.901 35.1406 47.0781V43.75C35.9844 44.2292 36.9531 44.599 38.0469 44.8594C39.1406 45.1198 40.1562 45.25 41.0938 45.25C42.75 45.25 44.0104 44.8802 44.875 44.1406C45.7396 43.401 46.1719 42.3177 46.1719 40.8906C46.1719 38.1615 44.4323 36.7969 40.9531 36.7969C40.4635 36.7969 39.8594 36.849 39.1406 36.9531C38.4219 37.0469 37.7917 37.1562 37.25 37.2812L35.6094 36.3125L36.4844 25.1562H48.3594V28.4219H39.7188L39.2031 34.0781C39.5677 34.0156 40.0104 33.9427 40.5312 33.8594C41.0625 33.776 41.7083 33.7344 42.4688 33.7344ZM53.6719 46.0469C53.6719 45.2865 53.8698 44.7031 54.2656 44.2969C54.6615 43.8906 55.2344 43.6875 55.9844 43.6875C56.7448 43.6875 57.3229 43.901 57.7188 44.3281C58.1146 44.7448 58.3125 45.3177 58.3125 46.0469C58.3125 46.7865 58.1094 47.375 57.7031 47.8125C57.3073 48.2396 56.7344 48.4531 55.9844 48.4531C55.2344 48.4531 54.6615 48.2396 54.2656 47.8125C53.8698 47.3854 53.6719 46.7969 53.6719 46.0469ZM53.6719 32.7031C53.6719 31.1302 54.4427 30.3438 55.9844 30.3438C56.7656 30.3438 57.349 30.5521 57.7344 30.9688C58.1198 31.3854 58.3125 31.9635 58.3125 32.7031C58.3125 33.4427 58.1094 34.0312 57.7031 34.4688C57.3073 34.8958 56.7344 35.1094 55.9844 35.1094C55.2344 35.1094 54.6615 34.8958 54.2656 34.4688C53.8698 34.0417 53.6719 33.4531 53.6719 32.7031ZM76.4375 30.4062C76.4375 31.8542 76.0156 33.0625 75.1719 34.0312C74.3281 34.9896 73.1406 35.6354 71.6094 35.9688V36.0938C73.4427 36.3229 74.8177 36.8958 75.7344 37.8125C76.651 38.7188 77.1094 39.9271 77.1094 41.4375C77.1094 43.6354 76.3333 45.3333 74.7812 46.5312C73.2292 47.7188 71.0208 48.3125 68.1562 48.3125C65.625 48.3125 63.4896 47.901 61.75 47.0781V43.8125C62.7188 44.2917 63.7448 44.6615 64.8281 44.9219C65.9115 45.1823 66.9531 45.3125 67.9531 45.3125C69.724 45.3125 71.0469 44.9844 71.9219 44.3281C72.7969 43.6719 73.2344 42.6562 73.2344 41.2812C73.2344 40.0625 72.75 39.1667 71.7812 38.5938C70.8125 38.0208 69.2917 37.7344 67.2188 37.7344H65.2344V34.75H67.25C70.8958 34.75 72.7188 33.4896 72.7188 30.9688C72.7188 29.9896 72.401 29.2344 71.7656 28.7031C71.1302 28.1719 70.1927 27.9062 68.9531 27.9062C68.0885 27.9062 67.2552 28.0312 66.4531 28.2812C65.651 28.5208 64.7031 28.9948 63.6094 29.7031L61.8125 27.1406C63.9062 25.599 66.3385 24.8281 69.1094 24.8281C71.4115 24.8281 73.2083 25.3229 74.5 26.3125C75.7917 27.3021 76.4375 28.6667 76.4375 30.4062ZM94.7188 30.4062C94.7188 31.8542 94.2969 33.0625 93.4531 34.0312C92.6094 34.9896 91.4219 35.6354 89.8906 35.9688V36.0938C91.724 36.3229 93.099 36.8958 94.0156 37.8125C94.9323 38.7188 95.3906 39.9271 95.3906 41.4375C95.3906 43.6354 94.6146 45.3333 93.0625 46.5312C91.5104 47.7188 89.3021 48.3125 86.4375 48.3125C83.9062 48.3125 81.7708 47.901 80.0312 47.0781V43.8125C81 44.2917 82.026 44.6615 83.1094 44.9219C84.1927 45.1823 85.2344 45.3125 86.2344 45.3125C88.0052 45.3125 89.3281 44.9844 90.2031 44.3281C91.0781 43.6719 91.5156 42.6562 91.5156 41.2812C91.5156 40.0625 91.0312 39.1667 90.0625 38.5938C89.0938 38.0208 87.5729 37.7344 85.5 37.7344H83.5156V34.75H85.5312C89.1771 34.75 91 33.4896 91 30.9688C91 29.9896 90.6823 29.2344 90.0469 28.7031C89.4115 28.1719 88.474 27.9062 87.2344 27.9062C86.3698 27.9062 85.5365 28.0312 84.7344 28.2812C83.9323 28.5208 82.9844 28.9948 81.8906 29.7031L80.0938 27.1406C82.1875 25.599 84.6198 24.8281 87.3906 24.8281C89.6927 24.8281 91.4896 25.3229 92.7812 26.3125C94.0729 27.3021 94.7188 28.6667 94.7188 30.4062Z" fill="white"/>
<path d="M140.793 37.9941L138.319 42H136.453L139.269 37.6182C137.993 37.1761 137.355 36.2464 137.355 34.8291C137.355 33.9131 137.672 33.2135 138.305 32.7305C138.939 32.2474 139.871 32.0059 141.101 32.0059H144.102V42H142.461V37.9941H140.793ZM142.461 33.373H141.162C140.474 33.373 139.946 33.4961 139.577 33.7422C139.212 33.9837 139.03 34.3802 139.03 34.9316C139.03 35.4694 139.207 35.8887 139.563 36.1895C139.918 36.4902 140.47 36.6406 141.217 36.6406H142.461V33.373ZM147.756 34.4395V37.4746H151.318V34.4395H152.924V42H151.318V38.7393H147.756V42H146.15V34.4395H147.756ZM161.37 36.374C161.37 37.2673 160.849 37.8073 159.805 37.9941V38.0488C160.388 38.1172 160.835 38.3018 161.145 38.6025C161.455 38.9033 161.61 39.293 161.61 39.7715C161.61 40.487 161.336 41.0384 160.789 41.4258C160.247 41.8086 159.456 42 158.417 42H154.808V34.4395H158.404C160.381 34.4395 161.37 35.0843 161.37 36.374ZM159.962 39.6758C159.962 39.3112 159.821 39.0537 159.538 38.9033C159.256 38.7484 158.832 38.6709 158.267 38.6709H156.414V40.8105H158.308C159.411 40.8105 159.962 40.4323 159.962 39.6758ZM159.764 36.5107C159.764 36.21 159.645 35.9935 159.408 35.8613C159.176 35.7246 158.827 35.6562 158.363 35.6562H156.414V37.4746H158.123C158.661 37.4746 159.069 37.4062 159.347 37.2695C159.625 37.1283 159.764 36.8753 159.764 36.5107ZM167.581 42L167.26 40.9473H167.205C166.841 41.4076 166.474 41.722 166.105 41.8906C165.736 42.0547 165.262 42.1367 164.683 42.1367C163.94 42.1367 163.359 41.9362 162.94 41.5352C162.525 41.1341 162.318 40.5667 162.318 39.833C162.318 39.0537 162.607 38.4658 163.186 38.0693C163.764 37.6729 164.646 37.4564 165.831 37.4199L167.137 37.3789V36.9756C167.137 36.4925 167.023 36.1325 166.795 35.8955C166.572 35.654 166.223 35.5332 165.749 35.5332C165.362 35.5332 164.99 35.5902 164.635 35.7041C164.279 35.818 163.938 35.9525 163.61 36.1074L163.09 34.959C163.5 34.7448 163.949 34.583 164.437 34.4736C164.924 34.3597 165.385 34.3027 165.818 34.3027C166.779 34.3027 167.504 34.5124 167.991 34.9316C168.484 35.3509 168.73 36.0094 168.73 36.9072V42H167.581ZM165.189 40.9062C165.772 40.9062 166.239 40.7445 166.59 40.4209C166.945 40.0928 167.123 39.6348 167.123 39.0469V38.3906L166.152 38.4316C165.396 38.459 164.845 38.5866 164.498 38.8145C164.156 39.0378 163.986 39.3818 163.986 39.8467C163.986 40.1839 164.086 40.446 164.286 40.6328C164.487 40.8151 164.788 40.9062 165.189 40.9062ZM174.387 42.1367C173.43 42.1367 172.687 41.7926 172.158 41.1045H172.063C172.126 41.7425 172.158 42.1299 172.158 42.2666V45.3633H170.552V34.4395H171.851C171.887 34.5807 171.962 34.918 172.076 35.4512H172.158C172.66 34.6855 173.412 34.3027 174.414 34.3027C175.357 34.3027 176.091 34.6445 176.615 35.3281C177.144 36.0117 177.408 36.971 177.408 38.2061C177.408 39.4411 177.139 40.4049 176.602 41.0977C176.068 41.7904 175.33 42.1367 174.387 42.1367ZM173.997 35.6152C173.359 35.6152 172.892 35.8021 172.596 36.1758C172.304 36.5495 172.158 37.1465 172.158 37.9668V38.2061C172.158 39.1266 172.304 39.7943 172.596 40.209C172.887 40.6191 173.364 40.8242 174.024 40.8242C174.58 40.8242 175.009 40.5964 175.31 40.1406C175.61 39.6849 175.761 39.0355 175.761 38.1924C175.761 37.3447 175.61 36.7044 175.31 36.2715C175.013 35.834 174.576 35.6152 173.997 35.6152ZM180.461 37.4609H182.354C184.465 37.4609 185.52 38.1901 185.52 39.6484C185.52 40.4186 185.251 41.0042 184.713 41.4053C184.175 41.8018 183.389 42 182.354 42H178.854V34.4395H180.461V37.4609ZM183.906 39.6895C183.906 39.3112 183.763 39.0469 183.476 38.8965C183.188 38.7461 182.783 38.6709 182.259 38.6709H180.461V40.8105H182.286C182.815 40.8105 183.216 40.7148 183.489 40.5234C183.767 40.332 183.906 40.054 183.906 39.6895ZM196.342 42H189.567V40.7832L192.144 38.1924C192.905 37.4131 193.409 36.8617 193.655 36.5381C193.906 36.21 194.088 35.9023 194.202 35.6152C194.316 35.3281 194.373 35.0205 194.373 34.6924C194.373 34.2412 194.236 33.8857 193.963 33.626C193.694 33.3662 193.32 33.2363 192.842 33.2363C192.459 33.2363 192.087 33.307 191.727 33.4482C191.372 33.5895 190.959 33.8447 190.49 34.2139L189.622 33.1543C190.178 32.6849 190.718 32.3522 191.242 32.1562C191.766 31.9603 192.324 31.8623 192.917 31.8623C193.847 31.8623 194.592 32.1061 195.152 32.5938C195.713 33.0768 195.993 33.7285 195.993 34.5488C195.993 35 195.911 35.4284 195.747 35.834C195.587 36.2396 195.339 36.6589 195.002 37.0918C194.669 37.5202 194.113 38.1012 193.334 38.835L191.597 40.5166V40.585H196.342V42ZM203.92 37.0029C203.92 38.7393 203.639 40.029 203.079 40.8721C202.523 41.7152 201.671 42.1367 200.522 42.1367C199.41 42.1367 198.567 41.7015 197.993 40.8311C197.419 39.9606 197.132 38.6846 197.132 37.0029C197.132 35.2393 197.41 33.9404 197.966 33.1064C198.526 32.2679 199.378 31.8486 200.522 31.8486C201.639 31.8486 202.484 32.2861 203.058 33.1611C203.633 34.0361 203.92 35.3167 203.92 37.0029ZM198.759 37.0029C198.759 38.3656 198.898 39.3385 199.176 39.9219C199.458 40.5052 199.907 40.7969 200.522 40.7969C201.137 40.7969 201.586 40.5007 201.869 39.9082C202.156 39.3158 202.3 38.3473 202.3 37.0029C202.3 35.6631 202.156 34.6947 201.869 34.0977C201.586 33.4961 201.137 33.1953 200.522 33.1953C199.907 33.1953 199.458 33.4893 199.176 34.0771C198.898 34.665 198.759 35.6403 198.759 37.0029ZM211.498 42H204.723V40.7832L207.3 38.1924C208.062 37.4131 208.565 36.8617 208.811 36.5381C209.062 36.21 209.244 35.9023 209.358 35.6152C209.472 35.3281 209.529 35.0205 209.529 34.6924C209.529 34.2412 209.392 33.8857 209.119 33.626C208.85 33.3662 208.476 33.2363 207.998 33.2363C207.615 33.2363 207.244 33.307 206.883 33.4482C206.528 33.5895 206.116 33.8447 205.646 34.2139L204.778 33.1543C205.334 32.6849 205.874 32.3522 206.398 32.1562C206.922 31.9603 207.48 31.8623 208.073 31.8623C209.003 31.8623 209.748 32.1061 210.308 32.5938C210.869 33.0768 211.149 33.7285 211.149 34.5488C211.149 35 211.067 35.4284 210.903 35.834C210.744 36.2396 210.495 36.6589 210.158 37.0918C209.825 37.5202 209.269 38.1012 208.49 38.835L206.754 40.5166V40.585H211.498V42ZM219.076 42H212.301V40.7832L214.879 38.1924C215.64 37.4131 216.143 36.8617 216.389 36.5381C216.64 36.21 216.822 35.9023 216.936 35.6152C217.05 35.3281 217.107 35.0205 217.107 34.6924C217.107 34.2412 216.97 33.8857 216.697 33.626C216.428 33.3662 216.054 33.2363 215.576 33.2363C215.193 33.2363 214.822 33.307 214.462 33.4482C214.106 33.5895 213.694 33.8447 213.224 34.2139L212.356 33.1543C212.912 32.6849 213.452 32.3522 213.976 32.1562C214.5 31.9603 215.059 31.8623 215.651 31.8623C216.581 31.8623 217.326 32.1061 217.886 32.5938C218.447 33.0768 218.727 33.7285 218.727 34.5488C218.727 35 218.645 35.4284 218.481 35.834C218.322 36.2396 218.073 36.6589 217.736 37.0918C217.403 37.5202 216.847 38.1012 216.068 38.835L214.332 40.5166V40.585H219.076V42Z" fill="white"/>
<path d="M236 28.6701V28.1701V28.6701ZM245 37.6701H244.5H245ZM236 46.6701V46.1701V46.6701ZM227 37.6701H226.5H227ZM232.754 36.1461C232.559 35.9508 232.242 35.9508 232.047 36.1461C231.851 36.3413 231.851 36.6579 232.047 36.8532L232.754 36.1461ZM236 40.0996L235.647 40.4532C235.842 40.6484 236.159 40.6484 236.354 40.4532L236 40.0996ZM239.954 36.8532C240.149 36.6579 240.149 36.3413 239.954 36.1461C239.759 35.9508 239.442 35.9508 239.247 36.1461L239.954 36.8532ZM236 29.1701C240.694 29.1701 244.5 32.9757 244.5 37.6701H245.5C245.5 32.4234 241.247 28.1701 236 28.1701V29.1701ZM244.5 37.6701C244.5 42.3645 240.694 46.1701 236 46.1701V47.1701C241.247 47.1701 245.5 42.9168 245.5 37.6701H244.5ZM236 46.1701C231.306 46.1701 227.5 42.3645 227.5 37.6701H226.5C226.5 42.9168 230.753 47.1701 236 47.1701V46.1701ZM227.5 37.6701C227.5 32.9757 231.306 29.1701 236 29.1701V28.1701C230.753 28.1701 226.5 32.4234 226.5 37.6701H227.5ZM232.047 36.8532L235.647 40.4532L236.354 39.7461L232.754 36.1461L232.047 36.8532ZM236.354 40.4532L239.954 36.8532L239.247 36.1461L235.647 39.7461L236.354 40.4532Z" fill="white"/>
<path d="M260 46.6701V47.1701V46.6701ZM269 37.6701H268.5H269ZM260 28.6701V29.1701V28.6701ZM251 37.6701H250.5H251ZM256.047 38.487C255.851 38.6822 255.851 38.9988 256.047 39.1941C256.242 39.3893 256.558 39.3893 256.754 39.1941L256.047 38.487ZM260 35.2405L260.354 34.887C260.158 34.6917 259.842 34.6917 259.647 34.887L260 35.2405ZM263.247 39.1941C263.442 39.3893 263.758 39.3893 263.954 39.1941C264.149 38.9988 264.149 38.6822 263.954 38.487L263.247 39.1941ZM260 47.1701C265.247 47.1701 269.5 42.9168 269.5 37.6701H268.5C268.5 42.3645 264.694 46.1701 260 46.1701V47.1701ZM269.5 37.6701C269.5 32.4234 265.247 28.1701 260 28.1701V29.1701C264.694 29.1701 268.5 32.9757 268.5 37.6701H269.5ZM260 28.1701C254.753 28.1701 250.5 32.4234 250.5 37.6701H251.5C251.5 32.9757 255.305 29.1701 260 29.1701V28.1701ZM250.5 37.6701C250.5 42.9168 254.753 47.1701 260 47.1701V46.1701C255.305 46.1701 251.5 42.3645 251.5 37.6701H250.5ZM256.754 39.1941L260.354 35.5941L259.647 34.887L256.047 38.487L256.754 39.1941ZM259.647 35.5941L263.247 39.1941L263.954 38.487L260.354 34.887L259.647 35.5941Z" fill="white"/>
</g>
<path d="M28.9697 78H28.1396V71.5986H24.4727V78H23.6426V70.8613H28.9697V78ZM36.3574 78H35.5273V74.6406H31.7676V78H30.9375V70.8613H31.7676V73.8984H35.5273V70.8613H36.3574V78Z" fill="#898989"/>
<path d="M63.6373 70.8613H65.6539C66.6012 70.8613 67.2864 71.0029 67.7096 71.2861C68.1328 71.5693 68.3444 72.0169 68.3444 72.6289C68.3444 73.0521 68.2255 73.402 67.9879 73.6787C67.7535 73.9521 67.4101 74.1296 66.9576 74.2109V74.2598C68.0416 74.4453 68.5836 75.015 68.5836 75.9688C68.5836 76.6068 68.3671 77.1048 67.9342 77.4629C67.5045 77.821 66.9023 78 66.1276 78H63.6373V70.8613ZM64.4674 73.918H65.8346C66.4205 73.918 66.8421 73.8268 67.0992 73.6445C67.3564 73.459 67.485 73.1481 67.485 72.7119C67.485 72.3115 67.3418 72.0234 67.0553 71.8477C66.7688 71.6686 66.3131 71.5791 65.6881 71.5791H64.4674V73.918ZM64.4674 74.6211V77.292H65.9567C66.5328 77.292 66.9658 77.1813 67.2555 76.96C67.5485 76.7354 67.6949 76.3854 67.6949 75.9102C67.6949 75.4674 67.5452 75.1419 67.2457 74.9336C66.9495 74.7253 66.497 74.6211 65.8883 74.6211H64.4674ZM72.319 78H71.4889V71.5986H69.2281V70.8613H74.5797V71.5986H72.319V78Z" fill="#898989"/>
<path d="M105.204 71.501C104.42 71.501 103.8 71.763 103.344 72.2871C102.892 72.8079 102.665 73.5225 102.665 74.4307C102.665 75.3649 102.884 76.0876 103.32 76.5986C103.759 77.1064 104.384 77.3604 105.195 77.3604C105.693 77.3604 106.261 77.2708 106.899 77.0918V77.8193C106.404 78.0049 105.794 78.0977 105.068 78.0977C104.016 78.0977 103.204 77.7786 102.631 77.1406C102.062 76.5026 101.777 75.596 101.777 74.4209C101.777 73.6852 101.913 73.0407 102.187 72.4873C102.464 71.9339 102.861 71.5075 103.378 71.208C103.899 70.9085 104.511 70.7588 105.214 70.7588C105.963 70.7588 106.617 70.8955 107.177 71.1689L106.826 71.8818C106.285 71.6279 105.745 71.501 105.204 71.501ZM112.983 72.9414C112.983 73.6641 112.735 74.2207 112.241 74.6113C111.749 74.9987 111.044 75.1924 110.126 75.1924H109.286V78H108.456V70.8613H110.307C112.091 70.8613 112.983 71.5547 112.983 72.9414ZM109.286 74.4795H110.034C110.769 74.4795 111.301 74.3607 111.63 74.123C111.959 73.8854 112.123 73.5046 112.123 72.9805C112.123 72.5085 111.969 72.1569 111.66 71.9258C111.35 71.6947 110.869 71.5791 110.214 71.5791H109.286V74.4795Z" fill="#898989"/>
<path d="M145.727 78H144.896V75.0508C144.411 75.2233 144.008 75.3421 143.686 75.4072C143.363 75.4691 143.03 75.5 142.685 75.5C142.011 75.5 141.492 75.3454 141.127 75.0361C140.766 74.7269 140.585 74.2809 140.585 73.6982V70.8613H141.415V73.6006C141.415 73.9945 141.518 74.2858 141.723 74.4746C141.931 74.6634 142.268 74.7578 142.733 74.7578C143.049 74.7578 143.35 74.735 143.637 74.6895C143.926 74.6406 144.346 74.5267 144.896 74.3477V70.8613H145.727V78ZM149.887 78H149.057V71.5986H146.796V70.8613H152.147V71.5986H149.887V78Z" fill="#898989"/>
<path d="M184.559 78H183.729V71.5986H180.062V78H179.232V70.8613H184.559V78ZM188.724 78H187.894V71.5986H185.633V70.8613H190.985V71.5986H188.724V78Z" fill="#898989"/>
<path d="M221.151 71.501C220.366 71.501 219.746 71.763 219.29 72.2871C218.838 72.8079 218.612 73.5225 218.612 74.4307C218.612 75.3649 218.83 76.0876 219.266 76.5986C219.705 77.1064 220.33 77.3604 221.141 77.3604C221.639 77.3604 222.207 77.2708 222.845 77.0918V77.8193C222.35 78.0049 221.74 78.0977 221.014 78.0977C219.963 78.0977 219.15 77.7786 218.578 77.1406C218.008 76.5026 217.723 75.596 217.723 74.4209C217.723 73.6852 217.86 73.0407 218.133 72.4873C218.41 71.9339 218.807 71.5075 219.325 71.208C219.845 70.9085 220.457 70.7588 221.161 70.7588C221.909 70.7588 222.564 70.8955 223.123 71.1689L222.772 71.8818C222.231 71.6279 221.691 71.501 221.151 71.501ZM229.032 75.9199C229.032 76.6296 228.82 77.1536 228.397 77.4922C227.977 77.8307 227.342 78 226.493 78H224.403V70.8613H228.612V71.5986H225.233V73.9082H226.341C226.969 73.9082 227.481 73.9814 227.874 74.1279C228.268 74.2712 228.56 74.4844 228.748 74.7676C228.937 75.0508 229.032 75.4349 229.032 75.9199ZM225.233 77.2822H226.4C227.018 77.2822 227.467 77.1764 227.747 76.9648C228.031 76.7533 228.172 76.4049 228.172 75.9199C228.172 75.4577 228.029 75.1289 227.743 74.9336C227.456 74.7383 226.956 74.6406 226.244 74.6406H225.233V77.2822Z" fill="#6556D9"/>
<path d="M256.585 70.8613H258.602C259.549 70.8613 260.234 71.0029 260.657 71.2861C261.08 71.5693 261.292 72.0169 261.292 72.6289C261.292 73.0521 261.173 73.402 260.936 73.6787C260.701 73.9521 260.358 74.1296 259.905 74.2109V74.2598C260.989 74.4453 261.531 75.015 261.531 75.9688C261.531 76.6068 261.315 77.1048 260.882 77.4629C260.452 77.821 259.85 78 259.075 78H256.585V70.8613ZM257.415 73.918H258.782C259.368 73.918 259.79 73.8268 260.047 73.6445C260.304 73.459 260.433 73.1481 260.433 72.7119C260.433 72.3115 260.289 72.0234 260.003 71.8477C259.716 71.6686 259.261 71.5791 258.636 71.5791H257.415V73.918ZM257.415 74.6211V77.292H258.904C259.48 77.292 259.913 77.1813 260.203 76.96C260.496 76.7354 260.643 76.3854 260.643 75.9102C260.643 75.4674 260.493 75.1419 260.193 74.9336C259.897 74.7253 259.445 74.6211 258.836 74.6211H257.415ZM266.126 71.501C265.341 71.501 264.721 71.763 264.266 72.2871C263.813 72.8079 263.587 73.5225 263.587 74.4307C263.587 75.3649 263.805 76.0876 264.241 76.5986C264.681 77.1064 265.306 77.3604 266.116 77.3604C266.614 77.3604 267.182 77.2708 267.82 77.0918V77.8193C267.326 78.0049 266.715 78.0977 265.989 78.0977C264.938 78.0977 264.126 77.7786 263.553 77.1406C262.983 76.5026 262.698 75.596 262.698 74.4209C262.698 73.6852 262.835 73.0407 263.108 72.4873C263.385 71.9339 263.782 71.5075 264.3 71.208C264.821 70.9085 265.433 70.7588 266.136 70.7588C266.884 70.7588 267.539 70.8955 268.099 71.1689L267.747 71.8818C267.207 71.6279 266.666 71.501 266.126 71.501Z" fill="#6556D9"/>
<path d="M29.9785 105H24.1719V103.957L26.3809 101.736C27.0332 101.068 27.4648 100.596 27.6758 100.318C27.8906 100.037 28.0469 99.7734 28.1445 99.5273C28.2422 99.2812 28.291 99.0176 28.291 98.7363C28.291 98.3496 28.1738 98.0449 27.9395 97.8223C27.709 97.5996 27.3887 97.4883 26.9785 97.4883C26.6504 97.4883 26.332 97.5488 26.0234 97.6699C25.7188 97.791 25.3652 98.0098 24.9629 98.3262L24.2188 97.418C24.6953 97.0156 25.1582 96.7305 25.6074 96.5625C26.0566 96.3945 26.5352 96.3105 27.043 96.3105C27.8398 96.3105 28.4785 96.5195 28.959 96.9375C29.4395 97.3516 29.6797 97.9102 29.6797 98.6133C29.6797 99 29.6094 99.3672 29.4688 99.7148C29.332 100.062 29.1191 100.422 28.8301 100.793C28.5449 101.16 28.0684 101.658 27.4004 102.287L25.9121 103.729V103.787H29.9785V105ZM32 105L35.3867 97.6582H30.9336V96.4453H36.8574V97.4062L33.4883 105H32Z" fill="#898989"/>
<path d="M68.6451 105H62.8385V103.957L65.0475 101.736C65.6998 101.068 66.1315 100.596 66.3424 100.318C66.5573 100.037 66.7135 99.7734 66.8112 99.5273C66.9088 99.2812 66.9576 99.0176 66.9576 98.7363C66.9576 98.3496 66.8405 98.0449 66.6061 97.8223C66.3756 97.5996 66.0553 97.4883 65.6451 97.4883C65.317 97.4883 64.9987 97.5488 64.6901 97.6699C64.3854 97.791 64.0319 98.0098 63.6295 98.3262L62.8854 97.418C63.3619 97.0156 63.8248 96.7305 64.274 96.5625C64.7233 96.3945 65.2018 96.3105 65.7096 96.3105C66.5065 96.3105 67.1451 96.5195 67.6256 96.9375C68.1061 97.3516 68.3463 97.9102 68.3463 98.6133C68.3463 99 68.276 99.3672 68.1354 99.7148C67.9987 100.062 67.7858 100.422 67.4967 100.793C67.2115 101.16 66.735 101.658 66.067 102.287L64.5787 103.729V103.787H68.6451V105ZM72.5885 96.3223C73.401 96.3223 74.0436 96.5098 74.5162 96.8848C74.9889 97.2559 75.2252 97.7539 75.2252 98.3789C75.2252 99.2578 74.6979 99.957 73.6432 100.477C74.3151 100.812 74.7916 101.166 75.0729 101.537C75.358 101.908 75.5006 102.322 75.5006 102.779C75.5006 103.486 75.2408 104.053 74.7213 104.479C74.2018 104.904 73.4987 105.117 72.6119 105.117C71.6823 105.117 70.9615 104.918 70.4498 104.52C69.9381 104.121 69.6823 103.557 69.6823 102.826C69.6823 102.35 69.8151 101.922 70.0807 101.543C70.3502 101.16 70.7897 100.82 71.399 100.523C70.8756 100.211 70.5026 99.8809 70.2799 99.5332C70.0573 99.1855 69.9459 98.7949 69.9459 98.3613C69.9459 97.7402 70.1901 97.2461 70.6783 96.8789C71.1666 96.5078 71.8033 96.3223 72.5885 96.3223ZM71.0006 102.779C71.0006 103.186 71.1432 103.502 71.4283 103.729C71.7135 103.951 72.1002 104.062 72.5885 104.062C73.0924 104.062 73.483 103.947 73.7604 103.717C74.0416 103.482 74.1823 103.166 74.1823 102.768C74.1823 102.451 74.0533 102.162 73.7955 101.9C73.5377 101.639 73.1471 101.396 72.6237 101.174L72.4537 101.098C71.9381 101.324 71.567 101.574 71.3405 101.848C71.1139 102.117 71.0006 102.428 71.0006 102.779ZM72.5768 97.3828C72.1862 97.3828 71.8717 97.4805 71.6334 97.6758C71.3951 97.8672 71.276 98.1289 71.276 98.4609C71.276 98.6641 71.319 98.8457 71.4049 99.0059C71.4908 99.166 71.6158 99.3125 71.7799 99.4453C71.944 99.5742 72.2213 99.7305 72.6119 99.9141C73.0807 99.707 73.4108 99.4902 73.6022 99.2637C73.7975 99.0332 73.8951 98.7656 73.8951 98.4609C73.8951 98.1289 73.774 97.8672 73.5319 97.6758C73.2936 97.4805 72.9752 97.3828 72.5768 97.3828Z" fill="#898989"/>
<path d="M107.312 105H101.505V103.957L103.714 101.736C104.367 101.068 104.798 100.596 105.009 100.318C105.224 100.037 105.38 99.7734 105.478 99.5273C105.576 99.2812 105.624 99.0176 105.624 98.7363C105.624 98.3496 105.507 98.0449 105.273 97.8223C105.042 97.5996 104.722 97.4883 104.312 97.4883C103.984 97.4883 103.665 97.5488 103.357 97.6699C103.052 97.791 102.699 98.0098 102.296 98.3262L101.552 97.418C102.029 97.0156 102.492 96.7305 102.941 96.5625C103.39 96.3945 103.869 96.3105 104.376 96.3105C105.173 96.3105 105.812 96.5195 106.292 96.9375C106.773 97.3516 107.013 97.9102 107.013 98.6133C107.013 99 106.943 99.3672 106.802 99.7148C106.665 100.062 106.453 100.422 106.163 100.793C105.878 101.16 105.402 101.658 104.734 102.287L103.245 103.729V103.787H107.312V105ZM114.156 100.09C114.156 101.777 113.816 103.037 113.136 103.869C112.456 104.701 111.433 105.117 110.066 105.117C109.546 105.117 109.173 105.086 108.947 105.023V103.869C109.294 103.967 109.644 104.016 109.995 104.016C110.925 104.016 111.619 103.766 112.076 103.266C112.533 102.766 112.783 101.98 112.826 100.91H112.755C112.525 101.262 112.245 101.516 111.917 101.672C111.593 101.828 111.212 101.906 110.775 101.906C110.017 101.906 109.421 101.67 108.988 101.197C108.554 100.725 108.337 100.076 108.337 99.252C108.337 98.3574 108.587 97.6465 109.087 97.1191C109.591 96.5879 110.277 96.3223 111.144 96.3223C111.753 96.3223 112.285 96.4707 112.738 96.7676C113.191 97.0645 113.54 97.4961 113.786 98.0625C114.033 98.625 114.156 99.3008 114.156 100.09ZM111.167 97.4648C110.691 97.4648 110.326 97.6211 110.072 97.9336C109.818 98.2422 109.691 98.6777 109.691 99.2402C109.691 99.7285 109.808 100.113 110.042 100.395C110.281 100.672 110.64 100.811 111.12 100.811C111.585 100.811 111.976 100.672 112.292 100.395C112.609 100.117 112.767 99.793 112.767 99.4219C112.767 99.0742 112.699 98.75 112.562 98.4492C112.429 98.1445 112.242 97.9043 111.999 97.7285C111.757 97.5527 111.48 97.4648 111.167 97.4648Z" fill="#898989"/>
<path d="M145.656 98.4023C145.656 98.9453 145.498 99.3984 145.182 99.7617C144.865 100.121 144.42 100.363 143.846 100.488V100.535C144.533 100.621 145.049 100.836 145.393 101.18C145.736 101.52 145.908 101.973 145.908 102.539C145.908 103.363 145.617 104 145.035 104.449C144.453 104.895 143.625 105.117 142.551 105.117C141.602 105.117 140.801 104.963 140.148 104.654V103.43C140.512 103.609 140.896 103.748 141.303 103.846C141.709 103.943 142.1 103.992 142.475 103.992C143.139 103.992 143.635 103.869 143.963 103.623C144.291 103.377 144.455 102.996 144.455 102.48C144.455 102.023 144.273 101.688 143.91 101.473C143.547 101.258 142.977 101.15 142.199 101.15H141.455V100.031H142.211C143.578 100.031 144.262 99.5586 144.262 98.6133C144.262 98.2461 144.143 97.9629 143.904 97.7637C143.666 97.5645 143.314 97.4648 142.85 97.4648C142.525 97.4648 142.213 97.5117 141.912 97.6055C141.611 97.6953 141.256 97.873 140.846 98.1387L140.172 97.1777C140.957 96.5996 141.869 96.3105 142.908 96.3105C143.771 96.3105 144.445 96.4961 144.93 96.8672C145.414 97.2383 145.656 97.75 145.656 98.4023ZM152.834 100.717C152.834 102.205 152.594 103.311 152.113 104.033C151.637 104.756 150.906 105.117 149.922 105.117C148.969 105.117 148.246 104.744 147.754 103.998C147.262 103.252 147.016 102.158 147.016 100.717C147.016 99.2051 147.254 98.0918 147.73 97.377C148.211 96.6582 148.941 96.2988 149.922 96.2988C150.879 96.2988 151.604 96.6738 152.096 97.4238C152.588 98.1738 152.834 99.2715 152.834 100.717ZM148.41 100.717C148.41 101.885 148.529 102.719 148.768 103.219C149.01 103.719 149.395 103.969 149.922 103.969C150.449 103.969 150.834 103.715 151.076 103.207C151.322 102.699 151.445 101.869 151.445 100.717C151.445 99.5684 151.322 98.7383 151.076 98.2266C150.834 97.7109 150.449 97.4531 149.922 97.4531C149.395 97.4531 149.01 97.7051 148.768 98.209C148.529 98.7129 148.41 99.5488 148.41 100.717Z" fill="#898989"/>
<path d="M184.323 98.4023C184.323 98.9453 184.165 99.3984 183.848 99.7617C183.532 100.121 183.087 100.363 182.512 100.488V100.535C183.2 100.621 183.715 100.836 184.059 101.18C184.403 101.52 184.575 101.973 184.575 102.539C184.575 103.363 184.284 104 183.702 104.449C183.12 104.895 182.292 105.117 181.217 105.117C180.268 105.117 179.467 104.963 178.815 104.654V103.43C179.178 103.609 179.563 103.748 179.969 103.846C180.376 103.943 180.766 103.992 181.141 103.992C181.805 103.992 182.301 103.869 182.63 103.623C182.958 103.377 183.122 102.996 183.122 102.48C183.122 102.023 182.94 101.688 182.577 101.473C182.214 101.258 181.643 101.15 180.866 101.15H180.122V100.031H180.878C182.245 100.031 182.928 99.5586 182.928 98.6133C182.928 98.2461 182.809 97.9629 182.571 97.7637C182.333 97.5645 181.981 97.4648 181.516 97.4648C181.192 97.4648 180.88 97.5117 180.579 97.6055C180.278 97.6953 179.922 97.873 179.512 98.1387L178.839 97.1777C179.624 96.5996 180.536 96.3105 181.575 96.3105C182.438 96.3105 183.112 96.4961 183.596 96.8672C184.081 97.2383 184.323 97.75 184.323 98.4023ZM189.737 105H188.36V99.4688C188.36 98.8086 188.376 98.2852 188.407 97.8984C188.317 97.9922 188.206 98.0957 188.073 98.209C187.944 98.3223 187.506 98.6816 186.76 99.2871L186.069 98.4141L188.589 96.4336H189.737V105Z" fill="#898989"/>
<path d="M223.312 100.717C223.312 102.205 223.072 103.311 222.591 104.033C222.115 104.756 221.384 105.117 220.4 105.117C219.447 105.117 218.724 104.744 218.232 103.998C217.74 103.252 217.494 102.158 217.494 100.717C217.494 99.2051 217.732 98.0918 218.208 97.377C218.689 96.6582 219.419 96.2988 220.4 96.2988C221.357 96.2988 222.081 96.6738 222.574 97.4238C223.066 98.1738 223.312 99.2715 223.312 100.717ZM218.888 100.717C218.888 101.885 219.007 102.719 219.245 103.219C219.488 103.719 219.872 103.969 220.4 103.969C220.927 103.969 221.312 103.715 221.554 103.207C221.8 102.699 221.923 101.869 221.923 100.717C221.923 99.5684 221.8 98.7383 221.554 98.2266C221.312 97.7109 220.927 97.4531 220.4 97.4531C219.872 97.4531 219.488 97.7051 219.245 98.209C219.007 98.7129 218.888 99.5488 218.888 100.717ZM228.404 105H227.027V99.4688C227.027 98.8086 227.042 98.2852 227.074 97.8984C226.984 97.9922 226.872 98.0957 226.74 98.209C226.611 98.3223 226.173 98.6816 225.427 99.2871L224.736 98.4141L227.255 96.4336H228.404V105Z" fill="#2C3339"/>
<path d="M261.979 100.717C261.979 102.205 261.738 103.311 261.258 104.033C260.781 104.756 260.051 105.117 259.066 105.117C258.113 105.117 257.391 104.744 256.898 103.998C256.406 103.252 256.16 102.158 256.16 100.717C256.16 99.2051 256.398 98.0918 256.875 97.377C257.355 96.6582 258.086 96.2988 259.066 96.2988C260.023 96.2988 260.748 96.6738 261.24 97.4238C261.732 98.1738 261.979 99.2715 261.979 100.717ZM257.555 100.717C257.555 101.885 257.674 102.719 257.912 103.219C258.154 103.719 258.539 103.969 259.066 103.969C259.594 103.969 259.979 103.715 260.221 103.207C260.467 102.699 260.59 101.869 260.59 100.717C260.59 99.5684 260.467 98.7383 260.221 98.2266C259.979 97.7109 259.594 97.4531 259.066 97.4531C258.539 97.4531 258.154 97.7051 257.912 98.209C257.674 98.7129 257.555 99.5488 257.555 100.717ZM268.834 105H263.027V103.957L265.236 101.736C265.889 101.068 266.32 100.596 266.531 100.318C266.746 100.037 266.902 99.7734 267 99.5273C267.098 99.2812 267.146 99.0176 267.146 98.7363C267.146 98.3496 267.029 98.0449 266.795 97.8223C266.564 97.5996 266.244 97.4883 265.834 97.4883C265.506 97.4883 265.188 97.5488 264.879 97.6699C264.574 97.791 264.221 98.0098 263.818 98.3262L263.074 97.418C263.551 97.0156 264.014 96.7305 264.463 96.5625C264.912 96.3945 265.391 96.3105 265.898 96.3105C266.695 96.3105 267.334 96.5195 267.814 96.9375C268.295 97.3516 268.535 97.9102 268.535 98.6133C268.535 99 268.465 99.3672 268.324 99.7148C268.188 100.062 267.975 100.422 267.686 100.793C267.4 101.16 266.924 101.658 266.256 102.287L264.768 103.729V103.787H268.834V105Z" fill="#2C3339"/>
<path d="M29.9785 126.717C29.9785 128.205 29.7383 129.311 29.2578 130.033C28.7812 130.756 28.0508 131.117 27.0664 131.117C26.1133 131.117 25.3906 130.744 24.8984 129.998C24.4062 129.252 24.1602 128.158 24.1602 126.717C24.1602 125.205 24.3984 124.092 24.875 123.377C25.3555 122.658 26.0859 122.299 27.0664 122.299C28.0234 122.299 28.748 122.674 29.2402 123.424C29.7324 124.174 29.9785 125.271 29.9785 126.717ZM25.5547 126.717C25.5547 127.885 25.6738 128.719 25.9121 129.219C26.1543 129.719 26.5391 129.969 27.0664 129.969C27.5938 129.969 27.9785 129.715 28.2207 129.207C28.4668 128.699 28.5898 127.869 28.5898 126.717C28.5898 125.568 28.4668 124.738 28.2207 124.227C27.9785 123.711 27.5938 123.453 27.0664 123.453C26.5391 123.453 26.1543 123.705 25.9121 124.209C25.6738 124.713 25.5547 125.549 25.5547 126.717ZM36.5117 124.402C36.5117 124.945 36.3535 125.398 36.0371 125.762C35.7207 126.121 35.2754 126.363 34.7012 126.488V126.535C35.3887 126.621 35.9043 126.836 36.248 127.18C36.5918 127.52 36.7637 127.973 36.7637 128.539C36.7637 129.363 36.4727 130 35.8906 130.449C35.3086 130.895 34.4805 131.117 33.4062 131.117C32.457 131.117 31.6562 130.963 31.0039 130.654V129.43C31.3672 129.609 31.752 129.748 32.1582 129.846C32.5645 129.943 32.9551 129.992 33.3301 129.992C33.9941 129.992 34.4902 129.869 34.8184 129.623C35.1465 129.377 35.3105 128.996 35.3105 128.48C35.3105 128.023 35.1289 127.688 34.7656 127.473C34.4023 127.258 33.832 127.15 33.0547 127.15H32.3105V126.031H33.0664C34.4336 126.031 35.1172 125.559 35.1172 124.613C35.1172 124.246 34.998 123.963 34.7598 123.764C34.5215 123.564 34.1699 123.465 33.7051 123.465C33.3809 123.465 33.0684 123.512 32.7676 123.605C32.4668 123.695 32.1113 123.873 31.7012 124.139L31.0273 123.178C31.8125 122.6 32.7246 122.311 33.7637 122.311C34.627 122.311 35.3008 122.496 35.7852 122.867C36.2695 123.238 36.5117 123.75 36.5117 124.402Z" fill="#2C3339"/>
<path d="M56.6666 126C56.6666 119.373 62.0392 114 68.6666 114C75.294 114 80.6666 119.373 80.6666 126C80.6666 132.627 75.294 138 68.6666 138C62.0392 138 56.6666 132.627 56.6666 126Z" fill="#6556D9"/>
<path d="M68.6451 126.717C68.6451 128.205 68.4049 129.311 67.9244 130.033C67.4479 130.756 66.7174 131.117 65.733 131.117C64.7799 131.117 64.0573 130.744 63.5651 129.998C63.0729 129.252 62.8268 128.158 62.8268 126.717C62.8268 125.205 63.0651 124.092 63.5416 123.377C64.0221 122.658 64.7526 122.299 65.733 122.299C66.6901 122.299 67.4147 122.674 67.9069 123.424C68.399 124.174 68.6451 125.271 68.6451 126.717ZM64.2213 126.717C64.2213 127.885 64.3405 128.719 64.5787 129.219C64.8209 129.719 65.2057 129.969 65.733 129.969C66.2604 129.969 66.6451 129.715 66.8873 129.207C67.1334 128.699 67.2565 127.869 67.2565 126.717C67.2565 125.568 67.1334 124.738 66.8873 124.227C66.6451 123.711 66.2604 123.453 65.733 123.453C65.2057 123.453 64.8209 123.705 64.5787 124.209C64.3405 124.713 64.2213 125.549 64.2213 126.717ZM75.8053 129.131H74.651V131H73.3092V129.131H69.3951V128.07L73.3092 122.41H74.651V127.988H75.8053V129.131ZM73.3092 127.988V125.838C73.3092 125.072 73.3287 124.445 73.3678 123.957H73.3209C73.2115 124.215 73.0397 124.527 72.8053 124.895L70.6783 127.988H73.3092Z" fill="white"/>
<path d="M107.312 126.717C107.312 128.205 107.072 129.311 106.591 130.033C106.115 130.756 105.384 131.117 104.4 131.117C103.447 131.117 102.724 130.744 102.232 129.998C101.74 129.252 101.494 128.158 101.494 126.717C101.494 125.205 101.732 124.092 102.208 123.377C102.689 122.658 103.419 122.299 104.4 122.299C105.357 122.299 106.081 122.674 106.574 123.424C107.066 124.174 107.312 125.271 107.312 126.717ZM102.888 126.717C102.888 127.885 103.007 128.719 103.245 129.219C103.488 129.719 103.872 129.969 104.4 129.969C104.927 129.969 105.312 129.715 105.554 129.207C105.8 128.699 105.923 127.869 105.923 126.717C105.923 125.568 105.8 124.738 105.554 124.227C105.312 123.711 104.927 123.453 104.4 123.453C103.872 123.453 103.488 123.705 103.245 124.209C103.007 124.713 102.888 125.549 102.888 126.717ZM111.267 125.65C112.13 125.65 112.814 125.879 113.318 126.336C113.822 126.793 114.074 127.416 114.074 128.205C114.074 129.119 113.786 129.834 113.212 130.35C112.642 130.861 111.829 131.117 110.775 131.117C109.818 131.117 109.066 130.963 108.519 130.654V129.406C108.835 129.586 109.199 129.725 109.609 129.822C110.019 129.92 110.4 129.969 110.751 129.969C111.372 129.969 111.845 129.83 112.169 129.553C112.494 129.275 112.656 128.869 112.656 128.334C112.656 127.311 112.003 126.799 110.699 126.799C110.515 126.799 110.288 126.818 110.019 126.857C109.749 126.893 109.513 126.934 109.31 126.98L108.695 126.617L109.023 122.434H113.476V123.658H110.236L110.042 125.779C110.179 125.756 110.345 125.729 110.54 125.697C110.74 125.666 110.982 125.65 111.267 125.65Z" fill="#2C3339"/>
<path d="M145.979 126.717C145.979 128.205 145.738 129.311 145.258 130.033C144.781 130.756 144.051 131.117 143.066 131.117C142.113 131.117 141.391 130.744 140.898 129.998C140.406 129.252 140.16 128.158 140.16 126.717C140.16 125.205 140.398 124.092 140.875 123.377C141.355 122.658 142.086 122.299 143.066 122.299C144.023 122.299 144.748 122.674 145.24 123.424C145.732 124.174 145.979 125.271 145.979 126.717ZM141.555 126.717C141.555 127.885 141.674 128.719 141.912 129.219C142.154 129.719 142.539 129.969 143.066 129.969C143.594 129.969 143.979 129.715 144.221 129.207C144.467 128.699 144.59 127.869 144.59 126.717C144.59 125.568 144.467 124.738 144.221 124.227C143.979 123.711 143.594 123.453 143.066 123.453C142.539 123.453 142.154 123.705 141.912 124.209C141.674 124.713 141.555 125.549 141.555 126.717ZM147.051 127.35C147.051 123.998 148.416 122.322 151.146 122.322C151.576 122.322 151.939 122.355 152.236 122.422V123.57C151.939 123.484 151.596 123.441 151.205 123.441C150.287 123.441 149.598 123.688 149.137 124.18C148.676 124.672 148.426 125.461 148.387 126.547H148.457C148.641 126.23 148.898 125.986 149.23 125.814C149.562 125.639 149.953 125.551 150.402 125.551C151.18 125.551 151.785 125.789 152.219 126.266C152.652 126.742 152.869 127.389 152.869 128.205C152.869 129.104 152.617 129.814 152.113 130.338C151.613 130.857 150.93 131.117 150.062 131.117C149.449 131.117 148.916 130.971 148.463 130.678C148.01 130.381 147.66 129.951 147.414 129.389C147.172 128.822 147.051 128.143 147.051 127.35ZM150.039 129.98C150.512 129.98 150.875 129.828 151.129 129.523C151.387 129.219 151.516 128.783 151.516 128.217C151.516 127.725 151.395 127.338 151.152 127.057C150.914 126.775 150.555 126.635 150.074 126.635C149.777 126.635 149.504 126.699 149.254 126.828C149.004 126.953 148.807 127.127 148.662 127.35C148.518 127.568 148.445 127.793 148.445 128.023C148.445 128.574 148.594 129.039 148.891 129.418C149.191 129.793 149.574 129.98 150.039 129.98Z" fill="#2C3339"/>
<path d="M184.645 126.717C184.645 128.205 184.405 129.311 183.924 130.033C183.448 130.756 182.717 131.117 181.733 131.117C180.78 131.117 180.057 130.744 179.565 129.998C179.073 129.252 178.827 128.158 178.827 126.717C178.827 125.205 179.065 124.092 179.542 123.377C180.022 122.658 180.753 122.299 181.733 122.299C182.69 122.299 183.415 122.674 183.907 123.424C184.399 124.174 184.645 125.271 184.645 126.717ZM180.221 126.717C180.221 127.885 180.34 128.719 180.579 129.219C180.821 129.719 181.206 129.969 181.733 129.969C182.26 129.969 182.645 129.715 182.887 129.207C183.133 128.699 183.256 127.869 183.256 126.717C183.256 125.568 183.133 124.738 182.887 124.227C182.645 123.711 182.26 123.453 181.733 123.453C181.206 123.453 180.821 123.705 180.579 124.209C180.34 124.713 180.221 125.549 180.221 126.717ZM186.667 131L190.053 123.658H185.6V122.445H191.524V123.406L188.155 131H186.667Z" fill="#2C3339"/>
<path d="M223.312 126.717C223.312 128.205 223.072 129.311 222.591 130.033C222.115 130.756 221.384 131.117 220.4 131.117C219.447 131.117 218.724 130.744 218.232 129.998C217.74 129.252 217.494 128.158 217.494 126.717C217.494 125.205 217.732 124.092 218.208 123.377C218.689 122.658 219.419 122.299 220.4 122.299C221.357 122.299 222.081 122.674 222.574 123.424C223.066 124.174 223.312 125.271 223.312 126.717ZM218.888 126.717C218.888 127.885 219.007 128.719 219.245 129.219C219.488 129.719 219.872 129.969 220.4 129.969C220.927 129.969 221.312 129.715 221.554 129.207C221.8 128.699 221.923 127.869 221.923 126.717C221.923 125.568 221.8 124.738 221.554 124.227C221.312 123.711 220.927 123.453 220.4 123.453C219.872 123.453 219.488 123.705 219.245 124.209C219.007 124.713 218.888 125.549 218.888 126.717ZM227.255 122.322C228.068 122.322 228.71 122.51 229.183 122.885C229.656 123.256 229.892 123.754 229.892 124.379C229.892 125.258 229.365 125.957 228.31 126.477C228.982 126.812 229.458 127.166 229.74 127.537C230.025 127.908 230.167 128.322 230.167 128.779C230.167 129.486 229.908 130.053 229.388 130.479C228.869 130.904 228.165 131.117 227.279 131.117C226.349 131.117 225.628 130.918 225.117 130.52C224.605 130.121 224.349 129.557 224.349 128.826C224.349 128.35 224.482 127.922 224.747 127.543C225.017 127.16 225.456 126.82 226.066 126.523C225.542 126.211 225.169 125.881 224.947 125.533C224.724 125.186 224.613 124.795 224.613 124.361C224.613 123.74 224.857 123.246 225.345 122.879C225.833 122.508 226.47 122.322 227.255 122.322ZM225.667 128.779C225.667 129.186 225.81 129.502 226.095 129.729C226.38 129.951 226.767 130.062 227.255 130.062C227.759 130.062 228.15 129.947 228.427 129.717C228.708 129.482 228.849 129.166 228.849 128.768C228.849 128.451 228.72 128.162 228.462 127.9C228.204 127.639 227.814 127.396 227.29 127.174L227.12 127.098C226.605 127.324 226.234 127.574 226.007 127.848C225.781 128.117 225.667 128.428 225.667 128.779ZM227.244 123.383C226.853 123.383 226.538 123.48 226.3 123.676C226.062 123.867 225.943 124.129 225.943 124.461C225.943 124.664 225.986 124.846 226.072 125.006C226.158 125.166 226.283 125.312 226.447 125.445C226.611 125.574 226.888 125.73 227.279 125.914C227.747 125.707 228.078 125.49 228.269 125.264C228.464 125.033 228.562 124.766 228.562 124.461C228.562 124.129 228.441 123.867 228.199 123.676C227.96 123.48 227.642 123.383 227.244 123.383Z" fill="#2C3339"/>
<path d="M261.979 126.717C261.979 128.205 261.738 129.311 261.258 130.033C260.781 130.756 260.051 131.117 259.066 131.117C258.113 131.117 257.391 130.744 256.898 129.998C256.406 129.252 256.16 128.158 256.16 126.717C256.16 125.205 256.398 124.092 256.875 123.377C257.355 122.658 258.086 122.299 259.066 122.299C260.023 122.299 260.748 122.674 261.24 123.424C261.732 124.174 261.979 125.271 261.979 126.717ZM257.555 126.717C257.555 127.885 257.674 128.719 257.912 129.219C258.154 129.719 258.539 129.969 259.066 129.969C259.594 129.969 259.979 129.715 260.221 129.207C260.467 128.699 260.59 127.869 260.59 126.717C260.59 125.568 260.467 124.738 260.221 124.227C259.979 123.711 259.594 123.453 259.066 123.453C258.539 123.453 258.154 123.705 257.912 124.209C257.674 124.713 257.555 125.549 257.555 126.717ZM268.822 126.09C268.822 127.777 268.482 129.037 267.803 129.869C267.123 130.701 266.1 131.117 264.732 131.117C264.213 131.117 263.84 131.086 263.613 131.023V129.869C263.961 129.967 264.311 130.016 264.662 130.016C265.592 130.016 266.285 129.766 266.742 129.266C267.199 128.766 267.449 127.98 267.492 126.91H267.422C267.191 127.262 266.912 127.516 266.584 127.672C266.26 127.828 265.879 127.906 265.441 127.906C264.684 127.906 264.088 127.67 263.654 127.197C263.221 126.725 263.004 126.076 263.004 125.252C263.004 124.357 263.254 123.646 263.754 123.119C264.258 122.588 264.943 122.322 265.811 122.322C266.42 122.322 266.951 122.471 267.404 122.768C267.857 123.064 268.207 123.496 268.453 124.062C268.699 124.625 268.822 125.301 268.822 126.09ZM265.834 123.465C265.357 123.465 264.992 123.621 264.738 123.934C264.484 124.242 264.357 124.678 264.357 125.24C264.357 125.729 264.475 126.113 264.709 126.395C264.947 126.672 265.307 126.811 265.787 126.811C266.252 126.811 266.643 126.672 266.959 126.395C267.275 126.117 267.434 125.793 267.434 125.422C267.434 125.074 267.365 124.75 267.229 124.449C267.096 124.145 266.908 123.904 266.666 123.729C266.424 123.553 266.146 123.465 265.834 123.465Z" fill="#2C3339"/>
<path d="M28.2148 157H26.8379V151.469C26.8379 150.809 26.8535 150.285 26.8848 149.898C26.7949 149.992 26.6836 150.096 26.5508 150.209C26.4219 150.322 25.9844 150.682 25.2383 151.287L24.5469 150.414L27.0664 148.434H28.2148V157ZM36.834 152.717C36.834 154.205 36.5938 155.311 36.1133 156.033C35.6367 156.756 34.9062 157.117 33.9219 157.117C32.9688 157.117 32.2461 156.744 31.7539 155.998C31.2617 155.252 31.0156 154.158 31.0156 152.717C31.0156 151.205 31.2539 150.092 31.7305 149.377C32.2109 148.658 32.9414 148.299 33.9219 148.299C34.8789 148.299 35.6035 148.674 36.0957 149.424C36.5879 150.174 36.834 151.271 36.834 152.717ZM32.4102 152.717C32.4102 153.885 32.5293 154.719 32.7676 155.219C33.0098 155.719 33.3945 155.969 33.9219 155.969C34.4492 155.969 34.834 155.715 35.0762 155.207C35.3223 154.699 35.4453 153.869 35.4453 152.717C35.4453 151.568 35.3223 150.738 35.0762 150.227C34.834 149.711 34.4492 149.453 33.9219 149.453C33.3945 149.453 33.0098 149.705 32.7676 150.209C32.5293 150.713 32.4102 151.549 32.4102 152.717Z" fill="#2C3339"/>
<path d="M66.8815 157H65.5045V151.469C65.5045 150.809 65.5201 150.285 65.5514 149.898C65.4615 149.992 65.3502 150.096 65.2174 150.209C65.0885 150.322 64.651 150.682 63.9049 151.287L63.2135 150.414L65.733 148.434H66.8815V157ZM73.7369 157H72.36V151.469C72.36 150.809 72.3756 150.285 72.4069 149.898C72.317 149.992 72.2057 150.096 72.0729 150.209C71.944 150.322 71.5065 150.682 70.7604 151.287L70.069 150.414L72.5885 148.434H73.7369V157Z" fill="#2C3339"/>
<path d="M105.548 157H104.171V151.469C104.171 150.809 104.187 150.285 104.218 149.898C104.128 149.992 104.017 150.096 103.884 150.209C103.755 150.322 103.318 150.682 102.572 151.287L101.88 150.414L104.4 148.434H105.548V157ZM114.167 157H108.361V155.957L110.57 153.736C111.222 153.068 111.654 152.596 111.865 152.318C112.079 152.037 112.236 151.773 112.333 151.527C112.431 151.281 112.48 151.018 112.48 150.736C112.48 150.35 112.363 150.045 112.128 149.822C111.898 149.6 111.578 149.488 111.167 149.488C110.839 149.488 110.521 149.549 110.212 149.67C109.908 149.791 109.554 150.01 109.152 150.326L108.408 149.418C108.884 149.016 109.347 148.73 109.796 148.562C110.245 148.395 110.724 148.311 111.232 148.311C112.029 148.311 112.667 148.52 113.148 148.938C113.628 149.352 113.869 149.91 113.869 150.613C113.869 151 113.798 151.367 113.658 151.715C113.521 152.062 113.308 152.422 113.019 152.793C112.734 153.16 112.257 153.658 111.589 154.287L110.101 155.729V155.787H114.167V157Z" fill="#2C3339"/>
<path d="M144.215 157H142.838V151.469C142.838 150.809 142.854 150.285 142.885 149.898C142.795 149.992 142.684 150.096 142.551 150.209C142.422 150.322 141.984 150.682 141.238 151.287L140.547 150.414L143.066 148.434H144.215V157ZM152.512 150.402C152.512 150.945 152.354 151.398 152.037 151.762C151.721 152.121 151.275 152.363 150.701 152.488V152.535C151.389 152.621 151.904 152.836 152.248 153.18C152.592 153.52 152.764 153.973 152.764 154.539C152.764 155.363 152.473 156 151.891 156.449C151.309 156.895 150.48 157.117 149.406 157.117C148.457 157.117 147.656 156.963 147.004 156.654V155.43C147.367 155.609 147.752 155.748 148.158 155.846C148.564 155.943 148.955 155.992 149.33 155.992C149.994 155.992 150.49 155.869 150.818 155.623C151.146 155.377 151.311 154.996 151.311 154.48C151.311 154.023 151.129 153.688 150.766 153.473C150.402 153.258 149.832 153.15 149.055 153.15H148.311V152.031H149.066C150.434 152.031 151.117 151.559 151.117 150.613C151.117 150.246 150.998 149.963 150.76 149.764C150.521 149.564 150.17 149.465 149.705 149.465C149.381 149.465 149.068 149.512 148.768 149.605C148.467 149.695 148.111 149.873 147.701 150.139L147.027 149.178C147.812 148.6 148.725 148.311 149.764 148.311C150.627 148.311 151.301 148.496 151.785 148.867C152.27 149.238 152.512 149.75 152.512 150.402Z" fill="#2C3339"/>
<path d="M182.881 157H181.505V151.469C181.505 150.809 181.52 150.285 181.551 149.898C181.462 149.992 181.35 150.096 181.217 150.209C181.089 150.322 180.651 150.682 179.905 151.287L179.214 150.414L181.733 148.434H182.881V157ZM191.805 155.131H190.651V157H189.309V155.131H185.395V154.07L189.309 148.41H190.651V153.988H191.805V155.131ZM189.309 153.988V151.838C189.309 151.072 189.329 150.445 189.368 149.957H189.321C189.212 150.215 189.04 150.527 188.805 150.895L186.678 153.988H189.309Z" fill="#2C3339"/>
<path d="M221.548 157H220.171V151.469C220.171 150.809 220.187 150.285 220.218 149.898C220.128 149.992 220.017 150.096 219.884 150.209C219.755 150.322 219.318 150.682 218.572 151.287L217.88 150.414L220.4 148.434H221.548V157ZM227.267 151.65C228.13 151.65 228.814 151.879 229.318 152.336C229.822 152.793 230.074 153.416 230.074 154.205C230.074 155.119 229.786 155.834 229.212 156.35C228.642 156.861 227.829 157.117 226.775 157.117C225.818 157.117 225.066 156.963 224.519 156.654V155.406C224.835 155.586 225.199 155.725 225.609 155.822C226.019 155.92 226.4 155.969 226.751 155.969C227.372 155.969 227.845 155.83 228.169 155.553C228.494 155.275 228.656 154.869 228.656 154.334C228.656 153.311 228.003 152.799 226.699 152.799C226.515 152.799 226.288 152.818 226.019 152.857C225.749 152.893 225.513 152.934 225.31 152.98L224.695 152.617L225.023 148.434H229.476V149.658H226.236L226.042 151.779C226.179 151.756 226.345 151.729 226.54 151.697C226.74 151.666 226.982 151.65 227.267 151.65Z" fill="#2C3339"/>
<path d="M260.215 157H258.838V151.469C258.838 150.809 258.854 150.285 258.885 149.898C258.795 149.992 258.684 150.096 258.551 150.209C258.422 150.322 257.984 150.682 257.238 151.287L256.547 150.414L259.066 148.434H260.215V157ZM263.051 153.35C263.051 149.998 264.416 148.322 267.146 148.322C267.576 148.322 267.939 148.355 268.236 148.422V149.57C267.939 149.484 267.596 149.441 267.205 149.441C266.287 149.441 265.598 149.688 265.137 150.18C264.676 150.672 264.426 151.461 264.387 152.547H264.457C264.641 152.23 264.898 151.986 265.23 151.814C265.562 151.639 265.953 151.551 266.402 151.551C267.18 151.551 267.785 151.789 268.219 152.266C268.652 152.742 268.869 153.389 268.869 154.205C268.869 155.104 268.617 155.814 268.113 156.338C267.613 156.857 266.93 157.117 266.062 157.117C265.449 157.117 264.916 156.971 264.463 156.678C264.01 156.381 263.66 155.951 263.414 155.389C263.172 154.822 263.051 154.143 263.051 153.35ZM266.039 155.98C266.512 155.98 266.875 155.828 267.129 155.523C267.387 155.219 267.516 154.783 267.516 154.217C267.516 153.725 267.395 153.338 267.152 153.057C266.914 152.775 266.555 152.635 266.074 152.635C265.777 152.635 265.504 152.699 265.254 152.828C265.004 152.953 264.807 153.127 264.662 153.35C264.518 153.568 264.445 153.793 264.445 154.023C264.445 154.574 264.594 155.039 264.891 155.418C265.191 155.793 265.574 155.98 266.039 155.98Z" fill="#2C3339"/>
<path d="M28.2148 183H26.8379V177.469C26.8379 176.809 26.8535 176.285 26.8848 175.898C26.7949 175.992 26.6836 176.096 26.5508 176.209C26.4219 176.322 25.9844 176.682 25.2383 177.287L24.5469 176.414L27.0664 174.434H28.2148V183ZM32 183L35.3867 175.658H30.9336V174.445H36.8574V175.406L33.4883 183H32Z" fill="#2C3339"/>
<path d="M66.8815 183H65.5045V177.469C65.5045 176.809 65.5201 176.285 65.5514 175.898C65.4615 175.992 65.3502 176.096 65.2174 176.209C65.0885 176.322 64.651 176.682 63.9049 177.287L63.2135 176.414L65.733 174.434H66.8815V183ZM72.5885 174.322C73.401 174.322 74.0436 174.51 74.5162 174.885C74.9889 175.256 75.2252 175.754 75.2252 176.379C75.2252 177.258 74.6979 177.957 73.6432 178.477C74.3151 178.812 74.7916 179.166 75.0729 179.537C75.358 179.908 75.5006 180.322 75.5006 180.779C75.5006 181.486 75.2408 182.053 74.7213 182.479C74.2018 182.904 73.4987 183.117 72.6119 183.117C71.6823 183.117 70.9615 182.918 70.4498 182.52C69.9381 182.121 69.6823 181.557 69.6823 180.826C69.6823 180.35 69.8151 179.922 70.0807 179.543C70.3502 179.16 70.7897 178.82 71.399 178.523C70.8756 178.211 70.5026 177.881 70.2799 177.533C70.0573 177.186 69.9459 176.795 69.9459 176.361C69.9459 175.74 70.1901 175.246 70.6783 174.879C71.1666 174.508 71.8033 174.322 72.5885 174.322ZM71.0006 180.779C71.0006 181.186 71.1432 181.502 71.4283 181.729C71.7135 181.951 72.1002 182.062 72.5885 182.062C73.0924 182.062 73.483 181.947 73.7604 181.717C74.0416 181.482 74.1823 181.166 74.1823 180.768C74.1823 180.451 74.0533 180.162 73.7955 179.9C73.5377 179.639 73.1471 179.396 72.6237 179.174L72.4537 179.098C71.9381 179.324 71.567 179.574 71.3405 179.848C71.1139 180.117 71.0006 180.428 71.0006 180.779ZM72.5768 175.383C72.1862 175.383 71.8717 175.48 71.6334 175.676C71.3951 175.867 71.276 176.129 71.276 176.461C71.276 176.664 71.319 176.846 71.4049 177.006C71.4908 177.166 71.6158 177.312 71.7799 177.445C71.944 177.574 72.2213 177.73 72.6119 177.914C73.0807 177.707 73.4108 177.49 73.6022 177.264C73.7975 177.033 73.8951 176.766 73.8951 176.461C73.8951 176.129 73.774 175.867 73.5319 175.676C73.2936 175.48 72.9752 175.383 72.5768 175.383Z" fill="#2C3339"/>
<path d="M105.548 183H104.171V177.469C104.171 176.809 104.187 176.285 104.218 175.898C104.128 175.992 104.017 176.096 103.884 176.209C103.755 176.322 103.318 176.682 102.572 177.287L101.88 176.414L104.4 174.434H105.548V183ZM114.156 178.09C114.156 179.777 113.816 181.037 113.136 181.869C112.456 182.701 111.433 183.117 110.066 183.117C109.546 183.117 109.173 183.086 108.947 183.023V181.869C109.294 181.967 109.644 182.016 109.995 182.016C110.925 182.016 111.619 181.766 112.076 181.266C112.533 180.766 112.783 179.98 112.826 178.91H112.755C112.525 179.262 112.245 179.516 111.917 179.672C111.593 179.828 111.212 179.906 110.775 179.906C110.017 179.906 109.421 179.67 108.988 179.197C108.554 178.725 108.337 178.076 108.337 177.252C108.337 176.357 108.587 175.646 109.087 175.119C109.591 174.588 110.277 174.322 111.144 174.322C111.753 174.322 112.285 174.471 112.738 174.768C113.191 175.064 113.54 175.496 113.786 176.062C114.033 176.625 114.156 177.301 114.156 178.09ZM111.167 175.465C110.691 175.465 110.326 175.621 110.072 175.934C109.818 176.242 109.691 176.678 109.691 177.24C109.691 177.729 109.808 178.113 110.042 178.395C110.281 178.672 110.64 178.811 111.12 178.811C111.585 178.811 111.976 178.672 112.292 178.395C112.609 178.117 112.767 177.793 112.767 177.422C112.767 177.074 112.699 176.75 112.562 176.449C112.429 176.145 112.242 175.904 111.999 175.729C111.757 175.553 111.48 175.465 111.167 175.465Z" fill="#2C3339"/>
<path d="M145.979 183H140.172V181.957L142.381 179.736C143.033 179.068 143.465 178.596 143.676 178.318C143.891 178.037 144.047 177.773 144.145 177.527C144.242 177.281 144.291 177.018 144.291 176.736C144.291 176.35 144.174 176.045 143.939 175.822C143.709 175.6 143.389 175.488 142.979 175.488C142.65 175.488 142.332 175.549 142.023 175.67C141.719 175.791 141.365 176.01 140.963 176.326L140.219 175.418C140.695 175.016 141.158 174.73 141.607 174.562C142.057 174.395 142.535 174.311 143.043 174.311C143.84 174.311 144.479 174.52 144.959 174.938C145.439 175.352 145.68 175.91 145.68 176.613C145.68 177 145.609 177.367 145.469 177.715C145.332 178.062 145.119 178.422 144.83 178.793C144.545 179.16 144.068 179.658 143.4 180.287L141.912 181.729V181.787H145.979V183ZM152.834 178.717C152.834 180.205 152.594 181.311 152.113 182.033C151.637 182.756 150.906 183.117 149.922 183.117C148.969 183.117 148.246 182.744 147.754 181.998C147.262 181.252 147.016 180.158 147.016 178.717C147.016 177.205 147.254 176.092 147.73 175.377C148.211 174.658 148.941 174.299 149.922 174.299C150.879 174.299 151.604 174.674 152.096 175.424C152.588 176.174 152.834 177.271 152.834 178.717ZM148.41 178.717C148.41 179.885 148.529 180.719 148.768 181.219C149.01 181.719 149.395 181.969 149.922 181.969C150.449 181.969 150.834 181.715 151.076 181.207C151.322 180.699 151.445 179.869 151.445 178.717C151.445 177.568 151.322 176.738 151.076 176.227C150.834 175.711 150.449 175.453 149.922 175.453C149.395 175.453 149.01 175.705 148.768 176.209C148.529 176.713 148.41 177.549 148.41 178.717Z" fill="#2C3339"/>
<path d="M184.645 183H178.839V181.957L181.047 179.736C181.7 179.068 182.131 178.596 182.342 178.318C182.557 178.037 182.714 177.773 182.811 177.527C182.909 177.281 182.958 177.018 182.958 176.736C182.958 176.35 182.84 176.045 182.606 175.822C182.376 175.6 182.055 175.488 181.645 175.488C181.317 175.488 180.999 175.549 180.69 175.67C180.385 175.791 180.032 176.01 179.63 176.326L178.885 175.418C179.362 175.016 179.825 174.73 180.274 174.562C180.723 174.395 181.202 174.311 181.71 174.311C182.506 174.311 183.145 174.52 183.626 174.938C184.106 175.352 184.346 175.91 184.346 176.613C184.346 177 184.276 177.367 184.135 177.715C183.999 178.062 183.786 178.422 183.497 178.793C183.212 179.16 182.735 179.658 182.067 180.287L180.579 181.729V181.787H184.645V183ZM189.737 183H188.36V177.469C188.36 176.809 188.376 176.285 188.407 175.898C188.317 175.992 188.206 176.096 188.073 176.209C187.944 176.322 187.506 176.682 186.76 177.287L186.069 176.414L188.589 174.434H189.737V183Z" fill="#2C3339"/>
<path d="M223.312 183H217.505V181.957L219.714 179.736C220.367 179.068 220.798 178.596 221.009 178.318C221.224 178.037 221.38 177.773 221.478 177.527C221.576 177.281 221.624 177.018 221.624 176.736C221.624 176.35 221.507 176.045 221.273 175.822C221.042 175.6 220.722 175.488 220.312 175.488C219.984 175.488 219.665 175.549 219.357 175.67C219.052 175.791 218.699 176.01 218.296 176.326L217.552 175.418C218.029 175.016 218.492 174.73 218.941 174.562C219.39 174.395 219.869 174.311 220.376 174.311C221.173 174.311 221.812 174.52 222.292 174.938C222.773 175.352 223.013 175.91 223.013 176.613C223.013 177 222.943 177.367 222.802 177.715C222.665 178.062 222.453 178.422 222.163 178.793C221.878 179.16 221.402 179.658 220.734 180.287L219.245 181.729V181.787H223.312V183ZM230.167 183H224.361V181.957L226.57 179.736C227.222 179.068 227.654 178.596 227.865 178.318C228.079 178.037 228.236 177.773 228.333 177.527C228.431 177.281 228.48 177.018 228.48 176.736C228.48 176.35 228.363 176.045 228.128 175.822C227.898 175.6 227.578 175.488 227.167 175.488C226.839 175.488 226.521 175.549 226.212 175.67C225.908 175.791 225.554 176.01 225.152 176.326L224.408 175.418C224.884 175.016 225.347 174.73 225.796 174.562C226.245 174.395 226.724 174.311 227.232 174.311C228.029 174.311 228.667 174.52 229.148 174.938C229.628 175.352 229.869 175.91 229.869 176.613C229.869 177 229.798 177.367 229.658 177.715C229.521 178.062 229.308 178.422 229.019 178.793C228.734 179.16 228.257 179.658 227.589 180.287L226.101 181.729V181.787H230.167V183Z" fill="#2C3339"/>
<path d="M261.979 183H256.172V181.957L258.381 179.736C259.033 179.068 259.465 178.596 259.676 178.318C259.891 178.037 260.047 177.773 260.145 177.527C260.242 177.281 260.291 177.018 260.291 176.736C260.291 176.35 260.174 176.045 259.939 175.822C259.709 175.6 259.389 175.488 258.979 175.488C258.65 175.488 258.332 175.549 258.023 175.67C257.719 175.791 257.365 176.01 256.963 176.326L256.219 175.418C256.695 175.016 257.158 174.73 257.607 174.562C258.057 174.395 258.535 174.311 259.043 174.311C259.84 174.311 260.479 174.52 260.959 174.938C261.439 175.352 261.68 175.91 261.68 176.613C261.68 177 261.609 177.367 261.469 177.715C261.332 178.062 261.119 178.422 260.83 178.793C260.545 179.16 260.068 179.658 259.4 180.287L257.912 181.729V181.787H261.979V183ZM268.512 176.402C268.512 176.945 268.354 177.398 268.037 177.762C267.721 178.121 267.275 178.363 266.701 178.488V178.535C267.389 178.621 267.904 178.836 268.248 179.18C268.592 179.52 268.764 179.973 268.764 180.539C268.764 181.363 268.473 182 267.891 182.449C267.309 182.895 266.48 183.117 265.406 183.117C264.457 183.117 263.656 182.963 263.004 182.654V181.43C263.367 181.609 263.752 181.748 264.158 181.846C264.564 181.943 264.955 181.992 265.33 181.992C265.994 181.992 266.49 181.869 266.818 181.623C267.146 181.377 267.311 180.996 267.311 180.48C267.311 180.023 267.129 179.688 266.766 179.473C266.402 179.258 265.832 179.15 265.055 179.15H264.311V178.031H265.066C266.434 178.031 267.117 177.559 267.117 176.613C267.117 176.246 266.998 175.963 266.76 175.764C266.521 175.564 266.17 175.465 265.705 175.465C265.381 175.465 265.068 175.512 264.768 175.605C264.467 175.695 264.111 175.873 263.701 176.139L263.027 175.178C263.812 174.6 264.725 174.311 265.764 174.311C266.627 174.311 267.301 174.496 267.785 174.867C268.27 175.238 268.512 175.75 268.512 176.402Z" fill="#2C3339"/>
<path d="M18 204C18 197.373 23.3726 192 30 192C36.6274 192 42 197.373 42 204C42 210.627 36.6274 216 30 216C23.3726 216 18 210.627 18 204Z" fill="#E4E6FF"/>
<path d="M29.9785 209H24.1719V207.957L26.3809 205.736C27.0332 205.068 27.4648 204.596 27.6758 204.318C27.8906 204.037 28.0469 203.773 28.1445 203.527C28.2422 203.281 28.291 203.018 28.291 202.736C28.291 202.35 28.1738 202.045 27.9395 201.822C27.709 201.6 27.3887 201.488 26.9785 201.488C26.6504 201.488 26.332 201.549 26.0234 201.67C25.7188 201.791 25.3652 202.01 24.9629 202.326L24.2188 201.418C24.6953 201.016 25.1582 200.73 25.6074 200.562C26.0566 200.395 26.5352 200.311 27.043 200.311C27.8398 200.311 28.4785 200.52 28.959 200.938C29.4395 201.352 29.6797 201.91 29.6797 202.613C29.6797 203 29.6094 203.367 29.4688 203.715C29.332 204.062 29.1191 204.422 28.8301 204.793C28.5449 205.16 28.0684 205.658 27.4004 206.287L25.9121 207.729V207.787H29.9785V209ZM37.1387 207.131H35.9844V209H34.6426V207.131H30.7285V206.07L34.6426 200.41H35.9844V205.988H37.1387V207.131ZM34.6426 205.988V203.838C34.6426 203.072 34.6621 202.445 34.7012 201.957H34.6543C34.5449 202.215 34.373 202.527 34.1387 202.895L32.0117 205.988H34.6426Z" fill="#6556D9"/>
<path d="M56.6666 204C56.6666 197.373 62.0392 192 68.6666 192C75.294 192 80.6666 197.373 80.6666 204C80.6666 210.627 75.294 216 68.6666 216C62.0392 216 56.6666 210.627 56.6666 204Z" fill="#E4E6FF"/>
<path d="M68.6451 209H62.8385V207.957L65.0475 205.736C65.6998 205.068 66.1315 204.596 66.3424 204.318C66.5573 204.037 66.7135 203.773 66.8112 203.527C66.9088 203.281 66.9576 203.018 66.9576 202.736C66.9576 202.35 66.8405 202.045 66.6061 201.822C66.3756 201.6 66.0553 201.488 65.6451 201.488C65.317 201.488 64.9987 201.549 64.6901 201.67C64.3854 201.791 64.0319 202.01 63.6295 202.326L62.8854 201.418C63.3619 201.016 63.8248 200.73 64.274 200.562C64.7233 200.395 65.2018 200.311 65.7096 200.311C66.5065 200.311 67.1451 200.52 67.6256 200.938C68.1061 201.352 68.3463 201.91 68.3463 202.613C68.3463 203 68.276 203.367 68.1354 203.715C67.9987 204.062 67.7858 204.422 67.4967 204.793C67.2115 205.16 66.735 205.658 66.067 206.287L64.5787 207.729V207.787H68.6451V209ZM72.6002 203.65C73.4635 203.65 74.1471 203.879 74.651 204.336C75.1549 204.793 75.4069 205.416 75.4069 206.205C75.4069 207.119 75.1198 207.834 74.5455 208.35C73.9752 208.861 73.1627 209.117 72.108 209.117C71.151 209.117 70.399 208.963 69.8522 208.654V207.406C70.1686 207.586 70.5319 207.725 70.942 207.822C71.3522 207.92 71.733 207.969 72.0846 207.969C72.7057 207.969 73.1783 207.83 73.5026 207.553C73.8268 207.275 73.9889 206.869 73.9889 206.334C73.9889 205.311 73.3365 204.799 72.0319 204.799C71.8483 204.799 71.6217 204.818 71.3522 204.857C71.0826 204.893 70.8463 204.934 70.6432 204.98L70.028 204.617L70.3561 200.434H74.8092V201.658H71.569L71.3756 203.779C71.5123 203.756 71.6783 203.729 71.8737 203.697C72.0729 203.666 72.3151 203.65 72.6002 203.65Z" fill="#6556D9"/>
<path d="M95.3334 204C95.3334 197.373 100.706 192 107.333 192C113.961 192 119.333 197.373 119.333 204C119.333 210.627 113.961 216 107.333 216C100.706 216 95.3334 210.627 95.3334 204Z" fill="#E4E6FF"/>
<path d="M107.312 209H101.505V207.957L103.714 205.736C104.367 205.068 104.798 204.596 105.009 204.318C105.224 204.037 105.38 203.773 105.478 203.527C105.576 203.281 105.624 203.018 105.624 202.736C105.624 202.35 105.507 202.045 105.273 201.822C105.042 201.6 104.722 201.488 104.312 201.488C103.984 201.488 103.665 201.549 103.357 201.67C103.052 201.791 102.699 202.01 102.296 202.326L101.552 201.418C102.029 201.016 102.492 200.73 102.941 200.562C103.39 200.395 103.869 200.311 104.376 200.311C105.173 200.311 105.812 200.52 106.292 200.938C106.773 201.352 107.013 201.91 107.013 202.613C107.013 203 106.943 203.367 106.802 203.715C106.665 204.062 106.453 204.422 106.163 204.793C105.878 205.16 105.402 205.658 104.734 206.287L103.245 207.729V207.787H107.312V209ZM108.384 205.35C108.384 201.998 109.749 200.322 112.48 200.322C112.91 200.322 113.273 200.355 113.57 200.422V201.57C113.273 201.484 112.929 201.441 112.538 201.441C111.62 201.441 110.931 201.688 110.47 202.18C110.009 202.672 109.759 203.461 109.72 204.547H109.79C109.974 204.23 110.232 203.986 110.564 203.814C110.896 203.639 111.286 203.551 111.736 203.551C112.513 203.551 113.119 203.789 113.552 204.266C113.986 204.742 114.203 205.389 114.203 206.205C114.203 207.104 113.951 207.814 113.447 208.338C112.947 208.857 112.263 209.117 111.396 209.117C110.783 209.117 110.249 208.971 109.796 208.678C109.343 208.381 108.994 207.951 108.747 207.389C108.505 206.822 108.384 206.143 108.384 205.35ZM111.372 207.98C111.845 207.98 112.208 207.828 112.462 207.523C112.72 207.219 112.849 206.783 112.849 206.217C112.849 205.725 112.728 205.338 112.486 205.057C112.247 204.775 111.888 204.635 111.408 204.635C111.111 204.635 110.837 204.699 110.587 204.828C110.337 204.953 110.14 205.127 109.995 205.35C109.851 205.568 109.779 205.793 109.779 206.023C109.779 206.574 109.927 207.039 110.224 207.418C110.525 207.793 110.908 207.98 111.372 207.98Z" fill="#6556D9"/>
<path d="M134 204C134 197.373 139.373 192 146 192C152.627 192 158 197.373 158 204C158 210.627 152.627 216 146 216C139.373 216 134 210.627 134 204Z" fill="#E4E6FF"/>
<path d="M145.979 209H140.172V207.957L142.381 205.736C143.033 205.068 143.465 204.596 143.676 204.318C143.891 204.037 144.047 203.773 144.145 203.527C144.242 203.281 144.291 203.018 144.291 202.736C144.291 202.35 144.174 202.045 143.939 201.822C143.709 201.6 143.389 201.488 142.979 201.488C142.65 201.488 142.332 201.549 142.023 201.67C141.719 201.791 141.365 202.01 140.963 202.326L140.219 201.418C140.695 201.016 141.158 200.73 141.607 200.562C142.057 200.395 142.535 200.311 143.043 200.311C143.84 200.311 144.479 200.52 144.959 200.938C145.439 201.352 145.68 201.91 145.68 202.613C145.68 203 145.609 203.367 145.469 203.715C145.332 204.062 145.119 204.422 144.83 204.793C144.545 205.16 144.068 205.658 143.4 206.287L141.912 207.729V207.787H145.979V209ZM148 209L151.387 201.658H146.934V200.445H152.857V201.406L149.488 209H148Z" fill="#6556D9"/>
<path d="M172.667 204C172.667 197.373 178.039 192 184.667 192C191.294 192 196.667 197.373 196.667 204C196.667 210.627 191.294 216 184.667 216C178.039 216 172.667 210.627 172.667 204Z" fill="#E4E6FF"/>
<path d="M184.645 209H178.839V207.957L181.047 205.736C181.7 205.068 182.131 204.596 182.342 204.318C182.557 204.037 182.714 203.773 182.811 203.527C182.909 203.281 182.958 203.018 182.958 202.736C182.958 202.35 182.84 202.045 182.606 201.822C182.376 201.6 182.055 201.488 181.645 201.488C181.317 201.488 180.999 201.549 180.69 201.67C180.385 201.791 180.032 202.01 179.63 202.326L178.885 201.418C179.362 201.016 179.825 200.73 180.274 200.562C180.723 200.395 181.202 200.311 181.71 200.311C182.506 200.311 183.145 200.52 183.626 200.938C184.106 201.352 184.346 201.91 184.346 202.613C184.346 203 184.276 203.367 184.135 203.715C183.999 204.062 183.786 204.422 183.497 204.793C183.212 205.16 182.735 205.658 182.067 206.287L180.579 207.729V207.787H184.645V209ZM188.589 200.322C189.401 200.322 190.044 200.51 190.516 200.885C190.989 201.256 191.225 201.754 191.225 202.379C191.225 203.258 190.698 203.957 189.643 204.477C190.315 204.812 190.792 205.166 191.073 205.537C191.358 205.908 191.501 206.322 191.501 206.779C191.501 207.486 191.241 208.053 190.721 208.479C190.202 208.904 189.499 209.117 188.612 209.117C187.682 209.117 186.962 208.918 186.45 208.52C185.938 208.121 185.682 207.557 185.682 206.826C185.682 206.35 185.815 205.922 186.081 205.543C186.35 205.16 186.79 204.82 187.399 204.523C186.876 204.211 186.503 203.881 186.28 203.533C186.057 203.186 185.946 202.795 185.946 202.361C185.946 201.74 186.19 201.246 186.678 200.879C187.167 200.508 187.803 200.322 188.589 200.322ZM187.001 206.779C187.001 207.186 187.143 207.502 187.428 207.729C187.714 207.951 188.1 208.062 188.589 208.062C189.092 208.062 189.483 207.947 189.76 207.717C190.042 207.482 190.182 207.166 190.182 206.768C190.182 206.451 190.053 206.162 189.796 205.9C189.538 205.639 189.147 205.396 188.624 205.174L188.454 205.098C187.938 205.324 187.567 205.574 187.34 205.848C187.114 206.117 187.001 206.428 187.001 206.779ZM188.577 201.383C188.186 201.383 187.872 201.48 187.633 201.676C187.395 201.867 187.276 202.129 187.276 202.461C187.276 202.664 187.319 202.846 187.405 203.006C187.491 203.166 187.616 203.312 187.78 203.445C187.944 203.574 188.221 203.73 188.612 203.914C189.081 203.707 189.411 203.49 189.602 203.264C189.797 203.033 189.895 202.766 189.895 202.461C189.895 202.129 189.774 201.867 189.532 201.676C189.294 201.48 188.975 201.383 188.577 201.383Z" fill="#6556D9"/>
<path d="M223.312 209H217.505V207.957L219.714 205.736C220.367 205.068 220.798 204.596 221.009 204.318C221.224 204.037 221.38 203.773 221.478 203.527C221.576 203.281 221.624 203.018 221.624 202.736C221.624 202.35 221.507 202.045 221.273 201.822C221.042 201.6 220.722 201.488 220.312 201.488C219.984 201.488 219.665 201.549 219.357 201.67C219.052 201.791 218.699 202.01 218.296 202.326L217.552 201.418C218.029 201.016 218.492 200.73 218.941 200.562C219.39 200.395 219.869 200.311 220.376 200.311C221.173 200.311 221.812 200.52 222.292 200.938C222.773 201.352 223.013 201.91 223.013 202.613C223.013 203 222.943 203.367 222.802 203.715C222.665 204.062 222.453 204.422 222.163 204.793C221.878 205.16 221.402 205.658 220.734 206.287L219.245 207.729V207.787H223.312V209ZM230.156 204.09C230.156 205.777 229.816 207.037 229.136 207.869C228.456 208.701 227.433 209.117 226.066 209.117C225.546 209.117 225.173 209.086 224.947 209.023V207.869C225.294 207.967 225.644 208.016 225.995 208.016C226.925 208.016 227.619 207.766 228.076 207.266C228.533 206.766 228.783 205.98 228.826 204.91H228.755C228.525 205.262 228.245 205.516 227.917 205.672C227.593 205.828 227.212 205.906 226.775 205.906C226.017 205.906 225.421 205.67 224.988 205.197C224.554 204.725 224.337 204.076 224.337 203.252C224.337 202.357 224.587 201.646 225.087 201.119C225.591 200.588 226.277 200.322 227.144 200.322C227.753 200.322 228.285 200.471 228.738 200.768C229.191 201.064 229.54 201.496 229.786 202.062C230.033 202.625 230.156 203.301 230.156 204.09ZM227.167 201.465C226.691 201.465 226.326 201.621 226.072 201.934C225.818 202.242 225.691 202.678 225.691 203.24C225.691 203.729 225.808 204.113 226.042 204.395C226.281 204.672 226.64 204.811 227.12 204.811C227.585 204.811 227.976 204.672 228.292 204.395C228.609 204.117 228.767 203.793 228.767 203.422C228.767 203.074 228.699 202.75 228.562 202.449C228.429 202.145 228.242 201.904 227.999 201.729C227.757 201.553 227.48 201.465 227.167 201.465Z" fill="#2C3339"/>
<path d="M261.656 202.402C261.656 202.945 261.498 203.398 261.182 203.762C260.865 204.121 260.42 204.363 259.846 204.488V204.535C260.533 204.621 261.049 204.836 261.393 205.18C261.736 205.52 261.908 205.973 261.908 206.539C261.908 207.363 261.617 208 261.035 208.449C260.453 208.895 259.625 209.117 258.551 209.117C257.602 209.117 256.801 208.963 256.148 208.654V207.43C256.512 207.609 256.896 207.748 257.303 207.846C257.709 207.943 258.1 207.992 258.475 207.992C259.139 207.992 259.635 207.869 259.963 207.623C260.291 207.377 260.455 206.996 260.455 206.48C260.455 206.023 260.273 205.688 259.91 205.473C259.547 205.258 258.977 205.15 258.199 205.15H257.455V204.031H258.211C259.578 204.031 260.262 203.559 260.262 202.613C260.262 202.246 260.143 201.963 259.904 201.764C259.666 201.564 259.314 201.465 258.85 201.465C258.525 201.465 258.213 201.512 257.912 201.605C257.611 201.695 257.256 201.873 256.846 202.139L256.172 201.178C256.957 200.6 257.869 200.311 258.908 200.311C259.771 200.311 260.445 200.496 260.93 200.867C261.414 201.238 261.656 201.75 261.656 202.402ZM268.834 204.717C268.834 206.205 268.594 207.311 268.113 208.033C267.637 208.756 266.906 209.117 265.922 209.117C264.969 209.117 264.246 208.744 263.754 207.998C263.262 207.252 263.016 206.158 263.016 204.717C263.016 203.205 263.254 202.092 263.73 201.377C264.211 200.658 264.941 200.299 265.922 200.299C266.879 200.299 267.604 200.674 268.096 201.424C268.588 202.174 268.834 203.271 268.834 204.717ZM264.41 204.717C264.41 205.885 264.529 206.719 264.768 207.219C265.01 207.719 265.395 207.969 265.922 207.969C266.449 207.969 266.834 207.715 267.076 207.207C267.322 206.699 267.445 205.869 267.445 204.717C267.445 203.568 267.322 202.738 267.076 202.227C266.834 201.711 266.449 201.453 265.922 201.453C265.395 201.453 265.01 201.705 264.768 202.209C264.529 202.713 264.41 203.549 264.41 204.717Z" fill="#2C3339"/>
<path d="M29.6562 227.902C29.6562 228.445 29.498 228.898 29.1816 229.262C28.8652 229.621 28.4199 229.863 27.8457 229.988V230.035C28.5332 230.121 29.0488 230.336 29.3926 230.68C29.7363 231.02 29.9082 231.473 29.9082 232.039C29.9082 232.863 29.6172 233.5 29.0352 233.949C28.4531 234.395 27.625 234.617 26.5508 234.617C25.6016 234.617 24.8008 234.463 24.1484 234.154V232.93C24.5117 233.109 24.8965 233.248 25.3027 233.346C25.709 233.443 26.0996 233.492 26.4746 233.492C27.1387 233.492 27.6348 233.369 27.9629 233.123C28.291 232.877 28.4551 232.496 28.4551 231.98C28.4551 231.523 28.2734 231.188 27.9102 230.973C27.5469 230.758 26.9766 230.65 26.1992 230.65H25.4551V229.531H26.2109C27.5781 229.531 28.2617 229.059 28.2617 228.113C28.2617 227.746 28.1426 227.463 27.9043 227.264C27.666 227.064 27.3145 226.965 26.8496 226.965C26.5254 226.965 26.2129 227.012 25.9121 227.105C25.6113 227.195 25.2559 227.373 24.8457 227.639L24.1719 226.678C24.957 226.1 25.8691 225.811 26.9082 225.811C27.7715 225.811 28.4453 225.996 28.9297 226.367C29.4141 226.738 29.6562 227.25 29.6562 227.902ZM35.0703 234.5H33.6934V228.969C33.6934 228.309 33.709 227.785 33.7402 227.398C33.6504 227.492 33.5391 227.596 33.4062 227.709C33.2773 227.822 32.8398 228.182 32.0938 228.787L31.4023 227.914L33.9219 225.934H35.0703V234.5Z" fill="#2C3339"/>
<path d="M68.6451 230.217C68.6451 231.705 68.4049 232.811 67.9244 233.533C67.4479 234.256 66.7174 234.617 65.733 234.617C64.7799 234.617 64.0573 234.244 63.5651 233.498C63.0729 232.752 62.8268 231.658 62.8268 230.217C62.8268 228.705 63.0651 227.592 63.5416 226.877C64.0221 226.158 64.7526 225.799 65.733 225.799C66.6901 225.799 67.4147 226.174 67.9069 226.924C68.399 227.674 68.6451 228.771 68.6451 230.217ZM64.2213 230.217C64.2213 231.385 64.3405 232.219 64.5787 232.719C64.8209 233.219 65.2057 233.469 65.733 233.469C66.2604 233.469 66.6451 233.215 66.8873 232.707C67.1334 232.199 67.2565 231.369 67.2565 230.217C67.2565 229.068 67.1334 228.238 66.8873 227.727C66.6451 227.211 66.2604 226.953 65.733 226.953C65.2057 226.953 64.8209 227.205 64.5787 227.709C64.3405 228.213 64.2213 229.049 64.2213 230.217ZM73.7369 234.5H72.36V228.969C72.36 228.309 72.3756 227.785 72.4069 227.398C72.317 227.492 72.2057 227.596 72.0729 227.709C71.944 227.822 71.5065 228.182 70.7604 228.787L70.069 227.914L72.5885 225.934H73.7369V234.5Z" fill="#898989"/>
<path d="M107.312 230.217C107.312 231.705 107.072 232.811 106.591 233.533C106.115 234.256 105.384 234.617 104.4 234.617C103.447 234.617 102.724 234.244 102.232 233.498C101.74 232.752 101.494 231.658 101.494 230.217C101.494 228.705 101.732 227.592 102.208 226.877C102.689 226.158 103.419 225.799 104.4 225.799C105.357 225.799 106.081 226.174 106.574 226.924C107.066 227.674 107.312 228.771 107.312 230.217ZM102.888 230.217C102.888 231.385 103.007 232.219 103.245 232.719C103.488 233.219 103.872 233.469 104.4 233.469C104.927 233.469 105.312 233.215 105.554 232.707C105.8 232.199 105.923 231.369 105.923 230.217C105.923 229.068 105.8 228.238 105.554 227.727C105.312 227.211 104.927 226.953 104.4 226.953C103.872 226.953 103.488 227.205 103.245 227.709C103.007 228.213 102.888 229.049 102.888 230.217ZM114.167 234.5H108.361V233.457L110.57 231.236C111.222 230.568 111.654 230.096 111.865 229.818C112.079 229.537 112.236 229.273 112.333 229.027C112.431 228.781 112.48 228.518 112.48 228.236C112.48 227.85 112.363 227.545 112.128 227.322C111.898 227.1 111.578 226.988 111.167 226.988C110.839 226.988 110.521 227.049 110.212 227.17C109.908 227.291 109.554 227.51 109.152 227.826L108.408 226.918C108.884 226.516 109.347 226.23 109.796 226.062C110.245 225.895 110.724 225.811 111.232 225.811C112.029 225.811 112.667 226.02 113.148 226.438C113.628 226.852 113.869 227.41 113.869 228.113C113.869 228.5 113.798 228.867 113.658 229.215C113.521 229.562 113.308 229.922 113.019 230.293C112.734 230.66 112.257 231.158 111.589 231.787L110.101 233.229V233.287H114.167V234.5Z" fill="#898989"/>
<path d="M145.979 230.217C145.979 231.705 145.738 232.811 145.258 233.533C144.781 234.256 144.051 234.617 143.066 234.617C142.113 234.617 141.391 234.244 140.898 233.498C140.406 232.752 140.16 231.658 140.16 230.217C140.16 228.705 140.398 227.592 140.875 226.877C141.355 226.158 142.086 225.799 143.066 225.799C144.023 225.799 144.748 226.174 145.24 226.924C145.732 227.674 145.979 228.771 145.979 230.217ZM141.555 230.217C141.555 231.385 141.674 232.219 141.912 232.719C142.154 233.219 142.539 233.469 143.066 233.469C143.594 233.469 143.979 233.215 144.221 232.707C144.467 232.199 144.59 231.369 144.59 230.217C144.59 229.068 144.467 228.238 144.221 227.727C143.979 227.211 143.594 226.953 143.066 226.953C142.539 226.953 142.154 227.205 141.912 227.709C141.674 228.213 141.555 229.049 141.555 230.217ZM152.512 227.902C152.512 228.445 152.354 228.898 152.037 229.262C151.721 229.621 151.275 229.863 150.701 229.988V230.035C151.389 230.121 151.904 230.336 152.248 230.68C152.592 231.02 152.764 231.473 152.764 232.039C152.764 232.863 152.473 233.5 151.891 233.949C151.309 234.395 150.48 234.617 149.406 234.617C148.457 234.617 147.656 234.463 147.004 234.154V232.93C147.367 233.109 147.752 233.248 148.158 233.346C148.564 233.443 148.955 233.492 149.33 233.492C149.994 233.492 150.49 233.369 150.818 233.123C151.146 232.877 151.311 232.496 151.311 231.98C151.311 231.523 151.129 231.188 150.766 230.973C150.402 230.758 149.832 230.65 149.055 230.65H148.311V229.531H149.066C150.434 229.531 151.117 229.059 151.117 228.113C151.117 227.746 150.998 227.463 150.76 227.264C150.521 227.064 150.17 226.965 149.705 226.965C149.381 226.965 149.068 227.012 148.768 227.105C148.467 227.195 148.111 227.373 147.701 227.639L147.027 226.678C147.812 226.1 148.725 225.811 149.764 225.811C150.627 225.811 151.301 225.996 151.785 226.367C152.27 226.738 152.512 227.25 152.512 227.902Z" fill="#898989"/>
<path d="M184.645 230.217C184.645 231.705 184.405 232.811 183.924 233.533C183.448 234.256 182.717 234.617 181.733 234.617C180.78 234.617 180.057 234.244 179.565 233.498C179.073 232.752 178.827 231.658 178.827 230.217C178.827 228.705 179.065 227.592 179.542 226.877C180.022 226.158 180.753 225.799 181.733 225.799C182.69 225.799 183.415 226.174 183.907 226.924C184.399 227.674 184.645 228.771 184.645 230.217ZM180.221 230.217C180.221 231.385 180.34 232.219 180.579 232.719C180.821 233.219 181.206 233.469 181.733 233.469C182.26 233.469 182.645 233.215 182.887 232.707C183.133 232.199 183.256 231.369 183.256 230.217C183.256 229.068 183.133 228.238 182.887 227.727C182.645 227.211 182.26 226.953 181.733 226.953C181.206 226.953 180.821 227.205 180.579 227.709C180.34 228.213 180.221 229.049 180.221 230.217ZM191.805 232.631H190.651V234.5H189.309V232.631H185.395V231.57L189.309 225.91H190.651V231.488H191.805V232.631ZM189.309 231.488V229.338C189.309 228.572 189.329 227.945 189.368 227.457H189.321C189.212 227.715 189.04 228.027 188.805 228.395L186.678 231.488H189.309Z" fill="#898989"/>
<path d="M223.312 230.217C223.312 231.705 223.072 232.811 222.591 233.533C222.115 234.256 221.384 234.617 220.4 234.617C219.447 234.617 218.724 234.244 218.232 233.498C217.74 232.752 217.494 231.658 217.494 230.217C217.494 228.705 217.732 227.592 218.208 226.877C218.689 226.158 219.419 225.799 220.4 225.799C221.357 225.799 222.081 226.174 222.574 226.924C223.066 227.674 223.312 228.771 223.312 230.217ZM218.888 230.217C218.888 231.385 219.007 232.219 219.245 232.719C219.488 233.219 219.872 233.469 220.4 233.469C220.927 233.469 221.312 233.215 221.554 232.707C221.8 232.199 221.923 231.369 221.923 230.217C221.923 229.068 221.8 228.238 221.554 227.727C221.312 227.211 220.927 226.953 220.4 226.953C219.872 226.953 219.488 227.205 219.245 227.709C219.007 228.213 218.888 229.049 218.888 230.217ZM227.267 229.15C228.13 229.15 228.814 229.379 229.318 229.836C229.822 230.293 230.074 230.916 230.074 231.705C230.074 232.619 229.786 233.334 229.212 233.85C228.642 234.361 227.829 234.617 226.775 234.617C225.818 234.617 225.066 234.463 224.519 234.154V232.906C224.835 233.086 225.199 233.225 225.609 233.322C226.019 233.42 226.4 233.469 226.751 233.469C227.372 233.469 227.845 233.33 228.169 233.053C228.494 232.775 228.656 232.369 228.656 231.834C228.656 230.811 228.003 230.299 226.699 230.299C226.515 230.299 226.288 230.318 226.019 230.357C225.749 230.393 225.513 230.434 225.31 230.48L224.695 230.117L225.023 225.934H229.476V227.158H226.236L226.042 229.279C226.179 229.256 226.345 229.229 226.54 229.197C226.74 229.166 226.982 229.15 227.267 229.15Z" fill="#898989"/>
<path d="M261.979 230.217C261.979 231.705 261.738 232.811 261.258 233.533C260.781 234.256 260.051 234.617 259.066 234.617C258.113 234.617 257.391 234.244 256.898 233.498C256.406 232.752 256.16 231.658 256.16 230.217C256.16 228.705 256.398 227.592 256.875 226.877C257.355 226.158 258.086 225.799 259.066 225.799C260.023 225.799 260.748 226.174 261.24 226.924C261.732 227.674 261.979 228.771 261.979 230.217ZM257.555 230.217C257.555 231.385 257.674 232.219 257.912 232.719C258.154 233.219 258.539 233.469 259.066 233.469C259.594 233.469 259.979 233.215 260.221 232.707C260.467 232.199 260.59 231.369 260.59 230.217C260.59 229.068 260.467 228.238 260.221 227.727C259.979 227.211 259.594 226.953 259.066 226.953C258.539 226.953 258.154 227.205 257.912 227.709C257.674 228.213 257.555 229.049 257.555 230.217ZM263.051 230.85C263.051 227.498 264.416 225.822 267.146 225.822C267.576 225.822 267.939 225.855 268.236 225.922V227.07C267.939 226.984 267.596 226.941 267.205 226.941C266.287 226.941 265.598 227.188 265.137 227.68C264.676 228.172 264.426 228.961 264.387 230.047H264.457C264.641 229.73 264.898 229.486 265.23 229.314C265.562 229.139 265.953 229.051 266.402 229.051C267.18 229.051 267.785 229.289 268.219 229.766C268.652 230.242 268.869 230.889 268.869 231.705C268.869 232.604 268.617 233.314 268.113 233.838C267.613 234.357 266.93 234.617 266.062 234.617C265.449 234.617 264.916 234.471 264.463 234.178C264.01 233.881 263.66 233.451 263.414 232.889C263.172 232.322 263.051 231.643 263.051 230.85ZM266.039 233.48C266.512 233.48 266.875 233.328 267.129 233.023C267.387 232.719 267.516 232.283 267.516 231.717C267.516 231.225 267.395 230.838 267.152 230.557C266.914 230.275 266.555 230.135 266.074 230.135C265.777 230.135 265.504 230.199 265.254 230.328C265.004 230.453 264.807 230.627 264.662 230.85C264.518 231.068 264.445 231.293 264.445 231.523C264.445 232.074 264.594 232.539 264.891 232.918C265.191 233.293 265.574 233.48 266.039 233.48Z" fill="#898989"/>
<path d="M14 5H278V3H14V5ZM285 12V246H287V12H285ZM278 253H14V255H278V253ZM7 246V12H5V246H7ZM14 253C10.134 253 7 249.866 7 246H5C5 250.971 9.02944 255 14 255V253ZM285 246C285 249.866 281.866 253 278 253V255C282.971 255 287 250.971 287 246H285ZM278 5C281.866 5 285 8.13401 285 12H287C287 7.02944 282.971 3 278 3V5ZM14 3C9.02944 3 5 7.02944 5 12H7C7 8.13401 10.134 5 14 5V3Z" fill="#F7F5F5"/>
</g>
<defs>
<filter id="filter0_d_55_1981" x="0" y="0" width="294" height="264" filterUnits="userSpaceOnUse" color-interpolation-filters="sRGB">
<feFlood flood-opacity="0" result="BackgroundImageFix"/>
<feColorMatrix in="SourceAlpha" type="matrix" values="0 0 0 0 0 0 0 0 0 0 0 0 0 0 0 0 0 0 127 0" result="hardAlpha"/>
<feOffset dx="1" dy="3"/>
<feGaussianBlur stdDeviation="3.5"/>
<feComposite in2="hardAlpha" operator="out"/>
<feColorMatrix type="matrix" values="0 0 0 0 0 0 0 0 0 0 0 0 0 0 0 0 0 0 0.1 0"/>
<feBlend mode="normal" in2="BackgroundImageFix" result="effect1_dropShadow_55_1981"/>
<feBlend mode="normal" in="SourceGraphic" in2="effect1_dropShadow_55_1981" result="shape"/>
</filter>
<filter id="filter1_d_55_1981" x="0" y="0" width="294" height="71" filterUnits="userSpaceOnUse" color-interpolation-filters="sRGB">
<feFlood flood-opacity="0" result="BackgroundImageFix"/>
<feColorMatrix in="SourceAlpha" type="matrix" values="0 0 0 0 0 0 0 0 0 0 0 0 0 0 0 0 0 0 127 0" result="hardAlpha"/>
<feOffset dx="1" dy="3"/>
<feGaussianBlur stdDeviation="3.5"/>
<feComposite in2="hardAlpha" operator="out"/>
<feColorMatrix type="matrix" values="0 0 0 0 0 0 0 0 0 0 0 0 0 0 0 0 0 0 0.1 0"/>
<feBlend mode="normal" in2="BackgroundImageFix" result="effect1_dropShadow_55_1981"/>
<feBlend mode="normal" in="SourceGraphic" in2="effect1_dropShadow_55_1981" result="shape"/>
</filter>
</defs>
</svg>
