<svg width="787" height="397" viewBox="0 0 787 397" fill="none" xmlns="http://www.w3.org/2000/svg">
<g filter="url(#filter0_d_57_1043)">
<g clip-path="url(#clip0_57_1043)">
<rect x="6" y="4" width="773" height="383" rx="8" fill="white"/>
<path d="M65.8359 369H63.9609V363.852H58.6953V369H56.8281V357.578H58.6953V362.25H63.9609V357.578H65.8359V369ZM76.3125 364.664C76.3125 366.076 75.9505 367.177 75.2266 367.969C74.5026 368.76 73.4948 369.156 72.2031 369.156C71.3958 369.156 70.6823 368.974 70.0625 368.609C69.4427 368.245 68.9661 367.721 68.6328 367.039C68.2995 366.357 68.1328 365.565 68.1328 364.664C68.1328 363.263 68.4922 362.169 69.2109 361.383C69.9297 360.596 70.9427 360.203 72.25 360.203C73.5 360.203 74.4896 360.607 75.2188 361.414C75.9479 362.216 76.3125 363.299 76.3125 364.664ZM70.0234 364.664C70.0234 366.659 70.7604 367.656 72.2344 367.656C73.6927 367.656 74.4219 366.659 74.4219 364.664C74.4219 362.69 73.6875 361.703 72.2188 361.703C71.4479 361.703 70.888 361.958 70.5391 362.469C70.1953 362.979 70.0234 363.711 70.0234 364.664ZM79.3125 369H77.2578L79.6641 365.461C79.0807 365.294 78.6224 364.997 78.2891 364.57C77.9557 364.138 77.7891 363.604 77.7891 362.969C77.7891 362.151 78.0807 361.513 78.6641 361.055C79.2474 360.591 80.0443 360.359 81.0547 360.359H84.9922V369H83.1484V365.672H81.4062L79.3125 369ZM79.5781 362.984C79.5781 363.427 79.7448 363.76 80.0781 363.984C80.4167 364.203 80.8698 364.312 81.4375 364.312H83.1484V361.75H81.1484C80.6484 361.75 80.2604 361.857 79.9844 362.07C79.7135 362.284 79.5781 362.589 79.5781 362.984ZM87.1172 363.812C87.1172 361.885 87.4427 360.404 88.0938 359.367C88.75 358.331 89.7917 357.664 91.2188 357.367C92.2969 357.148 93.5391 356.935 94.9453 356.727L95.2031 358.344C93.4948 358.604 92.2448 358.807 91.4531 358.953C90.6354 359.104 90.0443 359.44 89.6797 359.961C89.3203 360.482 89.112 361.266 89.0547 362.312H89.1719C89.4688 361.88 89.8568 361.547 90.3359 361.312C90.8151 361.073 91.3281 360.953 91.875 360.953C92.9375 360.953 93.7656 361.289 94.3594 361.961C94.9531 362.633 95.25 363.576 95.25 364.789C95.25 366.18 94.888 367.255 94.1641 368.016C93.4453 368.776 92.4479 369.156 91.1719 369.156C89.9062 369.156 88.9141 368.688 88.1953 367.75C87.4766 366.812 87.1172 365.5 87.1172 363.812ZM91.2969 367.656C92.6615 367.656 93.3438 366.76 93.3438 364.969C93.3438 363.24 92.7266 362.375 91.4922 362.375C91.1536 362.375 90.8255 362.448 90.5078 362.594C90.1901 362.74 89.8958 362.932 89.625 363.172C89.3594 363.411 89.1536 363.659 89.0078 363.914C89.0078 365.143 89.2031 366.076 89.5938 366.711C89.9844 367.341 90.5521 367.656 91.2969 367.656ZM101.75 369.156C100.656 369.156 99.8073 368.763 99.2031 367.977H99.0938C99.1667 368.706 99.2031 369.148 99.2031 369.305V372.844H97.3672V360.359H98.8516C98.8932 360.521 98.9792 360.906 99.1094 361.516H99.2031C99.776 360.641 100.635 360.203 101.781 360.203C102.859 360.203 103.698 360.594 104.297 361.375C104.901 362.156 105.203 363.253 105.203 364.664C105.203 366.076 104.896 367.177 104.281 367.969C103.672 368.76 102.828 369.156 101.75 369.156ZM101.305 361.703C100.576 361.703 100.042 361.917 99.7031 362.344C99.3698 362.771 99.2031 363.453 99.2031 364.391V364.664C99.2031 365.716 99.3698 366.479 99.7031 366.953C100.036 367.422 100.581 367.656 101.336 367.656C101.971 367.656 102.461 367.396 102.805 366.875C103.148 366.354 103.32 365.612 103.32 364.648C103.32 363.68 103.148 362.948 102.805 362.453C102.466 361.953 101.966 361.703 101.305 361.703ZM109.172 363.812H111.336C113.747 363.812 114.953 364.646 114.953 366.312C114.953 367.193 114.646 367.862 114.031 368.32C113.417 368.773 112.518 369 111.336 369H107.336V360.359H109.172V363.812ZM113.109 366.359C113.109 365.927 112.945 365.625 112.617 365.453C112.289 365.281 111.826 365.195 111.227 365.195H109.172V367.641H111.258C111.862 367.641 112.32 367.531 112.633 367.312C112.951 367.094 113.109 366.776 113.109 366.359Z" fill="#898989"/>
<path d="M370.312 367.398H371.195C371.951 366.018 372.583 364.469 373.094 362.75C373.604 361.031 373.932 359.307 374.078 357.578H379.977V367.398H381.453V372.148H379.656V369H372.109V372.148H370.312V367.398ZM375.641 359.195C375.526 360.378 375.234 361.75 374.766 363.312C374.297 364.87 373.763 366.232 373.164 367.398H378.109V359.195H375.641ZM386.883 369.156C385.539 369.156 384.487 368.766 383.727 367.984C382.971 367.198 382.594 366.117 382.594 364.742C382.594 363.331 382.945 362.221 383.648 361.414C384.352 360.607 385.318 360.203 386.547 360.203C387.688 360.203 388.589 360.549 389.25 361.242C389.911 361.935 390.242 362.888 390.242 364.102V365.094H384.484C384.51 365.932 384.737 366.578 385.164 367.031C385.591 367.479 386.193 367.703 386.969 367.703C387.479 367.703 387.953 367.656 388.391 367.562C388.833 367.464 389.307 367.302 389.812 367.078V368.57C389.365 368.784 388.911 368.935 388.453 369.023C387.995 369.112 387.471 369.156 386.883 369.156ZM386.547 361.594C385.964 361.594 385.495 361.779 385.141 362.148C384.792 362.518 384.583 363.057 384.516 363.766H388.438C388.427 363.052 388.255 362.513 387.922 362.148C387.589 361.779 387.13 361.594 386.547 361.594ZM397.688 360.359H399.703L396.133 364.523L400.008 369H397.898L394.164 364.617V369H392.328V360.359H394.164V364.555L397.688 360.359ZM406.844 369L406.477 367.797H406.414C405.997 368.323 405.578 368.682 405.156 368.875C404.734 369.062 404.193 369.156 403.531 369.156C402.682 369.156 402.018 368.927 401.539 368.469C401.065 368.01 400.828 367.362 400.828 366.523C400.828 365.633 401.159 364.961 401.82 364.508C402.482 364.055 403.49 363.807 404.844 363.766L406.336 363.719V363.258C406.336 362.706 406.206 362.294 405.945 362.023C405.69 361.747 405.292 361.609 404.75 361.609C404.307 361.609 403.883 361.674 403.477 361.805C403.07 361.935 402.68 362.089 402.305 362.266L401.711 360.953C402.18 360.708 402.693 360.523 403.25 360.398C403.807 360.268 404.333 360.203 404.828 360.203C405.927 360.203 406.755 360.443 407.312 360.922C407.875 361.401 408.156 362.154 408.156 363.18V369H406.844ZM404.109 367.75C404.776 367.75 405.31 367.565 405.711 367.195C406.117 366.82 406.32 366.297 406.32 365.625V364.875L405.211 364.922C404.346 364.953 403.716 365.099 403.32 365.359C402.93 365.615 402.734 366.008 402.734 366.539C402.734 366.924 402.849 367.224 403.078 367.438C403.307 367.646 403.651 367.75 404.109 367.75ZM410.219 363.812C410.219 361.885 410.544 360.404 411.195 359.367C411.852 358.331 412.893 357.664 414.32 357.367C415.398 357.148 416.641 356.935 418.047 356.727L418.305 358.344C416.596 358.604 415.346 358.807 414.555 358.953C413.737 359.104 413.146 359.44 412.781 359.961C412.422 360.482 412.214 361.266 412.156 362.312H412.273C412.57 361.88 412.958 361.547 413.438 361.312C413.917 361.073 414.43 360.953 414.977 360.953C416.039 360.953 416.867 361.289 417.461 361.961C418.055 362.633 418.352 363.576 418.352 364.789C418.352 366.18 417.99 367.255 417.266 368.016C416.547 368.776 415.549 369.156 414.273 369.156C413.008 369.156 412.016 368.688 411.297 367.75C410.578 366.812 410.219 365.5 410.219 363.812ZM414.398 367.656C415.763 367.656 416.445 366.76 416.445 364.969C416.445 363.24 415.828 362.375 414.594 362.375C414.255 362.375 413.927 362.448 413.609 362.594C413.292 362.74 412.997 362.932 412.727 363.172C412.461 363.411 412.255 363.659 412.109 363.914C412.109 365.143 412.305 366.076 412.695 366.711C413.086 367.341 413.654 367.656 414.398 367.656ZM424.852 369.156C423.758 369.156 422.909 368.763 422.305 367.977H422.195C422.268 368.706 422.305 369.148 422.305 369.305V372.844H420.469V360.359H421.953C421.995 360.521 422.081 360.906 422.211 361.516H422.305C422.878 360.641 423.737 360.203 424.883 360.203C425.961 360.203 426.799 360.594 427.398 361.375C428.003 362.156 428.305 363.253 428.305 364.664C428.305 366.076 427.997 367.177 427.383 367.969C426.773 368.76 425.93 369.156 424.852 369.156ZM424.406 361.703C423.677 361.703 423.143 361.917 422.805 362.344C422.471 362.771 422.305 363.453 422.305 364.391V364.664C422.305 365.716 422.471 366.479 422.805 366.953C423.138 367.422 423.682 367.656 424.438 367.656C425.073 367.656 425.562 367.396 425.906 366.875C426.25 366.354 426.422 365.612 426.422 364.648C426.422 363.68 426.25 362.948 425.906 362.453C425.568 361.953 425.068 361.703 424.406 361.703ZM432.273 363.812H434.438C436.849 363.812 438.055 364.646 438.055 366.312C438.055 367.193 437.747 367.862 437.133 368.32C436.518 368.773 435.62 369 434.438 369H430.438V360.359H432.273V363.812ZM436.211 366.359C436.211 365.927 436.047 365.625 435.719 365.453C435.391 365.281 434.927 365.195 434.328 365.195H432.273V367.641H434.359C434.964 367.641 435.422 367.531 435.734 367.312C436.052 367.094 436.211 366.776 436.211 366.359Z" fill="#898989"/>
<path d="M698.438 364.422L695.609 369H693.477L696.695 363.992C695.237 363.487 694.508 362.424 694.508 360.805C694.508 359.758 694.87 358.958 695.594 358.406C696.318 357.854 697.383 357.578 698.789 357.578H702.219V369H700.344V364.422H698.438ZM700.344 359.141H698.859C698.073 359.141 697.469 359.281 697.047 359.562C696.63 359.839 696.422 360.292 696.422 360.922C696.422 361.536 696.625 362.016 697.031 362.359C697.438 362.703 698.068 362.875 698.922 362.875H700.344V359.141ZM706.875 360.359V363.828H710.945V360.359H712.781V369H710.945V365.273H706.875V369H705.039V360.359H706.875ZM722.914 362.57C722.914 363.591 722.318 364.208 721.125 364.422V364.484C721.792 364.562 722.302 364.773 722.656 365.117C723.01 365.461 723.188 365.906 723.188 366.453C723.188 367.271 722.875 367.901 722.25 368.344C721.63 368.781 720.727 369 719.539 369H715.414V360.359H719.523C721.784 360.359 722.914 361.096 722.914 362.57ZM721.305 366.344C721.305 365.927 721.143 365.633 720.82 365.461C720.497 365.284 720.013 365.195 719.367 365.195H717.25V367.641H719.414C720.674 367.641 721.305 367.208 721.305 366.344ZM721.078 362.727C721.078 362.383 720.943 362.135 720.672 361.984C720.406 361.828 720.008 361.75 719.477 361.75H717.25V363.828H719.203C719.818 363.828 720.284 363.75 720.602 363.594C720.919 363.432 721.078 363.143 721.078 362.727ZM730.492 369L730.125 367.797H730.062C729.646 368.323 729.227 368.682 728.805 368.875C728.383 369.062 727.841 369.156 727.18 369.156C726.331 369.156 725.667 368.927 725.188 368.469C724.714 368.01 724.477 367.362 724.477 366.523C724.477 365.633 724.807 364.961 725.469 364.508C726.13 364.055 727.138 363.807 728.492 363.766L729.984 363.719V363.258C729.984 362.706 729.854 362.294 729.594 362.023C729.339 361.747 728.94 361.609 728.398 361.609C727.956 361.609 727.531 361.674 727.125 361.805C726.719 361.935 726.328 362.089 725.953 362.266L725.359 360.953C725.828 360.708 726.341 360.523 726.898 360.398C727.456 360.268 727.982 360.203 728.477 360.203C729.576 360.203 730.404 360.443 730.961 360.922C731.523 361.401 731.805 362.154 731.805 363.18V369H730.492ZM727.758 367.75C728.424 367.75 728.958 367.565 729.359 367.195C729.766 366.82 729.969 366.297 729.969 365.625V364.875L728.859 364.922C727.995 364.953 727.365 365.099 726.969 365.359C726.578 365.615 726.383 366.008 726.383 366.539C726.383 366.924 726.497 367.224 726.727 367.438C726.956 367.646 727.299 367.75 727.758 367.75ZM738.75 369.156C737.656 369.156 736.807 368.763 736.203 367.977H736.094C736.167 368.706 736.203 369.148 736.203 369.305V372.844H734.367V360.359H735.852C735.893 360.521 735.979 360.906 736.109 361.516H736.203C736.776 360.641 737.635 360.203 738.781 360.203C739.859 360.203 740.698 360.594 741.297 361.375C741.901 362.156 742.203 363.253 742.203 364.664C742.203 366.076 741.896 367.177 741.281 367.969C740.672 368.76 739.828 369.156 738.75 369.156ZM738.305 361.703C737.576 361.703 737.042 361.917 736.703 362.344C736.37 362.771 736.203 363.453 736.203 364.391V364.664C736.203 365.716 736.37 366.479 736.703 366.953C737.036 367.422 737.581 367.656 738.336 367.656C738.971 367.656 739.461 367.396 739.805 366.875C740.148 366.354 740.32 365.612 740.32 364.648C740.32 363.68 740.148 362.948 739.805 362.453C739.466 361.953 738.966 361.703 738.305 361.703ZM746.172 363.812H748.336C750.747 363.812 751.953 364.646 751.953 366.312C751.953 367.193 751.646 367.862 751.031 368.32C750.417 368.773 749.518 369 748.336 369H744.336V360.359H746.172V363.812ZM750.109 366.359C750.109 365.927 749.945 365.625 749.617 365.453C749.289 365.281 748.826 365.195 748.227 365.195H746.172V367.641H748.258C748.862 367.641 749.32 367.531 749.633 367.312C749.951 367.094 750.109 366.776 750.109 366.359Z" fill="#898989"/>
<path d="M30.7344 158.543C30.7344 154.075 32.5547 151.84 36.1953 151.84C36.7682 151.84 37.2526 151.884 37.6484 151.973V153.504C37.2526 153.39 36.7943 153.332 36.2734 153.332C35.0495 153.332 34.1302 153.661 33.5156 154.317C32.901 154.973 32.5677 156.025 32.5156 157.473H32.6094C32.8542 157.051 33.1979 156.726 33.6406 156.496C34.0833 156.262 34.6042 156.145 35.2031 156.145C36.2396 156.145 37.0469 156.463 37.625 157.098C38.2031 157.733 38.4922 158.595 38.4922 159.684C38.4922 160.882 38.1562 161.83 37.4844 162.528C36.8177 163.22 35.9062 163.567 34.75 163.567C33.9323 163.567 33.2214 163.371 32.6172 162.981C32.013 162.585 31.5469 162.012 31.2188 161.262C30.8958 160.507 30.7344 159.601 30.7344 158.543ZM34.7188 162.051C35.349 162.051 35.8333 161.848 36.1719 161.442C36.5156 161.036 36.6875 160.455 36.6875 159.7C36.6875 159.043 36.526 158.528 36.2031 158.153C35.8854 157.778 35.4062 157.59 34.7656 157.59C34.3698 157.59 34.0052 157.676 33.6719 157.848C33.3385 158.015 33.0755 158.246 32.8828 158.543C32.6901 158.835 32.5938 159.134 32.5938 159.442C32.5938 160.176 32.7917 160.796 33.1875 161.301C33.5885 161.801 34.099 162.051 34.7188 162.051ZM47.5859 163.411H39.8438V162.02L42.7891 159.059C43.6589 158.168 44.2344 157.538 44.5156 157.168C44.8021 156.793 45.0104 156.442 45.1406 156.114C45.2708 155.786 45.3359 155.434 45.3359 155.059C45.3359 154.543 45.1797 154.137 44.8672 153.84C44.5599 153.543 44.1328 153.395 43.5859 153.395C43.1484 153.395 42.724 153.476 42.3125 153.637C41.9062 153.799 41.4349 154.09 40.8984 154.512L39.9062 153.301C40.5417 152.765 41.1589 152.384 41.7578 152.161C42.3568 151.937 42.9948 151.825 43.6719 151.825C44.7344 151.825 45.5859 152.103 46.2266 152.661C46.8672 153.213 47.1875 153.957 47.1875 154.895C47.1875 155.411 47.0938 155.9 46.9062 156.364C46.724 156.827 46.4401 157.306 46.0547 157.801C45.6745 158.291 45.0391 158.955 44.1484 159.793L42.1641 161.715V161.793H47.5859V163.411Z" fill="#898989"/>
<path d="M55 159.221L753 159.221" stroke="#E2E2E2" stroke-linecap="round"/>
<path d="M30.7344 201.903C30.7344 197.434 32.5547 195.2 36.1953 195.2C36.7682 195.2 37.2526 195.244 37.6484 195.333V196.864C37.2526 196.749 36.7943 196.692 36.2734 196.692C35.0495 196.692 34.1302 197.02 33.5156 197.677C32.901 198.333 32.5677 199.385 32.5156 200.833H32.6094C32.8542 200.411 33.1979 200.085 33.6406 199.856C34.0833 199.622 34.6042 199.505 35.2031 199.505C36.2396 199.505 37.0469 199.822 37.625 200.458C38.2031 201.093 38.4922 201.955 38.4922 203.044C38.4922 204.242 38.1562 205.19 37.4844 205.887C36.8177 206.58 35.9062 206.927 34.75 206.927C33.9323 206.927 33.2214 206.731 32.6172 206.341C32.013 205.945 31.5469 205.372 31.2188 204.622C30.8958 203.867 30.7344 202.96 30.7344 201.903ZM34.7188 205.411C35.349 205.411 35.8333 205.208 36.1719 204.802C36.5156 204.395 36.6875 203.815 36.6875 203.059C36.6875 202.403 36.526 201.887 36.2031 201.512C35.8854 201.137 35.4062 200.95 34.7656 200.95C34.3698 200.95 34.0052 201.036 33.6719 201.208C33.3385 201.374 33.0755 201.606 32.8828 201.903C32.6901 202.195 32.5938 202.494 32.5938 202.802C32.5938 203.536 32.7917 204.156 33.1875 204.661C33.5885 205.161 34.099 205.411 34.7188 205.411ZM45.2344 206.77H43.3984V199.395C43.3984 198.515 43.4193 197.817 43.4609 197.302C43.3411 197.427 43.1927 197.565 43.0156 197.716C42.8438 197.867 42.2604 198.346 41.2656 199.153L40.3438 197.989L43.7031 195.348H45.2344V206.77Z" fill="#898989"/>
<path d="M55 202.581L753 202.581" stroke="#E2E2E2" stroke-linecap="round"/>
<path d="M30.7344 244.122C30.7344 239.653 32.5547 237.419 36.1953 237.419C36.7682 237.419 37.2526 237.463 37.6484 237.552V239.083C37.2526 238.968 36.7943 238.911 36.2734 238.911C35.0495 238.911 34.1302 239.239 33.5156 239.895C32.901 240.552 32.5677 241.604 32.5156 243.052H32.6094C32.8542 242.63 33.1979 242.304 33.6406 242.075C34.0833 241.841 34.6042 241.723 35.2031 241.723C36.2396 241.723 37.0469 242.041 37.625 242.677C38.2031 243.312 38.4922 244.174 38.4922 245.262C38.4922 246.46 38.1562 247.408 37.4844 248.106C36.8177 248.799 35.9062 249.145 34.75 249.145C33.9323 249.145 33.2214 248.95 32.6172 248.559C32.013 248.163 31.5469 247.591 31.2188 246.841C30.8958 246.085 30.7344 245.179 30.7344 244.122ZM34.7188 247.63C35.349 247.63 35.8333 247.427 36.1719 247.02C36.5156 246.614 36.6875 246.033 36.6875 245.278C36.6875 244.622 36.526 244.106 36.2031 243.731C35.8854 243.356 35.4062 243.169 34.7656 243.169C34.3698 243.169 34.0052 243.255 33.6719 243.427C33.3385 243.593 33.0755 243.825 32.8828 244.122C32.6901 244.413 32.5938 244.713 32.5938 245.02C32.5938 245.755 32.7917 246.374 33.1875 246.88C33.5885 247.38 34.099 247.63 34.7188 247.63ZM47.5859 243.278C47.5859 245.262 47.2656 246.736 46.625 247.7C45.9896 248.663 45.0156 249.145 43.7031 249.145C42.4323 249.145 41.4688 248.648 40.8125 247.653C40.1562 246.658 39.8281 245.2 39.8281 243.278C39.8281 241.262 40.1458 239.778 40.7812 238.825C41.4219 237.867 42.3958 237.387 43.7031 237.387C44.9792 237.387 45.9453 237.887 46.6016 238.887C47.2578 239.887 47.5859 241.351 47.5859 243.278ZM41.6875 243.278C41.6875 244.835 41.8464 245.947 42.1641 246.614C42.487 247.281 43 247.614 43.7031 247.614C44.4062 247.614 44.9193 247.275 45.2422 246.598C45.5703 245.921 45.7344 244.815 45.7344 243.278C45.7344 241.747 45.5703 240.64 45.2422 239.958C44.9193 239.27 44.4062 238.927 43.7031 238.927C43 238.927 42.487 239.262 42.1641 239.934C41.8464 240.606 41.6875 241.721 41.6875 243.278Z" fill="#898989"/>
<path d="M55 244.8L753 244.8" stroke="#E2E2E2" stroke-linecap="round"/>
<path d="M34.5781 284.075C35.7292 284.075 36.6406 284.38 37.3125 284.989C37.9844 285.598 38.3203 286.429 38.3203 287.481C38.3203 288.7 37.9375 289.653 37.1719 290.341C36.4115 291.023 35.3281 291.364 33.9219 291.364C32.6458 291.364 31.6432 291.158 30.9141 290.747V289.083C31.3359 289.322 31.8203 289.507 32.3672 289.637C32.9141 289.768 33.4219 289.833 33.8906 289.833C34.7188 289.833 35.349 289.648 35.7812 289.278C36.2135 288.908 36.4297 288.367 36.4297 287.653C36.4297 286.288 35.5599 285.606 33.8203 285.606C33.5755 285.606 33.2734 285.632 32.9141 285.684C32.5547 285.731 32.2396 285.786 31.9688 285.848L31.1484 285.364L31.5859 279.786H37.5234V281.419H33.2031L32.9453 284.247C33.1276 284.216 33.349 284.179 33.6094 284.137C33.875 284.096 34.1979 284.075 34.5781 284.075ZM47.5703 284.661C47.5703 286.911 47.1172 288.591 46.2109 289.7C45.3047 290.809 43.9401 291.364 42.1172 291.364C41.4245 291.364 40.9271 291.322 40.625 291.239V289.7C41.0885 289.83 41.5547 289.895 42.0234 289.895C43.263 289.895 44.1875 289.562 44.7969 288.895C45.4062 288.229 45.7396 287.182 45.7969 285.755H45.7031C45.3958 286.223 45.0234 286.562 44.5859 286.77C44.1536 286.979 43.6458 287.083 43.0625 287.083C42.0521 287.083 41.2578 286.768 40.6797 286.137C40.1016 285.507 39.8125 284.643 39.8125 283.544C39.8125 282.351 40.1458 281.403 40.8125 280.7C41.4844 279.992 42.3984 279.637 43.5547 279.637C44.3672 279.637 45.0755 279.835 45.6797 280.231C46.2839 280.627 46.75 281.203 47.0781 281.958C47.4062 282.708 47.5703 283.609 47.5703 284.661ZM43.5859 281.161C42.9505 281.161 42.4635 281.369 42.125 281.786C41.7865 282.197 41.6172 282.778 41.6172 283.528C41.6172 284.179 41.7734 284.692 42.0859 285.067C42.4036 285.437 42.8828 285.622 43.5234 285.622C44.1432 285.622 44.6641 285.437 45.0859 285.067C45.5078 284.697 45.7188 284.265 45.7188 283.77C45.7188 283.307 45.6276 282.874 45.4453 282.473C45.2682 282.067 45.0182 281.747 44.6953 281.512C44.3724 281.278 44.0026 281.161 43.5859 281.161Z" fill="#898989"/>
<path d="M55 287.019L753 287.018" stroke="#E2E2E2" stroke-linecap="round"/>
<path d="M34.5781 326.294C35.7292 326.294 36.6406 326.598 37.3125 327.208C37.9844 327.817 38.3203 328.648 38.3203 329.7C38.3203 330.919 37.9375 331.872 37.1719 332.559C36.4115 333.242 35.3281 333.583 33.9219 333.583C32.6458 333.583 31.6432 333.377 30.9141 332.966V331.301C31.3359 331.541 31.8203 331.726 32.3672 331.856C32.9141 331.986 33.4219 332.051 33.8906 332.051C34.7188 332.051 35.349 331.867 35.7812 331.497C36.2135 331.127 36.4297 330.585 36.4297 329.872C36.4297 328.507 35.5599 327.825 33.8203 327.825C33.5755 327.825 33.2734 327.851 32.9141 327.903C32.5547 327.95 32.2396 328.005 31.9688 328.067L31.1484 327.583L31.5859 322.005H37.5234V323.637H33.2031L32.9453 326.466C33.1276 326.434 33.349 326.398 33.6094 326.356C33.875 326.314 34.1979 326.294 34.5781 326.294ZM43.7031 321.856C44.7865 321.856 45.6432 322.106 46.2734 322.606C46.9036 323.101 47.2188 323.765 47.2188 324.598C47.2188 325.77 46.5156 326.702 45.1094 327.395C46.0052 327.843 46.6406 328.314 47.0156 328.809C47.3958 329.304 47.5859 329.856 47.5859 330.466C47.5859 331.408 47.2396 332.163 46.5469 332.731C45.8542 333.299 44.9167 333.583 43.7344 333.583C42.4948 333.583 41.5339 333.317 40.8516 332.786C40.1693 332.255 39.8281 331.502 39.8281 330.528C39.8281 329.893 40.0052 329.322 40.3594 328.817C40.7188 328.307 41.3047 327.854 42.1172 327.458C41.4193 327.041 40.9219 326.601 40.625 326.137C40.3281 325.674 40.1797 325.153 40.1797 324.575C40.1797 323.747 40.5052 323.088 41.1562 322.598C41.8073 322.104 42.6562 321.856 43.7031 321.856ZM41.5859 330.466C41.5859 331.007 41.776 331.429 42.1562 331.731C42.5365 332.028 43.0521 332.176 43.7031 332.176C44.375 332.176 44.8958 332.023 45.2656 331.716C45.6406 331.403 45.8281 330.981 45.8281 330.45C45.8281 330.028 45.6562 329.643 45.3125 329.294C44.9688 328.945 44.4479 328.622 43.75 328.325L43.5234 328.223C42.8359 328.525 42.3411 328.859 42.0391 329.223C41.737 329.583 41.5859 329.997 41.5859 330.466ZM43.6875 323.27C43.1667 323.27 42.7474 323.4 42.4297 323.661C42.112 323.916 41.9531 324.265 41.9531 324.708C41.9531 324.979 42.0104 325.221 42.125 325.434C42.2396 325.648 42.4062 325.843 42.625 326.02C42.8438 326.192 43.2135 326.4 43.7344 326.645C44.3594 326.369 44.7995 326.08 45.0547 325.778C45.3151 325.471 45.4453 325.114 45.4453 324.708C45.4453 324.265 45.2839 323.916 44.9609 323.661C44.6432 323.4 44.2188 323.27 43.6875 323.27Z" fill="#898989"/>
<path d="M55 329.237L753 329.237" stroke="#E2E2E2" stroke-linecap="round"/>
<path d="M30.7344 112.901C30.7344 108.433 32.5547 106.198 36.1953 106.198C36.7682 106.198 37.2526 106.243 37.6484 106.331V107.862C37.2526 107.748 36.7943 107.69 36.2734 107.69C35.0495 107.69 34.1302 108.019 33.5156 108.675C32.901 109.331 32.5677 110.383 32.5156 111.831H32.6094C32.8542 111.409 33.1979 111.084 33.6406 110.855C34.0833 110.62 34.6042 110.503 35.2031 110.503C36.2396 110.503 37.0469 110.821 37.625 111.456C38.2031 112.092 38.4922 112.954 38.4922 114.042C38.4922 115.24 38.1562 116.188 37.4844 116.886C36.8177 117.579 35.9062 117.925 34.75 117.925C33.9323 117.925 33.2214 117.73 32.6172 117.339C32.013 116.943 31.5469 116.37 31.2188 115.62C30.8958 114.865 30.7344 113.959 30.7344 112.901ZM34.7188 116.409C35.349 116.409 35.8333 116.206 36.1719 115.8C36.5156 115.394 36.6875 114.813 36.6875 114.058C36.6875 113.401 36.526 112.886 36.2031 112.511C35.8854 112.136 35.4062 111.948 34.7656 111.948C34.3698 111.948 34.0052 112.034 33.6719 112.206C33.3385 112.373 33.0755 112.605 32.8828 112.901C32.6901 113.193 32.5938 113.493 32.5938 113.8C32.5938 114.534 32.7917 115.154 33.1875 115.659C33.5885 116.159 34.099 116.409 34.7188 116.409ZM47.1562 108.972C47.1562 109.696 46.9453 110.3 46.5234 110.784C46.1016 111.263 45.5078 111.586 44.7422 111.753V111.815C45.6589 111.93 46.3464 112.217 46.8047 112.675C47.263 113.128 47.4922 113.732 47.4922 114.487C47.4922 115.586 47.1042 116.435 46.3281 117.034C45.5521 117.628 44.4479 117.925 43.0156 117.925C41.75 117.925 40.6823 117.719 39.8125 117.308V115.675C40.2969 115.914 40.8099 116.099 41.3516 116.23C41.8932 116.36 42.4141 116.425 42.9141 116.425C43.7995 116.425 44.4609 116.261 44.8984 115.933C45.3359 115.605 45.5547 115.097 45.5547 114.409C45.5547 113.8 45.3125 113.352 44.8281 113.065C44.3438 112.779 43.5833 112.636 42.5469 112.636H41.5547V111.144H42.5625C44.3854 111.144 45.2969 110.513 45.2969 109.253C45.2969 108.763 45.138 108.386 44.8203 108.12C44.5026 107.855 44.0339 107.722 43.4141 107.722C42.9818 107.722 42.5651 107.784 42.1641 107.909C41.763 108.029 41.2891 108.266 40.7422 108.62L39.8438 107.339C40.8906 106.568 42.1068 106.183 43.4922 106.183C44.6432 106.183 45.5417 106.43 46.1875 106.925C46.8333 107.42 47.1562 108.102 47.1562 108.972Z" fill="#898989"/>
<path d="M55 115.602L753 115.602" stroke="#E2E2E2" stroke-linecap="round"/>
<g clip-path="url(#clip1_57_1043)">
<path d="M755 200.101C626.984 179.604 322.834 341.511 55 116.048V327.92H755V200.101Z" fill="url(#paint0_linear_57_1043)"/>
<path d="M55 116.048C322.834 342.464 626.984 181.298 755 201.881" stroke="#6556D9" stroke-width="3" stroke-linecap="round"/>
<g clip-path="url(#clip2_57_1043)">
<circle cx="405" cy="236.048" r="9.5" fill="#6556D9" stroke="#6556D9"/>
<circle cx="405" cy="236.048" r="7" fill="white"/>
</g>
<path fill-rule="evenodd" clip-rule="evenodd" d="M376 186.048C373.791 186.048 372 187.839 372 190.048V217.048C372 219.257 373.791 221.048 376 221.048H399.381L403.345 224.481C403.721 224.806 404.279 224.806 404.655 224.481L408.619 221.048H433C435.209 221.048 437 219.257 437 217.048V190.048C437 187.839 435.209 186.048 433 186.048H376Z" fill="#E4E6FF"/>
<path d="M387.463 198.765C387.463 200.253 387.223 201.358 386.742 202.081C386.266 202.804 385.535 203.165 384.551 203.165C383.598 203.165 382.875 202.792 382.383 202.046C381.891 201.3 381.645 200.206 381.645 198.765C381.645 197.253 381.883 196.14 382.359 195.425C382.84 194.706 383.57 194.347 384.551 194.347C385.508 194.347 386.232 194.722 386.725 195.472C387.217 196.222 387.463 197.319 387.463 198.765ZM383.039 198.765C383.039 199.933 383.158 200.767 383.396 201.267C383.639 201.767 384.023 202.017 384.551 202.017C385.078 202.017 385.463 201.763 385.705 201.255C385.951 200.747 386.074 199.917 386.074 198.765C386.074 197.616 385.951 196.786 385.705 196.274C385.463 195.759 385.078 195.501 384.551 195.501C384.023 195.501 383.639 195.753 383.396 196.257C383.158 196.761 383.039 197.597 383.039 198.765ZM392.555 203.048H391.178V197.517C391.178 196.856 391.193 196.333 391.225 195.946C391.135 196.04 391.023 196.144 390.891 196.257C390.762 196.37 390.324 196.729 389.578 197.335L388.887 196.462L391.406 194.481H392.555V203.048ZM395.619 202.315C395.619 202.03 395.693 201.812 395.842 201.659C395.99 201.507 396.205 201.431 396.486 201.431C396.771 201.431 396.988 201.511 397.137 201.671C397.285 201.827 397.359 202.042 397.359 202.315C397.359 202.593 397.283 202.813 397.131 202.978C396.982 203.138 396.768 203.218 396.486 203.218C396.205 203.218 395.99 203.138 395.842 202.978C395.693 202.817 395.619 202.597 395.619 202.315ZM402.715 203.048H401.338V197.517C401.338 196.856 401.354 196.333 401.385 195.946C401.295 196.04 401.184 196.144 401.051 196.257C400.922 196.37 400.484 196.729 399.738 197.335L399.047 196.462L401.566 194.481H402.715V203.048ZM411.334 203.048H405.527V202.005L407.736 199.784C408.389 199.116 408.82 198.644 409.031 198.366C409.246 198.085 409.402 197.821 409.5 197.575C409.598 197.329 409.646 197.065 409.646 196.784C409.646 196.397 409.529 196.093 409.295 195.87C409.064 195.647 408.744 195.536 408.334 195.536C408.006 195.536 407.688 195.597 407.379 195.718C407.074 195.839 406.721 196.058 406.318 196.374L405.574 195.466C406.051 195.063 406.514 194.778 406.963 194.61C407.412 194.442 407.891 194.358 408.398 194.358C409.195 194.358 409.834 194.567 410.314 194.985C410.795 195.399 411.035 195.958 411.035 196.661C411.035 197.048 410.965 197.415 410.824 197.763C410.688 198.11 410.475 198.47 410.186 198.841C409.9 199.208 409.424 199.706 408.756 200.335L407.268 201.776V201.835H411.334V203.048ZM412.635 202.315C412.635 202.03 412.709 201.812 412.857 201.659C413.006 201.507 413.221 201.431 413.502 201.431C413.787 201.431 414.004 201.511 414.152 201.671C414.301 201.827 414.375 202.042 414.375 202.315C414.375 202.593 414.299 202.813 414.146 202.978C413.998 203.138 413.783 203.218 413.502 203.218C413.221 203.218 413.006 203.138 412.857 202.978C412.709 202.817 412.635 202.597 412.635 202.315ZM421.494 203.048H415.688V202.005L417.896 199.784C418.549 199.116 418.98 198.644 419.191 198.366C419.406 198.085 419.562 197.821 419.66 197.575C419.758 197.329 419.807 197.065 419.807 196.784C419.807 196.397 419.689 196.093 419.455 195.87C419.225 195.647 418.904 195.536 418.494 195.536C418.166 195.536 417.848 195.597 417.539 195.718C417.234 195.839 416.881 196.058 416.479 196.374L415.734 195.466C416.211 195.063 416.674 194.778 417.123 194.61C417.572 194.442 418.051 194.358 418.559 194.358C419.355 194.358 419.994 194.567 420.475 194.985C420.955 195.399 421.195 195.958 421.195 196.661C421.195 197.048 421.125 197.415 420.984 197.763C420.848 198.11 420.635 198.47 420.346 198.841C420.061 199.208 419.584 199.706 418.916 200.335L417.428 201.776V201.835H421.494V203.048ZM426.586 203.048H425.209V197.517C425.209 196.856 425.225 196.333 425.256 195.946C425.166 196.04 425.055 196.144 424.922 196.257C424.793 196.37 424.355 196.729 423.609 197.335L422.918 196.462L425.438 194.481H426.586V203.048Z" fill="#6556D9"/>
<path d="M384.969 211.397C384.969 208.046 386.334 206.37 389.064 206.37C389.494 206.37 389.857 206.403 390.154 206.47V207.618C389.857 207.532 389.514 207.489 389.123 207.489C388.205 207.489 387.516 207.735 387.055 208.228C386.594 208.72 386.344 209.509 386.305 210.595H386.375C386.559 210.278 386.816 210.034 387.148 209.862C387.48 209.687 387.871 209.599 388.32 209.599C389.098 209.599 389.703 209.837 390.137 210.313C390.57 210.79 390.787 211.437 390.787 212.253C390.787 213.151 390.535 213.862 390.031 214.386C389.531 214.905 388.848 215.165 387.98 215.165C387.367 215.165 386.834 215.019 386.381 214.726C385.928 214.429 385.578 213.999 385.332 213.437C385.09 212.87 384.969 212.19 384.969 211.397ZM387.957 214.028C388.43 214.028 388.793 213.876 389.047 213.571C389.305 213.267 389.434 212.831 389.434 212.265C389.434 211.772 389.312 211.386 389.07 211.104C388.832 210.823 388.473 210.683 387.992 210.683C387.695 210.683 387.422 210.747 387.172 210.876C386.922 211.001 386.725 211.175 386.58 211.397C386.436 211.616 386.363 211.841 386.363 212.071C386.363 212.622 386.512 213.087 386.809 213.466C387.109 213.841 387.492 214.028 387.957 214.028ZM397.607 210.765C397.607 212.253 397.367 213.358 396.887 214.081C396.41 214.804 395.68 215.165 394.695 215.165C393.742 215.165 393.02 214.792 392.527 214.046C392.035 213.3 391.789 212.206 391.789 210.765C391.789 209.253 392.027 208.14 392.504 207.425C392.984 206.706 393.715 206.347 394.695 206.347C395.652 206.347 396.377 206.722 396.869 207.472C397.361 208.222 397.607 209.319 397.607 210.765ZM393.184 210.765C393.184 211.933 393.303 212.767 393.541 213.267C393.783 213.767 394.168 214.017 394.695 214.017C395.223 214.017 395.607 213.763 395.85 213.255C396.096 212.747 396.219 211.917 396.219 210.765C396.219 209.616 396.096 208.786 395.85 208.274C395.607 207.759 395.223 207.501 394.695 207.501C394.168 207.501 393.783 207.753 393.541 208.257C393.303 208.761 393.184 209.597 393.184 210.765ZM400.543 213.788C400.355 214.515 400.012 215.45 399.512 216.595H398.498C398.768 215.54 398.969 214.56 399.102 213.653H400.455L400.543 213.788ZM407.352 208.45C407.352 208.993 407.193 209.446 406.877 209.81C406.561 210.169 406.115 210.411 405.541 210.536V210.583C406.229 210.669 406.744 210.884 407.088 211.228C407.432 211.567 407.604 212.021 407.604 212.587C407.604 213.411 407.312 214.048 406.73 214.497C406.148 214.942 405.32 215.165 404.246 215.165C403.297 215.165 402.496 215.011 401.844 214.702V213.478C402.207 213.657 402.592 213.796 402.998 213.894C403.404 213.991 403.795 214.04 404.17 214.04C404.834 214.04 405.33 213.917 405.658 213.671C405.986 213.425 406.15 213.044 406.15 212.528C406.15 212.071 405.969 211.735 405.605 211.521C405.242 211.306 404.672 211.198 403.895 211.198H403.15V210.079H403.906C405.273 210.079 405.957 209.606 405.957 208.661C405.957 208.294 405.838 208.011 405.6 207.812C405.361 207.612 405.01 207.513 404.545 207.513C404.221 207.513 403.908 207.56 403.607 207.653C403.307 207.743 402.951 207.921 402.541 208.187L401.867 207.226C402.652 206.647 403.564 206.358 404.604 206.358C405.467 206.358 406.141 206.544 406.625 206.915C407.109 207.286 407.352 207.798 407.352 208.45ZM416.316 208.567H417.828L415.15 211.69L418.057 215.048H416.475L413.674 211.761V215.048H412.297V208.567H413.674V211.714L416.316 208.567ZM423.318 208.567V209.646H420.506V215.048H419.129V208.567H423.318Z" fill="#6556D9"/>
</g>
<g filter="url(#filter1_d_57_1043)">
<path d="M6 12C6 7.58172 9.58172 4 14 4H771C775.418 4 779 7.58172 779 12V83H6V12Z" fill="#6556D9"/>
<path d="M32.2617 35.8672H34.8281V44.7734C34.8281 45.7031 34.8047 46.6445 34.7578 47.5977C34.7109 48.543 34.6758 49.1836 34.6523 49.5195H34.7578L43.5117 35.8672H46.7812V53H44.2031V44.1641C44.2031 42.8125 44.2773 41.1719 44.4258 39.2422H44.332L35.543 53H32.2617V35.8672ZM56.2031 53.2344C54.2422 53.2344 52.75 52.6641 51.7266 51.5234C50.7109 50.375 50.2031 48.7305 50.2031 46.5898C50.2031 44.4102 50.7344 42.7344 51.7969 41.5625C52.8672 40.3906 54.4102 39.8047 56.4258 39.8047C57.793 39.8047 59.0234 40.0586 60.1172 40.5664L59.2852 42.7812C58.1211 42.3281 57.1602 42.1016 56.4023 42.1016C54.1602 42.1016 53.0391 43.5898 53.0391 46.5664C53.0391 48.0195 53.3164 49.1133 53.8711 49.8477C54.4336 50.5742 55.2539 50.9375 56.332 50.9375C57.5586 50.9375 58.7188 50.6328 59.8125 50.0234V52.4258C59.3203 52.7148 58.793 52.9219 58.2305 53.0469C57.6758 53.1719 57 53.2344 56.2031 53.2344ZM72.5977 40.0391V42.1953H68.3789V53H65.6133V42.1953H61.3945V40.0391H72.5977ZM86.5898 46.4961C86.5898 48.6133 86.0469 50.2656 84.9609 51.4531C83.875 52.6406 82.3633 53.2344 80.4258 53.2344C79.2148 53.2344 78.1445 52.9609 77.2148 52.4141C76.2852 51.8672 75.5703 51.082 75.0703 50.0586C74.5703 49.0352 74.3203 47.8477 74.3203 46.4961C74.3203 44.3945 74.8594 42.7539 75.9375 41.5742C77.0156 40.3945 78.5352 39.8047 80.4961 39.8047C82.3711 39.8047 83.8555 40.4102 84.9492 41.6211C86.043 42.8242 86.5898 44.4492 86.5898 46.4961ZM77.1562 46.4961C77.1562 49.4883 78.2617 50.9844 80.4727 50.9844C82.6602 50.9844 83.7539 49.4883 83.7539 46.4961C83.7539 43.5352 82.6523 42.0547 80.4492 42.0547C79.293 42.0547 78.4531 42.4375 77.9297 43.2031C77.4141 43.9688 77.1562 45.0664 77.1562 46.4961ZM96.3398 53.2344C94.6992 53.2344 93.4258 52.6445 92.5195 51.4648H92.3555C92.4648 52.5586 92.5195 53.2227 92.5195 53.457V58.7656H89.7656V40.0391H91.9922C92.0547 40.2812 92.1836 40.8594 92.3789 41.7734H92.5195C93.3789 40.4609 94.668 39.8047 96.3867 39.8047C98.0039 39.8047 99.2617 40.3906 100.16 41.5625C101.066 42.7344 101.52 44.3789 101.52 46.4961C101.52 48.6133 101.059 50.2656 100.137 51.4531C99.2227 52.6406 97.957 53.2344 96.3398 53.2344ZM95.6719 42.0547C94.5781 42.0547 93.7773 42.375 93.2695 43.0156C92.7695 43.6562 92.5195 44.6797 92.5195 46.0859V46.4961C92.5195 48.0742 92.7695 49.2188 93.2695 49.9297C93.7695 50.6328 94.5859 50.9844 95.7188 50.9844C96.6719 50.9844 97.4062 50.5938 97.9219 49.8125C98.4375 49.0312 98.6953 47.918 98.6953 46.4727C98.6953 45.0195 98.4375 43.9219 97.9219 43.1797C97.4141 42.4297 96.6641 42.0547 95.6719 42.0547ZM107.355 40.0391V46.6836C107.355 47.457 107.293 48.5938 107.168 50.0938L113.672 40.0391H117.035V53H114.387V46.4727C114.387 46.1133 114.406 45.5312 114.445 44.7266C114.492 43.9219 114.531 43.3359 114.562 42.9688L108.082 53H104.719V40.0391H107.355ZM122.285 53H119.203L122.812 47.6914C121.938 47.4414 121.25 46.9961 120.75 46.3555C120.25 45.707 120 44.9062 120 43.9531C120 42.7266 120.438 41.7695 121.312 41.082C122.188 40.3867 123.383 40.0391 124.898 40.0391H130.805V53H128.039V48.0078H125.426L122.285 53ZM122.684 43.9766C122.684 44.6406 122.934 45.1406 123.434 45.4766C123.941 45.8047 124.621 45.9688 125.473 45.9688H128.039V42.125H125.039C124.289 42.125 123.707 42.2852 123.293 42.6055C122.887 42.9258 122.684 43.3828 122.684 43.9766Z" fill="white"/>
<path d="M274 32C274 29.7909 275.791 28 278 28H338C340.209 28 342 29.7909 342 32V55C342 57.2091 340.209 59 338 59H278C275.791 59 274 57.2091 274 55V32Z" fill="white"/>
<path d="M293.696 37.1504H297.511C299.28 37.1504 300.558 37.4082 301.343 37.9238C302.134 38.4395 302.529 39.2539 302.529 40.3672C302.529 41.1172 302.336 41.7412 301.949 42.2393C301.562 42.7373 301.006 43.0508 300.279 43.1797V43.2676C301.182 43.4375 301.844 43.7744 302.266 44.2783C302.693 44.7764 302.907 45.4531 302.907 46.3086C302.907 47.4629 302.503 48.3682 301.694 49.0244C300.892 49.6748 299.772 50 298.337 50H293.696V37.1504ZM295.797 42.459H297.818C298.697 42.459 299.339 42.3213 299.743 42.0459C300.147 41.7646 300.35 41.29 300.35 40.6221C300.35 40.0186 300.13 39.582 299.69 39.3125C299.257 39.043 298.565 38.9082 297.616 38.9082H295.797V42.459ZM295.797 44.1641V48.2334H298.029C298.908 48.2334 299.57 48.0664 300.016 47.7324C300.467 47.3926 300.692 46.8594 300.692 46.1328C300.692 45.4648 300.464 44.9697 300.007 44.6475C299.55 44.3252 298.855 44.1641 297.924 44.1641H295.797ZM309.604 50.1758C308.093 50.1758 306.909 49.7363 306.054 48.8574C305.204 47.9727 304.779 46.7568 304.779 45.21C304.779 43.6221 305.175 42.374 305.966 41.4658C306.757 40.5576 307.844 40.1035 309.227 40.1035C310.51 40.1035 311.523 40.4932 312.268 41.2725C313.012 42.0518 313.384 43.124 313.384 44.4893V45.6055H306.906C306.936 46.5488 307.19 47.2754 307.671 47.7852C308.151 48.2891 308.828 48.541 309.701 48.541C310.275 48.541 310.809 48.4883 311.301 48.3828C311.799 48.2715 312.332 48.0898 312.9 47.8379V49.5166C312.396 49.7568 311.887 49.9268 311.371 50.0264C310.855 50.126 310.267 50.1758 309.604 50.1758ZM309.227 41.668C308.57 41.668 308.043 41.876 307.645 42.292C307.252 42.708 307.018 43.3145 306.941 44.1113H311.354C311.342 43.3086 311.148 42.7021 310.773 42.292C310.398 41.876 309.883 41.668 309.227 41.668ZM319.65 50.1758C318.18 50.1758 317.061 49.748 316.293 48.8926C315.531 48.0312 315.15 46.7979 315.15 45.1924C315.15 43.5576 315.549 42.3008 316.346 41.4219C317.148 40.543 318.306 40.1035 319.817 40.1035C320.843 40.1035 321.766 40.2939 322.586 40.6748L321.962 42.3359C321.089 41.9961 320.368 41.8262 319.8 41.8262C318.118 41.8262 317.277 42.9424 317.277 45.1748C317.277 46.2646 317.485 47.085 317.901 47.6357C318.323 48.1807 318.938 48.4531 319.747 48.4531C320.667 48.4531 321.537 48.2246 322.357 47.7676V49.5693C321.988 49.7861 321.593 49.9414 321.171 50.0352C320.755 50.1289 320.248 50.1758 319.65 50.1758Z" fill="#6556D9"/>
<path d="M373.696 37.1504H377.511C379.28 37.1504 380.558 37.4082 381.343 37.9238C382.134 38.4395 382.529 39.2539 382.529 40.3672C382.529 41.1172 382.336 41.7412 381.949 42.2393C381.562 42.7373 381.006 43.0508 380.279 43.1797V43.2676C381.182 43.4375 381.844 43.7744 382.266 44.2783C382.693 44.7764 382.907 45.4531 382.907 46.3086C382.907 47.4629 382.503 48.3682 381.694 49.0244C380.892 49.6748 379.772 50 378.337 50H373.696V37.1504ZM375.797 42.459H377.818C378.697 42.459 379.339 42.3213 379.743 42.0459C380.147 41.7646 380.35 41.29 380.35 40.6221C380.35 40.0186 380.13 39.582 379.69 39.3125C379.257 39.043 378.565 38.9082 377.616 38.9082H375.797V42.459ZM375.797 44.1641V48.2334H378.029C378.908 48.2334 379.57 48.0664 380.016 47.7324C380.467 47.3926 380.692 46.8594 380.692 46.1328C380.692 45.4648 380.464 44.9697 380.007 44.6475C379.55 44.3252 378.855 44.1641 377.924 44.1641H375.797ZM389.604 50.1758C388.093 50.1758 386.909 49.7363 386.054 48.8574C385.204 47.9727 384.779 46.7568 384.779 45.21C384.779 43.6221 385.175 42.374 385.966 41.4658C386.757 40.5576 387.844 40.1035 389.227 40.1035C390.51 40.1035 391.523 40.4932 392.268 41.2725C393.012 42.0518 393.384 43.124 393.384 44.4893V45.6055H386.906C386.936 46.5488 387.19 47.2754 387.671 47.7852C388.151 48.2891 388.828 48.541 389.701 48.541C390.275 48.541 390.809 48.4883 391.301 48.3828C391.799 48.2715 392.332 48.0898 392.9 47.8379V49.5166C392.396 49.7568 391.887 49.9268 391.371 50.0264C390.855 50.126 390.267 50.1758 389.604 50.1758ZM389.227 41.668C388.57 41.668 388.043 41.876 387.645 42.292C387.252 42.708 387.018 43.3145 386.941 44.1113H391.354C391.342 43.3086 391.148 42.7021 390.773 42.292C390.398 41.876 389.883 41.668 389.227 41.668ZM399.65 50.1758C398.18 50.1758 397.061 49.748 396.293 48.8926C395.531 48.0312 395.15 46.7979 395.15 45.1924C395.15 43.5576 395.549 42.3008 396.346 41.4219C397.148 40.543 398.306 40.1035 399.817 40.1035C400.843 40.1035 401.766 40.2939 402.586 40.6748L401.962 42.3359C401.089 41.9961 400.368 41.8262 399.8 41.8262C398.118 41.8262 397.277 42.9424 397.277 45.1748C397.277 46.2646 397.485 47.085 397.901 47.6357C398.323 48.1807 398.938 48.4531 399.747 48.4531C400.667 48.4531 401.537 48.2246 402.357 47.7676V49.5693C401.988 49.7861 401.593 49.9414 401.171 50.0352C400.755 50.1289 400.248 50.1758 399.65 50.1758Z" fill="#F7F5F5"/>
<path d="M358 29H418V27H358V29ZM421 32V55H423V32H421ZM418 58H358V60H418V58ZM355 55V32H353V55H355ZM358 58C356.343 58 355 56.6569 355 55H353C353 57.7614 355.239 60 358 60V58ZM421 55C421 56.6569 419.657 58 418 58V60C420.761 60 423 57.7614 423 55H421ZM418 29C419.657 29 421 30.3431 421 32H423C423 29.2386 420.761 27 418 27V29ZM358 27C355.239 27 353 29.2386 353 32H355C355 30.3431 356.343 29 358 29V27Z" fill="white"/>
<path d="M453.696 37.1504H457.511C459.28 37.1504 460.558 37.4082 461.343 37.9238C462.134 38.4395 462.529 39.2539 462.529 40.3672C462.529 41.1172 462.336 41.7412 461.949 42.2393C461.562 42.7373 461.006 43.0508 460.279 43.1797V43.2676C461.182 43.4375 461.844 43.7744 462.266 44.2783C462.693 44.7764 462.907 45.4531 462.907 46.3086C462.907 47.4629 462.503 48.3682 461.694 49.0244C460.892 49.6748 459.772 50 458.337 50H453.696V37.1504ZM455.797 42.459H457.818C458.697 42.459 459.339 42.3213 459.743 42.0459C460.147 41.7646 460.35 41.29 460.35 40.6221C460.35 40.0186 460.13 39.582 459.69 39.3125C459.257 39.043 458.565 38.9082 457.616 38.9082H455.797V42.459ZM455.797 44.1641V48.2334H458.029C458.908 48.2334 459.57 48.0664 460.016 47.7324C460.467 47.3926 460.692 46.8594 460.692 46.1328C460.692 45.4648 460.464 44.9697 460.007 44.6475C459.55 44.3252 458.855 44.1641 457.924 44.1641H455.797ZM469.604 50.1758C468.093 50.1758 466.909 49.7363 466.054 48.8574C465.204 47.9727 464.779 46.7568 464.779 45.21C464.779 43.6221 465.175 42.374 465.966 41.4658C466.757 40.5576 467.844 40.1035 469.227 40.1035C470.51 40.1035 471.523 40.4932 472.268 41.2725C473.012 42.0518 473.384 43.124 473.384 44.4893V45.6055H466.906C466.936 46.5488 467.19 47.2754 467.671 47.7852C468.151 48.2891 468.828 48.541 469.701 48.541C470.275 48.541 470.809 48.4883 471.301 48.3828C471.799 48.2715 472.332 48.0898 472.9 47.8379V49.5166C472.396 49.7568 471.887 49.9268 471.371 50.0264C470.855 50.126 470.267 50.1758 469.604 50.1758ZM469.227 41.668C468.57 41.668 468.043 41.876 467.645 42.292C467.252 42.708 467.018 43.3145 466.941 44.1113H471.354C471.342 43.3086 471.148 42.7021 470.773 42.292C470.398 41.876 469.883 41.668 469.227 41.668ZM479.65 50.1758C478.18 50.1758 477.061 49.748 476.293 48.8926C475.531 48.0312 475.15 46.7979 475.15 45.1924C475.15 43.5576 475.549 42.3008 476.346 41.4219C477.148 40.543 478.306 40.1035 479.817 40.1035C480.843 40.1035 481.766 40.2939 482.586 40.6748L481.962 42.3359C481.089 41.9961 480.368 41.8262 479.8 41.8262C478.118 41.8262 477.277 42.9424 477.277 45.1748C477.277 46.2646 477.485 47.085 477.901 47.6357C478.323 48.1807 478.938 48.4531 479.747 48.4531C480.667 48.4531 481.537 48.2246 482.357 47.7676V49.5693C481.988 49.7861 481.593 49.9414 481.171 50.0352C480.755 50.1289 480.248 50.1758 479.65 50.1758Z" fill="#F7F5F5"/>
<path d="M438 29H498V27H438V29ZM501 32V55H503V32H501ZM498 58H438V60H498V58ZM435 55V32H433V55H435ZM438 58C436.343 58 435 56.6569 435 55H433C433 57.7614 435.239 60 438 60V58ZM501 55C501 56.6569 499.657 58 498 58V60C500.761 60 503 57.7614 503 55H501ZM498 29C499.657 29 501 30.3431 501 32H503C503 29.2386 500.761 27 498 27V29ZM438 27C435.239 27 433 29.2386 433 32H435C435 30.3431 436.343 29 438 29V27Z" fill="white"/>
<path d="M652.018 38.1035C652.018 38.918 651.78 39.5977 651.306 40.1426C650.831 40.6816 650.163 41.0449 649.302 41.2324V41.3027C650.333 41.4316 651.106 41.7539 651.622 42.2695C652.138 42.7793 652.396 43.459 652.396 44.3086C652.396 45.5449 651.959 46.5 651.086 47.1738C650.213 47.8418 648.971 48.1758 647.359 48.1758C645.936 48.1758 644.734 47.9443 643.756 47.4814V45.6445C644.301 45.9141 644.878 46.1221 645.487 46.2686C646.097 46.415 646.683 46.4883 647.245 46.4883C648.241 46.4883 648.985 46.3037 649.478 45.9346C649.97 45.5654 650.216 44.9941 650.216 44.2207C650.216 43.5352 649.943 43.0312 649.398 42.709C648.854 42.3867 647.998 42.2256 646.832 42.2256H645.716V40.5469H646.85C648.9 40.5469 649.926 39.8379 649.926 38.4199C649.926 37.8691 649.747 37.4443 649.39 37.1455C649.032 36.8467 648.505 36.6973 647.808 36.6973C647.321 36.6973 646.853 36.7676 646.401 36.9082C645.95 37.043 645.417 37.3096 644.802 37.708L643.791 36.2666C644.969 35.3994 646.337 34.9658 647.896 34.9658C649.19 34.9658 650.201 35.2441 650.928 35.8008C651.654 36.3574 652.018 37.125 652.018 38.1035ZM665.017 46.0225L665.131 45.6006C665.371 44.7275 665.579 44.0566 665.755 43.5879L667.935 38.2793H670.686V48H668.778V40.1514L668.62 40.6787C668.356 41.6221 668.134 42.3164 667.952 42.7617L665.825 48H664.261L662.134 42.7266C661.841 41.9648 661.571 41.1064 661.325 40.1514V48H659.436V38.2793H662.169L664.278 43.4297C664.466 43.9043 664.712 44.7686 665.017 46.0225ZM677.884 48.1758C676.372 48.1758 675.188 47.7363 674.333 46.8574C673.483 45.9727 673.059 44.7568 673.059 43.21C673.059 41.6221 673.454 40.374 674.245 39.4658C675.036 38.5576 676.123 38.1035 677.506 38.1035C678.789 38.1035 679.803 38.4932 680.547 39.2725C681.291 40.0518 681.663 41.124 681.663 42.4893V43.6055H675.186C675.215 44.5488 675.47 45.2754 675.95 45.7852C676.431 46.2891 677.107 46.541 677.98 46.541C678.555 46.541 679.088 46.4883 679.58 46.3828C680.078 46.2715 680.611 46.0898 681.18 45.8379V47.5166C680.676 47.7568 680.166 47.9268 679.65 48.0264C679.135 48.126 678.546 48.1758 677.884 48.1758ZM677.506 39.668C676.85 39.668 676.322 39.876 675.924 40.292C675.531 40.708 675.297 41.3145 675.221 42.1113H679.633C679.621 41.3086 679.428 40.7021 679.053 40.292C678.678 39.876 678.162 39.668 677.506 39.668ZM687.93 48.1758C686.459 48.1758 685.34 47.748 684.572 46.8926C683.811 46.0312 683.43 44.7979 683.43 43.1924C683.43 41.5576 683.828 40.3008 684.625 39.4219C685.428 38.543 686.585 38.1035 688.097 38.1035C689.122 38.1035 690.045 38.2939 690.865 38.6748L690.241 40.3359C689.368 39.9961 688.647 39.8262 688.079 39.8262C686.397 39.8262 685.557 40.9424 685.557 43.1748C685.557 44.2646 685.765 45.085 686.181 45.6357C686.603 46.1807 687.218 46.4531 688.026 46.4531C688.946 46.4531 689.816 46.2246 690.637 45.7676V47.5693C690.268 47.7861 689.872 47.9414 689.45 48.0352C689.034 48.1289 688.527 48.1758 687.93 48.1758ZM693.915 48H691.604L694.311 44.0186C693.654 43.8311 693.139 43.4971 692.764 43.0166C692.389 42.5303 692.201 41.9297 692.201 41.2148C692.201 40.2949 692.529 39.5771 693.186 39.0615C693.842 38.54 694.738 38.2793 695.875 38.2793H700.305V48H698.23V44.2559H696.271L693.915 48ZM694.214 41.2324C694.214 41.7305 694.401 42.1055 694.776 42.3574C695.157 42.6035 695.667 42.7266 696.306 42.7266H698.23V39.8438H695.98C695.418 39.8438 694.981 39.9639 694.671 40.2041C694.366 40.4443 694.214 40.7871 694.214 41.2324ZM711.915 46.4004H713.321V51.4189H711.379V48H703.258V38.2793H705.323V46.3652H709.85V38.2793H711.915V46.4004ZM721.17 48L720.757 46.6465H720.687C720.218 47.2383 719.746 47.6426 719.271 47.8594C718.797 48.0703 718.188 48.1758 717.443 48.1758C716.488 48.1758 715.741 47.918 715.202 47.4023C714.669 46.8867 714.402 46.1572 714.402 45.2139C714.402 44.2119 714.774 43.4561 715.519 42.9463C716.263 42.4365 717.396 42.1582 718.92 42.1113L720.599 42.0586V41.54C720.599 40.9189 720.452 40.4561 720.159 40.1514C719.872 39.8408 719.424 39.6855 718.814 39.6855C718.316 39.6855 717.839 39.7588 717.382 39.9053C716.925 40.0518 716.485 40.2246 716.063 40.4238L715.396 38.9473C715.923 38.6719 716.5 38.4639 717.127 38.3232C717.754 38.1768 718.346 38.1035 718.902 38.1035C720.139 38.1035 721.07 38.373 721.697 38.9121C722.33 39.4512 722.646 40.2979 722.646 41.4521V48H721.17ZM718.094 46.5938C718.844 46.5938 719.444 46.3857 719.896 45.9697C720.353 45.5479 720.581 44.959 720.581 44.2031V43.3594L719.333 43.4121C718.36 43.4473 717.651 43.6113 717.206 43.9043C716.767 44.1914 716.547 44.6338 716.547 45.2314C716.547 45.665 716.676 46.002 716.934 46.2422C717.191 46.4766 717.578 46.5938 718.094 46.5938Z" fill="white"/>
<path d="M741.246 32.67V32.17V32.67ZM750.246 41.67H749.746H750.246ZM741.246 50.67V50.17V50.67ZM732.246 41.67H731.746H732.246ZM738 40.146C737.804 39.9508 737.488 39.9508 737.292 40.146C737.097 40.3413 737.097 40.6579 737.292 40.8532L738 40.146ZM741.246 44.0996L740.892 44.4532C741.088 44.6484 741.404 44.6484 741.599 44.4532L741.246 44.0996ZM745.2 40.8532C745.395 40.6579 745.395 40.3413 745.2 40.146C745.004 39.9508 744.688 39.9508 744.492 40.146L745.2 40.8532ZM741.246 33.17C745.94 33.17 749.746 36.9756 749.746 41.67H750.746C750.746 36.4233 746.492 32.17 741.246 32.17V33.17ZM749.746 41.67C749.746 46.3645 745.94 50.17 741.246 50.17V51.17C746.492 51.17 750.746 46.9167 750.746 41.67H749.746ZM741.246 50.17C736.551 50.17 732.746 46.3645 732.746 41.67H731.746C731.746 46.9167 735.999 51.17 741.246 51.17V50.17ZM732.746 41.67C732.746 36.9756 736.551 33.17 741.246 33.17V32.17C735.999 32.17 731.746 36.4233 731.746 41.67H732.746ZM737.292 40.8532L740.892 44.4532L741.599 43.746L738 40.146L737.292 40.8532ZM741.599 44.4532L745.2 40.8532L744.492 40.146L740.892 43.746L741.599 44.4532Z" fill="white"/>
</g>
</g>
<rect x="6.5" y="4.5" width="772" height="382" rx="7.5" stroke="url(#paint1_linear_57_1043)"/>
</g>
<defs>
<filter id="filter0_d_57_1043" x="0" y="0" width="787" height="397" filterUnits="userSpaceOnUse" color-interpolation-filters="sRGB">
<feFlood flood-opacity="0" result="BackgroundImageFix"/>
<feColorMatrix in="SourceAlpha" type="matrix" values="0 0 0 0 0 0 0 0 0 0 0 0 0 0 0 0 0 0 127 0" result="hardAlpha"/>
<feOffset dx="1" dy="3"/>
<feGaussianBlur stdDeviation="3.5"/>
<feComposite in2="hardAlpha" operator="out"/>
<feColorMatrix type="matrix" values="0 0 0 0 0 0 0 0 0 0 0 0 0 0 0 0 0 0 0.1 0"/>
<feBlend mode="normal" in2="BackgroundImageFix" result="effect1_dropShadow_57_1043"/>
<feBlend mode="normal" in="SourceGraphic" in2="effect1_dropShadow_57_1043" result="shape"/>
</filter>
<filter id="filter1_d_57_1043" x="0" y="0" width="787" height="93" filterUnits="userSpaceOnUse" color-interpolation-filters="sRGB">
<feFlood flood-opacity="0" result="BackgroundImageFix"/>
<feColorMatrix in="SourceAlpha" type="matrix" values="0 0 0 0 0 0 0 0 0 0 0 0 0 0 0 0 0 0 127 0" result="hardAlpha"/>
<feOffset dx="1" dy="3"/>
<feGaussianBlur stdDeviation="3.5"/>
<feComposite in2="hardAlpha" operator="out"/>
<feColorMatrix type="matrix" values="0 0 0 0 0 0 0 0 0 0 0 0 0 0 0 0 0 0 0.1 0"/>
<feBlend mode="normal" in2="BackgroundImageFix" result="effect1_dropShadow_57_1043"/>
<feBlend mode="normal" in="SourceGraphic" in2="effect1_dropShadow_57_1043" result="shape"/>
</filter>
<linearGradient id="paint0_linear_57_1043" x1="405" y1="160.04" x2="405" y2="327.92" gradientUnits="userSpaceOnUse">
<stop stop-color="#787DFF" stop-opacity="0.55"/>
<stop offset="1" stop-color="#787DFF" stop-opacity="0"/>
</linearGradient>
<linearGradient id="paint1_linear_57_1043" x1="392.5" y1="4" x2="392.5" y2="387" gradientUnits="userSpaceOnUse">
<stop stop-color="#F7F5F5" stop-opacity="0"/>
<stop offset="0.230427" stop-color="#F7F5F5" stop-opacity="0.325"/>
<stop offset="0.833333" stop-color="#F7F5F5"/>
</linearGradient>
<clipPath id="clip0_57_1043">
<rect x="6" y="4" width="773" height="383" rx="8" fill="white"/>
</clipPath>
<clipPath id="clip1_57_1043">
<rect width="700" height="211.872" fill="white" transform="translate(55 116.048)"/>
</clipPath>
<clipPath id="clip2_57_1043">
<rect width="20" height="20" fill="white" transform="translate(395 226.048)"/>
</clipPath>
</defs>
</svg>
