<svg width="298" height="49" viewBox="0 0 298 49" fill="none" xmlns="http://www.w3.org/2000/svg">
<path d="M36 34.4C41.5228 34.4 46 29.9229 46 24.4C46 18.8772 41.5228 14.4 36 14.4C30.4772 14.4 26 18.8772 26 24.4C26 29.9229 30.4772 34.4 36 34.4Z" stroke="white" stroke-width="2" stroke-linecap="round" stroke-linejoin="round"/>
<path d="M36 20.4V24.4" stroke="white" stroke-width="2" stroke-linecap="round" stroke-linejoin="round"/>
<path d="M36 28.4H36.01" stroke="white" stroke-width="2" stroke-linecap="round" stroke-linejoin="round"/>
<path d="M74.2891 29.4H72.4141V19.5797H67.375V29.4H65.5078V17.9781H74.2891V29.4ZM84.7734 25.0641C84.7734 26.4755 84.4115 27.5771 83.6875 28.3688C82.9635 29.1604 81.9557 29.5563 80.6641 29.5563C79.8568 29.5563 79.1432 29.374 78.5234 29.0094C77.9036 28.6448 77.4271 28.1214 77.0938 27.4391C76.7604 26.7568 76.5938 25.9651 76.5938 25.0641C76.5938 23.663 76.9531 22.5693 77.6719 21.7828C78.3906 20.9964 79.4036 20.6031 80.7109 20.6031C81.9609 20.6031 82.9505 21.0068 83.6797 21.8141C84.4089 22.6162 84.7734 23.6995 84.7734 25.0641ZM78.4844 25.0641C78.4844 27.0589 79.2214 28.0563 80.6953 28.0563C82.1536 28.0563 82.8828 27.0589 82.8828 25.0641C82.8828 23.0901 82.1484 22.1031 80.6797 22.1031C79.9089 22.1031 79.349 22.3584 79 22.8688C78.6562 23.3792 78.4844 24.111 78.4844 25.0641ZM91.8516 27.6422L91.9531 27.2672C92.1667 26.4912 92.3516 25.8948 92.5078 25.4781L94.4453 20.7594H96.8906V29.4H95.1953V22.4235L95.0547 22.8922C94.8203 23.7308 94.6224 24.3479 94.4609 24.7438L92.5703 29.4H91.1797L89.2891 24.7125C89.0286 24.0354 88.7891 23.2724 88.5703 22.4235V29.4H86.8906V20.7594H89.3203L91.1953 25.3375C91.362 25.7594 91.5807 26.5276 91.8516 27.6422ZM107.18 25.0641C107.18 26.4755 106.818 27.5771 106.094 28.3688C105.37 29.1604 104.362 29.5563 103.07 29.5563C102.263 29.5563 101.549 29.374 100.93 29.0094C100.31 28.6448 99.8333 28.1214 99.5 27.4391C99.1667 26.7568 99 25.9651 99 25.0641C99 23.663 99.3594 22.5693 100.078 21.7828C100.797 20.9964 101.81 20.6031 103.117 20.6031C104.367 20.6031 105.357 21.0068 106.086 21.8141C106.815 22.6162 107.18 23.6995 107.18 25.0641ZM100.891 25.0641C100.891 27.0589 101.628 28.0563 103.102 28.0563C104.56 28.0563 105.289 27.0589 105.289 25.0641C105.289 23.0901 104.555 22.1031 103.086 22.1031C102.315 22.1031 101.755 22.3584 101.406 22.8688C101.062 23.3792 100.891 24.111 100.891 25.0641ZM121.539 27.9781H122.781V32.4391H121.055V29.4H109.297V20.7594H111.133V27.9469H114.5V20.7594H116.336V27.9469H119.695V20.7594H121.539V27.9781ZM126.195 24.2125H128.359C130.771 24.2125 131.977 25.0459 131.977 26.7125C131.977 27.5927 131.669 28.262 131.055 28.7203C130.44 29.1735 129.542 29.4 128.359 29.4H124.359V20.7594H126.195V24.2125ZM130.133 26.7594C130.133 26.3271 129.969 26.025 129.641 25.8531C129.312 25.6813 128.849 25.5953 128.25 25.5953H126.195V28.0406H128.281C128.885 28.0406 129.344 27.9313 129.656 27.7125C129.974 27.4938 130.133 27.1761 130.133 26.7594Z" fill="white"/>
</svg>
