<svg width="304" height="401" viewBox="0 0 304 401" fill="none" xmlns="http://www.w3.org/2000/svg">
<path d="M40 29H42C42.5304 29 43.0391 29.2107 43.4142 29.5858C43.7893 29.9609 44 30.4696 44 31V45C44 45.5304 43.7893 46.0391 43.4142 46.4142C43.0391 46.7893 42.5304 47 42 47H30C29.4696 47 28.9609 46.7893 28.5858 46.4142C28.2107 46.0391 28 45.5304 28 45V31C28 30.4696 28.2107 29.9609 28.5858 29.5858C28.9609 29.2107 29.4696 29 30 29H32" stroke="white" stroke-width="2" stroke-linecap="round" stroke-linejoin="round"/>
<path d="M39 27H33C32.4477 27 32 27.4477 32 28V30C32 30.5523 32.4477 31 33 31H39C39.5523 31 40 30.5523 40 30V28C40 27.4477 39.5523 27 39 27Z" stroke="white" stroke-width="2" stroke-linecap="round" stroke-linejoin="round"/>
<path d="M70.4453 43.5L67.1328 33.9609H67.0703C67.1589 35.3776 67.2031 36.7057 67.2031 37.9453V43.5H65.5078V32.0781H68.1406L71.3125 41.1641H71.3594L74.625 32.0781H77.2656V43.5H75.4688V37.8516C75.4688 37.2839 75.4818 36.5443 75.5078 35.6328C75.5391 34.7214 75.5651 34.1693 75.5859 33.9766H75.5234L72.0938 43.5H70.4453ZM83.8516 43.6562C82.5078 43.6562 81.4557 43.2656 80.6953 42.4844C79.9401 41.6979 79.5625 40.6172 79.5625 39.2422C79.5625 37.8307 79.9141 36.7214 80.6172 35.9141C81.3203 35.1068 82.2865 34.7031 83.5156 34.7031C84.6562 34.7031 85.5573 35.0495 86.2188 35.7422C86.8802 36.4349 87.2109 37.388 87.2109 38.6016V39.5938H81.4531C81.4792 40.4323 81.7057 41.0781 82.1328 41.5312C82.5599 41.9792 83.1615 42.2031 83.9375 42.2031C84.4479 42.2031 84.9219 42.1562 85.3594 42.0625C85.8021 41.9635 86.276 41.8021 86.7812 41.5781V43.0703C86.3333 43.2839 85.8802 43.4349 85.4219 43.5234C84.9635 43.612 84.4401 43.6562 83.8516 43.6562ZM83.5156 36.0938C82.9323 36.0938 82.4635 36.2786 82.1094 36.6484C81.7604 37.0182 81.5521 37.5573 81.4844 38.2656H85.4062C85.3958 37.5521 85.224 37.013 84.8906 36.6484C84.5573 36.2786 84.099 36.0938 83.5156 36.0938ZM97.5859 46.5547H95.875V43.5H89.9531V46.5547H88.2578V42.0781H88.9609C89.5755 41.1979 90.0625 40.1354 90.4219 38.8906C90.7865 37.6406 91.0026 36.2969 91.0703 34.8594H96.3203V42.0781H97.5859V46.5547ZM94.5156 42.0781V36.2656H92.6562C92.5573 37.3385 92.349 38.3958 92.0312 39.4375C91.7188 40.4792 91.3359 41.3594 90.8828 42.0781H94.5156ZM100.945 34.8594V39.2891C100.945 39.8047 100.904 40.5625 100.82 41.5625L105.156 34.8594H107.398V43.5H105.633V39.1484C105.633 38.9089 105.646 38.5208 105.672 37.9844C105.703 37.4479 105.729 37.0573 105.75 36.8125L101.43 43.5H99.1875V34.8594H100.945ZM117.711 42.0781H118.961V46.5391H117.234V43.5H110.016V34.8594H111.852V42.0469H115.875V34.8594H117.711V42.0781ZM122.289 34.8594V39.2891C122.289 39.8047 122.247 40.5625 122.164 41.5625L126.5 34.8594H128.742V43.5H126.977V39.1484C126.977 38.9089 126.99 38.5208 127.016 37.9844C127.047 37.4479 127.073 37.0573 127.094 36.8125L122.773 43.5H120.531V34.8594H122.289ZM133.195 34.8594V38.3281H137.266V34.8594H139.102V43.5H137.266V39.7734H133.195V43.5H131.359V34.8594H133.195ZM145.219 43.6562C143.911 43.6562 142.917 43.276 142.234 42.5156C141.557 41.75 141.219 40.6536 141.219 39.2266C141.219 37.7734 141.573 36.6562 142.281 35.875C142.995 35.0938 144.023 34.7031 145.367 34.7031C146.279 34.7031 147.099 34.8724 147.828 35.2109L147.273 36.6875C146.497 36.3854 145.857 36.2344 145.352 36.2344C143.857 36.2344 143.109 37.2266 143.109 39.2109C143.109 40.1797 143.294 40.9089 143.664 41.3984C144.039 41.8828 144.586 42.125 145.305 42.125C146.122 42.125 146.896 41.9219 147.625 41.5156V43.1172C147.297 43.3099 146.945 43.4479 146.57 43.5312C146.201 43.6146 145.75 43.6562 145.219 43.6562ZM155.016 34.8594H157.031L153.461 39.0234L157.336 43.5H155.227L151.492 39.1172V43.5H149.656V34.8594H151.492V39.0547L155.016 34.8594ZM164.172 43.5L163.805 42.2969H163.742C163.326 42.8229 162.906 43.1823 162.484 43.375C162.062 43.5625 161.521 43.6562 160.859 43.6562C160.01 43.6562 159.346 43.4271 158.867 42.9688C158.393 42.5104 158.156 41.862 158.156 41.0234C158.156 40.1328 158.487 39.4609 159.148 39.0078C159.81 38.5547 160.818 38.3073 162.172 38.2656L163.664 38.2188V37.7578C163.664 37.2057 163.534 36.7943 163.273 36.5234C163.018 36.2474 162.62 36.1094 162.078 36.1094C161.635 36.1094 161.211 36.1745 160.805 36.3047C160.398 36.4349 160.008 36.5885 159.633 36.7656L159.039 35.4531C159.508 35.2083 160.021 35.0234 160.578 34.8984C161.135 34.7682 161.661 34.7031 162.156 34.7031C163.255 34.7031 164.083 34.9427 164.641 35.4219C165.203 35.901 165.484 36.6536 165.484 37.6797V43.5H164.172ZM161.438 42.25C162.104 42.25 162.638 42.0651 163.039 41.6953C163.445 41.3203 163.648 40.7969 163.648 40.125V39.375L162.539 39.4219C161.674 39.4531 161.044 39.599 160.648 39.8594C160.258 40.1146 160.062 40.5078 160.062 41.0391C160.062 41.4245 160.177 41.724 160.406 41.9375C160.635 42.1458 160.979 42.25 161.438 42.25ZM168.93 43.5H166.875L169.281 39.9609C168.698 39.7943 168.24 39.4974 167.906 39.0703C167.573 38.638 167.406 38.1042 167.406 37.4688C167.406 36.651 167.698 36.013 168.281 35.5547C168.865 35.0911 169.661 34.8594 170.672 34.8594H174.609V43.5H172.766V40.1719H171.023L168.93 43.5ZM169.195 37.4844C169.195 37.9271 169.362 38.2604 169.695 38.4844C170.034 38.7031 170.487 38.8125 171.055 38.8125H172.766V36.25H170.766C170.266 36.25 169.878 36.3568 169.602 36.5703C169.331 36.7839 169.195 37.0885 169.195 37.4844ZM186.75 34.8594H188.766L185.195 39.0234L189.07 43.5H186.961L183.227 39.1172V43.5H181.391V34.8594H183.227V39.0547L186.75 34.8594ZM195.906 43.5L195.539 42.2969H195.477C195.06 42.8229 194.641 43.1823 194.219 43.375C193.797 43.5625 193.255 43.6562 192.594 43.6562C191.745 43.6562 191.081 43.4271 190.602 42.9688C190.128 42.5104 189.891 41.862 189.891 41.0234C189.891 40.1328 190.221 39.4609 190.883 39.0078C191.544 38.5547 192.552 38.3073 193.906 38.2656L195.398 38.2188V37.7578C195.398 37.2057 195.268 36.7943 195.008 36.5234C194.753 36.2474 194.354 36.1094 193.812 36.1094C193.37 36.1094 192.945 36.1745 192.539 36.3047C192.133 36.4349 191.742 36.5885 191.367 36.7656L190.773 35.4531C191.242 35.2083 191.755 35.0234 192.312 34.8984C192.87 34.7682 193.396 34.7031 193.891 34.7031C194.99 34.7031 195.818 34.9427 196.375 35.4219C196.938 35.901 197.219 36.6536 197.219 37.6797V43.5H195.906ZM193.172 42.25C193.839 42.25 194.372 42.0651 194.773 41.6953C195.18 41.3203 195.383 40.7969 195.383 40.125V39.375L194.273 39.4219C193.409 39.4531 192.779 39.599 192.383 39.8594C191.992 40.1146 191.797 40.5078 191.797 41.0391C191.797 41.4245 191.911 41.724 192.141 41.9375C192.37 42.1458 192.714 42.25 193.172 42.25ZM204.164 43.6562C203.07 43.6562 202.221 43.263 201.617 42.4766H201.508C201.581 43.2057 201.617 43.6484 201.617 43.8047V47.3438H199.781V34.8594H201.266C201.307 35.0208 201.393 35.4062 201.523 36.0156H201.617C202.19 35.1406 203.049 34.7031 204.195 34.7031C205.273 34.7031 206.112 35.0938 206.711 35.875C207.315 36.6562 207.617 37.7526 207.617 39.1641C207.617 40.5755 207.31 41.6771 206.695 42.4688C206.086 43.2604 205.242 43.6562 204.164 43.6562ZM203.719 36.2031C202.99 36.2031 202.456 36.4167 202.117 36.8438C201.784 37.2708 201.617 37.9531 201.617 38.8906V39.1641C201.617 40.2161 201.784 40.9792 202.117 41.4531C202.451 41.9219 202.995 42.1562 203.75 42.1562C204.385 42.1562 204.875 41.8958 205.219 41.375C205.562 40.8542 205.734 40.112 205.734 39.1484C205.734 38.1797 205.562 37.4479 205.219 36.9531C204.88 36.4531 204.38 36.2031 203.719 36.2031ZM216.242 34.8594V36.2969H213.43V43.5H211.586V36.2969H208.773V34.8594H216.242ZM223.312 43.5L222.945 42.2969H222.883C222.466 42.8229 222.047 43.1823 221.625 43.375C221.203 43.5625 220.661 43.6562 220 43.6562C219.151 43.6562 218.487 43.4271 218.008 42.9688C217.534 42.5104 217.297 41.862 217.297 41.0234C217.297 40.1328 217.628 39.4609 218.289 39.0078C218.951 38.5547 219.958 38.3073 221.312 38.2656L222.805 38.2188V37.7578C222.805 37.2057 222.674 36.7943 222.414 36.5234C222.159 36.2474 221.76 36.1094 221.219 36.1094C220.776 36.1094 220.352 36.1745 219.945 36.3047C219.539 36.4349 219.148 36.5885 218.773 36.7656L218.18 35.4531C218.648 35.2083 219.161 35.0234 219.719 34.8984C220.276 34.7682 220.802 34.7031 221.297 34.7031C222.396 34.7031 223.224 34.9427 223.781 35.4219C224.344 35.901 224.625 36.6536 224.625 37.6797V43.5H223.312ZM220.578 42.25C221.245 42.25 221.779 42.0651 222.18 41.6953C222.586 41.3203 222.789 40.7969 222.789 40.125V39.375L221.68 39.4219C220.815 39.4531 220.185 39.599 219.789 39.8594C219.398 40.1146 219.203 40.5078 219.203 41.0391C219.203 41.4245 219.318 41.724 219.547 41.9375C219.776 42.1458 220.12 42.25 220.578 42.25Z" fill="white"/>
<path d="M43 94.8H29C27.8954 94.8 27 95.6954 27 96.8V110.8C27 111.905 27.8954 112.8 29 112.8H43C44.1046 112.8 45 111.905 45 110.8V96.8C45 95.6954 44.1046 94.8 43 94.8Z" stroke="white" stroke-width="2" stroke-linecap="round" stroke-linejoin="round"/>
<path d="M27 100.8H45" stroke="white" stroke-width="2" stroke-linecap="round" stroke-linejoin="round"/>
<path d="M40 92.8V96.8" stroke="white" stroke-width="2" stroke-linecap="round" stroke-linejoin="round"/>
<path d="M32 92.8V96.8" stroke="white" stroke-width="2" stroke-linecap="round" stroke-linejoin="round"/>
<path d="M72.75 100.55C72.75 101.295 72.5026 101.904 72.0078 102.378C71.5182 102.852 70.8385 103.154 69.9688 103.284V103.331C70.9688 103.451 71.7292 103.748 72.25 104.222C72.776 104.691 73.0391 105.305 73.0391 106.066C73.0391 107.128 72.6224 107.959 71.7891 108.558C70.9609 109.157 69.8151 109.456 68.3516 109.456C66.8307 109.456 65.6146 109.251 64.7031 108.839V107.206C65.2083 107.446 65.7734 107.631 66.3984 107.761C67.0286 107.891 67.6042 107.956 68.125 107.956C70.1302 107.956 71.1328 107.3 71.1328 105.987C71.1328 105.383 70.8307 104.922 70.2266 104.605C69.6276 104.287 68.737 104.128 67.5547 104.128H66.1797V102.628H67.4688C69.7448 102.628 70.8828 102.021 70.8828 100.808C70.8828 100.323 70.6875 99.9406 70.2969 99.6594C69.9115 99.3781 69.3698 99.2375 68.6719 99.2375C68.1198 99.2375 67.5938 99.3104 67.0938 99.4562C66.5938 99.6021 66.0755 99.8495 65.5391 100.198L64.6875 98.9328C65.8594 98.1203 67.2396 97.7141 68.8281 97.7141C70.0365 97.7141 70.9922 97.9719 71.6953 98.4875C72.3984 99.0031 72.75 99.6906 72.75 100.55ZM80.5469 109.3L80.1797 108.097H80.1172C79.7005 108.623 79.2812 108.982 78.8594 109.175C78.4375 109.362 77.8958 109.456 77.2344 109.456C76.3854 109.456 75.7214 109.227 75.2422 108.769C74.7682 108.31 74.5312 107.662 74.5312 106.823C74.5312 105.933 74.862 105.261 75.5234 104.808C76.1849 104.355 77.1927 104.107 78.5469 104.066L80.0391 104.019V103.558C80.0391 103.006 79.9089 102.594 79.6484 102.323C79.3932 102.047 78.9948 101.909 78.4531 101.909C78.0104 101.909 77.5859 101.974 77.1797 102.105C76.7734 102.235 76.3828 102.389 76.0078 102.566L75.4141 101.253C75.8828 101.008 76.3958 100.823 76.9531 100.698C77.5104 100.568 78.0365 100.503 78.5312 100.503C79.6302 100.503 80.4583 100.743 81.0156 101.222C81.5781 101.701 81.8594 102.454 81.8594 103.48V109.3H80.5469ZM77.8125 108.05C78.4792 108.05 79.013 107.865 79.4141 107.495C79.8203 107.12 80.0234 106.597 80.0234 105.925V105.175L78.9141 105.222C78.0495 105.253 77.4193 105.399 77.0234 105.659C76.6328 105.915 76.4375 106.308 76.4375 106.839C76.4375 107.224 76.5521 107.524 76.7812 107.737C77.0104 107.946 77.3542 108.05 77.8125 108.05ZM91.9766 100.659V109.3H90.1328V102.112H86.2578V109.3H84.4219V100.659H91.9766ZM96.3672 100.659V105.089C96.3672 105.605 96.3255 106.362 96.2422 107.362L100.578 100.659H102.82V109.3H101.055V104.948C101.055 104.709 101.068 104.321 101.094 103.784C101.125 103.248 101.151 102.857 101.172 102.612L96.8516 109.3H94.6094V100.659H96.3672ZM108.922 109.456C107.615 109.456 106.62 109.076 105.938 108.316C105.26 107.55 104.922 106.454 104.922 105.027C104.922 103.573 105.276 102.456 105.984 101.675C106.698 100.894 107.727 100.503 109.07 100.503C109.982 100.503 110.802 100.672 111.531 101.011L110.977 102.487C110.201 102.185 109.56 102.034 109.055 102.034C107.56 102.034 106.812 103.027 106.812 105.011C106.812 105.98 106.997 106.709 107.367 107.198C107.742 107.683 108.289 107.925 109.008 107.925C109.826 107.925 110.599 107.722 111.328 107.316V108.917C111 109.11 110.648 109.248 110.273 109.331C109.904 109.415 109.453 109.456 108.922 109.456ZM115.195 104.112H117.359C119.771 104.112 120.977 104.946 120.977 106.612C120.977 107.493 120.669 108.162 120.055 108.62C119.44 109.073 118.542 109.3 117.359 109.3H113.359V100.659H115.195V104.112ZM119.133 106.659C119.133 106.227 118.969 105.925 118.641 105.753C118.312 105.581 117.849 105.495 117.25 105.495H115.195V107.941H117.281C117.885 107.941 118.344 107.831 118.656 107.612C118.974 107.394 119.133 107.076 119.133 106.659ZM129.008 100.659V104.128H133.078V100.659H134.914V109.3H133.078V105.573H129.008V109.3H127.172V100.659H129.008ZM142.953 109.3L142.586 108.097H142.523C142.107 108.623 141.688 108.982 141.266 109.175C140.844 109.362 140.302 109.456 139.641 109.456C138.792 109.456 138.128 109.227 137.648 108.769C137.174 108.31 136.938 107.662 136.938 106.823C136.938 105.933 137.268 105.261 137.93 104.808C138.591 104.355 139.599 104.107 140.953 104.066L142.445 104.019V103.558C142.445 103.006 142.315 102.594 142.055 102.323C141.799 102.047 141.401 101.909 140.859 101.909C140.417 101.909 139.992 101.974 139.586 102.105C139.18 102.235 138.789 102.389 138.414 102.566L137.82 101.253C138.289 101.008 138.802 100.823 139.359 100.698C139.917 100.568 140.443 100.503 140.938 100.503C142.036 100.503 142.865 100.743 143.422 101.222C143.984 101.701 144.266 102.454 144.266 103.48V109.3H142.953ZM140.219 108.05C140.885 108.05 141.419 107.865 141.82 107.495C142.227 107.12 142.43 106.597 142.43 105.925V105.175L141.32 105.222C140.456 105.253 139.826 105.399 139.43 105.659C139.039 105.915 138.844 106.308 138.844 106.839C138.844 107.224 138.958 107.524 139.188 107.737C139.417 107.946 139.76 108.05 140.219 108.05ZM158.539 100.659V109.3H156.695V102.112H152.82V109.3H150.984V100.659H158.539ZM165.555 109.456C164.461 109.456 163.612 109.063 163.008 108.277H162.898C162.971 109.006 163.008 109.448 163.008 109.605V113.144H161.172V100.659H162.656C162.698 100.821 162.784 101.206 162.914 101.816H163.008C163.581 100.941 164.44 100.503 165.586 100.503C166.664 100.503 167.503 100.894 168.102 101.675C168.706 102.456 169.008 103.553 169.008 104.964C169.008 106.376 168.701 107.477 168.086 108.269C167.477 109.06 166.633 109.456 165.555 109.456ZM165.109 102.003C164.38 102.003 163.846 102.217 163.508 102.644C163.174 103.071 163.008 103.753 163.008 104.691V104.964C163.008 106.016 163.174 106.779 163.508 107.253C163.841 107.722 164.385 107.956 165.141 107.956C165.776 107.956 166.266 107.696 166.609 107.175C166.953 106.654 167.125 105.912 167.125 104.948C167.125 103.98 166.953 103.248 166.609 102.753C166.271 102.253 165.771 102.003 165.109 102.003ZM172.898 100.659V105.089C172.898 105.605 172.857 106.362 172.773 107.362L177.109 100.659H179.352V109.3H177.586V104.948C177.586 104.709 177.599 104.321 177.625 103.784C177.656 103.248 177.682 102.857 177.703 102.612L173.383 109.3H171.141V100.659H172.898ZM185.742 109.456C184.398 109.456 183.346 109.066 182.586 108.284C181.831 107.498 181.453 106.417 181.453 105.042C181.453 103.631 181.805 102.521 182.508 101.714C183.211 100.907 184.177 100.503 185.406 100.503C186.547 100.503 187.448 100.849 188.109 101.542C188.771 102.235 189.102 103.188 189.102 104.402V105.394H183.344C183.37 106.232 183.596 106.878 184.023 107.331C184.451 107.779 185.052 108.003 185.828 108.003C186.339 108.003 186.812 107.956 187.25 107.862C187.693 107.764 188.167 107.602 188.672 107.378V108.87C188.224 109.084 187.771 109.235 187.312 109.323C186.854 109.412 186.331 109.456 185.742 109.456ZM185.406 101.894C184.823 101.894 184.354 102.079 184 102.448C183.651 102.818 183.443 103.357 183.375 104.066H187.297C187.286 103.352 187.115 102.813 186.781 102.448C186.448 102.079 185.99 101.894 185.406 101.894ZM182.977 98.3703C182.977 98.0474 183.062 97.8156 183.234 97.675C183.411 97.5292 183.625 97.4562 183.875 97.4562C184.151 97.4562 184.37 97.537 184.531 97.6984C184.698 97.8599 184.781 98.0838 184.781 98.3703C184.781 98.6463 184.698 98.8677 184.531 99.0344C184.365 99.201 184.146 99.2844 183.875 99.2844C183.625 99.2844 183.411 99.2088 183.234 99.0578C183.062 98.9068 182.977 98.6776 182.977 98.3703ZM186.047 98.3703C186.047 98.0474 186.133 97.8156 186.305 97.675C186.482 97.5292 186.695 97.4562 186.945 97.4562C187.221 97.4562 187.443 97.537 187.609 97.6984C187.776 97.8599 187.859 98.0838 187.859 98.3703C187.859 98.6516 187.773 98.8755 187.602 99.0422C187.43 99.2036 187.211 99.2844 186.945 99.2844C186.695 99.2844 186.482 99.2088 186.305 99.0578C186.133 98.9068 186.047 98.6776 186.047 98.3703ZM196.148 107.542L196.25 107.167C196.464 106.391 196.648 105.795 196.805 105.378L198.742 100.659H201.188V109.3H199.492V102.323L199.352 102.792C199.117 103.631 198.919 104.248 198.758 104.644L196.867 109.3H195.477L193.586 104.612C193.326 103.935 193.086 103.172 192.867 102.323V109.3H191.188V100.659H193.617L195.492 105.237C195.659 105.659 195.878 106.428 196.148 107.542Z" fill="white"/>
<g filter="url(#filter0_d_59_1064)">
<rect width="298" height="49.6" transform="translate(0 143.6)" fill="white"/>
<path d="M44.2395 170.112H38.9132C38.493 170.112 38.1523 170.453 38.1523 170.873V176.199C38.1523 176.619 38.493 176.96 38.9132 176.96H44.2395C44.6597 176.96 45.0004 176.619 45.0004 176.199V170.873C45.0004 170.453 44.6597 170.112 44.2395 170.112Z" stroke="#6556D9" stroke-width="2" stroke-linecap="round" stroke-linejoin="round"/>
<path d="M33.0871 170.112H27.7609C27.3407 170.112 27 170.453 27 170.873V176.199C27 176.619 27.3407 176.96 27.7609 176.96H33.0871C33.5074 176.96 33.848 176.619 33.848 176.199V170.873C33.848 170.453 33.5074 170.112 33.0871 170.112Z" stroke="#6556D9" stroke-width="2" stroke-linecap="round" stroke-linejoin="round"/>
<path d="M44.2395 159.84H38.9132C38.493 159.84 38.1523 160.181 38.1523 160.601V165.927C38.1523 166.347 38.493 166.688 38.9132 166.688H44.2395C44.6597 166.688 45.0004 166.347 45.0004 165.927V160.601C45.0004 160.181 44.6597 159.84 44.2395 159.84Z" stroke="#6556D9" stroke-width="2" stroke-linecap="round" stroke-linejoin="round"/>
<path d="M33.0871 159.84H27.7609C27.3407 159.84 27 160.181 27 160.601V165.927C27 166.347 27.3407 166.688 27.7609 166.688H33.0871C33.5074 166.688 33.848 166.347 33.848 165.927V160.601C33.848 160.181 33.5074 159.84 33.0871 159.84Z" stroke="#6556D9" stroke-width="2" stroke-linecap="round" stroke-linejoin="round"/>
<path d="M70.3672 164.916C69.2943 164.916 68.4505 165.296 67.8359 166.056C67.2214 166.817 66.9141 167.866 66.9141 169.205C66.9141 170.606 67.2083 171.666 67.7969 172.384C68.3906 173.103 69.2474 173.462 70.3672 173.462C70.8516 173.462 71.3203 173.416 71.7734 173.322C72.2266 173.223 72.6979 173.098 73.1875 172.947V174.548C72.2917 174.887 71.276 175.056 70.1406 175.056C68.4688 175.056 67.1849 174.551 66.2891 173.541C65.3932 172.525 64.9453 171.074 64.9453 169.189C64.9453 168.002 65.1615 166.962 65.5938 166.072C66.0312 165.181 66.6615 164.499 67.4844 164.025C68.3073 163.551 69.2734 163.314 70.3828 163.314C71.5495 163.314 72.6276 163.559 73.6172 164.048L72.9453 165.603C72.5599 165.421 72.151 165.262 71.7188 165.127C71.2917 164.986 70.8411 164.916 70.3672 164.916ZM81.9453 166.259V167.697H79.1328V174.9H77.2891V167.697H74.4766V166.259H81.9453ZM89.0156 174.9L88.6484 173.697H88.5859C88.1693 174.223 87.75 174.582 87.3281 174.775C86.9062 174.962 86.3646 175.056 85.7031 175.056C84.8542 175.056 84.1901 174.827 83.7109 174.369C83.237 173.91 83 173.262 83 172.423C83 171.533 83.3307 170.861 83.9922 170.408C84.6536 169.955 85.6615 169.707 87.0156 169.666L88.5078 169.619V169.158C88.5078 168.606 88.3776 168.194 88.1172 167.923C87.862 167.647 87.4635 167.509 86.9219 167.509C86.4792 167.509 86.0547 167.574 85.6484 167.705C85.2422 167.835 84.8516 167.989 84.4766 168.166L83.8828 166.853C84.3516 166.608 84.8646 166.423 85.4219 166.298C85.9792 166.168 86.5052 166.103 87 166.103C88.099 166.103 88.9271 166.343 89.4844 166.822C90.0469 167.301 90.3281 168.054 90.3281 169.08V174.9H89.0156ZM86.2812 173.65C86.9479 173.65 87.4818 173.465 87.8828 173.095C88.2891 172.72 88.4922 172.197 88.4922 171.525V170.775L87.3828 170.822C86.5182 170.853 85.888 170.999 85.4922 171.259C85.1016 171.515 84.9062 171.908 84.9062 172.439C84.9062 172.824 85.0208 173.124 85.25 173.337C85.4792 173.546 85.8229 173.65 86.2812 173.65ZM99.3828 166.259V167.697H96.5703V174.9H94.7266V167.697H91.9141V166.259H99.3828ZM102.805 166.259V170.689C102.805 171.205 102.763 171.962 102.68 172.962L107.016 166.259H109.258V174.9H107.492V170.548C107.492 170.309 107.505 169.921 107.531 169.384C107.562 168.848 107.589 168.457 107.609 168.212L103.289 174.9H101.047V166.259H102.805ZM115.359 175.056C114.052 175.056 113.057 174.676 112.375 173.916C111.698 173.15 111.359 172.054 111.359 170.627C111.359 169.173 111.714 168.056 112.422 167.275C113.135 166.494 114.164 166.103 115.508 166.103C116.419 166.103 117.24 166.272 117.969 166.611L117.414 168.087C116.638 167.785 115.997 167.634 115.492 167.634C113.997 167.634 113.25 168.627 113.25 170.611C113.25 171.58 113.435 172.309 113.805 172.798C114.18 173.283 114.727 173.525 115.445 173.525C116.263 173.525 117.036 173.322 117.766 172.916V174.517C117.438 174.71 117.086 174.848 116.711 174.931C116.341 175.015 115.891 175.056 115.359 175.056ZM126.289 166.259V167.697H123.477V174.9H121.633V167.697H118.82V166.259H126.289ZM129.711 166.259V170.689C129.711 171.205 129.669 171.962 129.586 172.962L133.922 166.259H136.164V174.9H134.398V170.548C134.398 170.309 134.411 169.921 134.438 169.384C134.469 168.848 134.495 168.457 134.516 168.212L130.195 174.9H127.953V166.259H129.711ZM144.141 166.259H146.156L142.586 170.423L146.461 174.9H144.352L140.617 170.517V174.9H138.781V166.259H140.617V170.455L144.141 166.259ZM153.297 174.9L152.93 173.697H152.867C152.451 174.223 152.031 174.582 151.609 174.775C151.188 174.962 150.646 175.056 149.984 175.056C149.135 175.056 148.471 174.827 147.992 174.369C147.518 173.91 147.281 173.262 147.281 172.423C147.281 171.533 147.612 170.861 148.273 170.408C148.935 169.955 149.943 169.707 151.297 169.666L152.789 169.619V169.158C152.789 168.606 152.659 168.194 152.398 167.923C152.143 167.647 151.745 167.509 151.203 167.509C150.76 167.509 150.336 167.574 149.93 167.705C149.523 167.835 149.133 167.989 148.758 168.166L148.164 166.853C148.633 166.608 149.146 166.423 149.703 166.298C150.26 166.168 150.786 166.103 151.281 166.103C152.38 166.103 153.208 166.343 153.766 166.822C154.328 167.301 154.609 168.054 154.609 169.08V174.9H153.297ZM150.562 173.65C151.229 173.65 151.763 173.465 152.164 173.095C152.57 172.72 152.773 172.197 152.773 171.525V170.775L151.664 170.822C150.799 170.853 150.169 170.999 149.773 171.259C149.383 171.515 149.188 171.908 149.188 172.439C149.188 172.824 149.302 173.124 149.531 173.337C149.76 173.546 150.104 173.65 150.562 173.65Z" fill="#6556D9"/>
</g>
<path d="M70.3672 232.016C69.2943 232.016 68.4505 232.396 67.8359 233.156C67.2214 233.917 66.9141 234.966 66.9141 236.305C66.9141 237.706 67.2083 238.766 67.7969 239.484C68.3906 240.203 69.2474 240.562 70.3672 240.562C70.8516 240.562 71.3203 240.516 71.7734 240.422C72.2266 240.323 72.6979 240.198 73.1875 240.047V241.648C72.2917 241.987 71.276 242.156 70.1406 242.156C68.4688 242.156 67.1849 241.651 66.2891 240.641C65.3932 239.625 64.9453 238.174 64.9453 236.289C64.9453 235.102 65.1615 234.062 65.5938 233.172C66.0312 232.281 66.6615 231.599 67.4844 231.125C68.3073 230.651 69.2734 230.414 70.3828 230.414C71.5495 230.414 72.6276 230.659 73.6172 231.148L72.9453 232.703C72.5599 232.521 72.151 232.362 71.7188 232.227C71.2917 232.086 70.8411 232.016 70.3672 232.016ZM83.1172 237.664C83.1172 239.076 82.7552 240.177 82.0312 240.969C81.3073 241.76 80.2995 242.156 79.0078 242.156C78.2005 242.156 77.487 241.974 76.8672 241.609C76.2474 241.245 75.7708 240.721 75.4375 240.039C75.1042 239.357 74.9375 238.565 74.9375 237.664C74.9375 236.263 75.2969 235.169 76.0156 234.383C76.7344 233.596 77.7474 233.203 79.0547 233.203C80.3047 233.203 81.2943 233.607 82.0234 234.414C82.7526 235.216 83.1172 236.299 83.1172 237.664ZM76.8281 237.664C76.8281 239.659 77.5651 240.656 79.0391 240.656C80.4974 240.656 81.2266 239.659 81.2266 237.664C81.2266 235.69 80.4922 234.703 79.0234 234.703C78.2526 234.703 77.6927 234.958 77.3438 235.469C77 235.979 76.8281 236.711 76.8281 237.664ZM92.8984 237.664C92.8984 239.076 92.5365 240.177 91.8125 240.969C91.0885 241.76 90.0807 242.156 88.7891 242.156C87.9818 242.156 87.2682 241.974 86.6484 241.609C86.0286 241.245 85.5521 240.721 85.2188 240.039C84.8854 239.357 84.7188 238.565 84.7188 237.664C84.7188 236.263 85.0781 235.169 85.7969 234.383C86.5156 233.596 87.5286 233.203 88.8359 233.203C90.0859 233.203 91.0755 233.607 91.8047 234.414C92.5339 235.216 92.8984 236.299 92.8984 237.664ZM86.6094 237.664C86.6094 239.659 87.3464 240.656 88.8203 240.656C90.2786 240.656 91.0078 239.659 91.0078 237.664C91.0078 235.69 90.2734 234.703 88.8047 234.703C88.0339 234.703 87.474 234.958 87.125 235.469C86.7812 235.979 86.6094 236.711 86.6094 237.664ZM94.5156 236.812C94.5156 234.885 94.8411 233.404 95.4922 232.367C96.1484 231.331 97.1901 230.664 98.6172 230.367C99.6953 230.148 100.938 229.935 102.344 229.727L102.602 231.344C100.893 231.604 99.6432 231.807 98.8516 231.953C98.0339 232.104 97.4427 232.44 97.0781 232.961C96.7188 233.482 96.5104 234.266 96.4531 235.312H96.5703C96.8672 234.88 97.2552 234.547 97.7344 234.312C98.2135 234.073 98.7266 233.953 99.2734 233.953C100.336 233.953 101.164 234.289 101.758 234.961C102.352 235.633 102.648 236.576 102.648 237.789C102.648 239.18 102.286 240.255 101.562 241.016C100.844 241.776 99.8464 242.156 98.5703 242.156C97.3047 242.156 96.3125 241.688 95.5938 240.75C94.875 239.812 94.5156 238.5 94.5156 236.812ZM98.6953 240.656C100.06 240.656 100.742 239.76 100.742 237.969C100.742 236.24 100.125 235.375 98.8906 235.375C98.5521 235.375 98.224 235.448 97.9062 235.594C97.5885 235.74 97.2943 235.932 97.0234 236.172C96.7578 236.411 96.5521 236.659 96.4062 236.914C96.4062 238.143 96.6016 239.076 96.9922 239.711C97.3828 240.341 97.9505 240.656 98.6953 240.656ZM117.008 240.578H118.25V245.039H116.523V242H104.766V233.359H106.602V240.547H109.969V233.359H111.805V240.547H115.164V233.359H117.008V240.578ZM123.602 242.156C122.258 242.156 121.206 241.766 120.445 240.984C119.69 240.198 119.312 239.117 119.312 237.742C119.312 236.331 119.664 235.221 120.367 234.414C121.07 233.607 122.036 233.203 123.266 233.203C124.406 233.203 125.307 233.549 125.969 234.242C126.63 234.935 126.961 235.888 126.961 237.102V238.094H121.203C121.229 238.932 121.456 239.578 121.883 240.031C122.31 240.479 122.911 240.703 123.688 240.703C124.198 240.703 124.672 240.656 125.109 240.562C125.552 240.464 126.026 240.302 126.531 240.078V241.57C126.083 241.784 125.63 241.935 125.172 242.023C124.714 242.112 124.19 242.156 123.602 242.156ZM123.266 234.594C122.682 234.594 122.214 234.779 121.859 235.148C121.51 235.518 121.302 236.057 121.234 236.766H125.156C125.146 236.052 124.974 235.513 124.641 235.148C124.307 234.779 123.849 234.594 123.266 234.594ZM130.883 233.359V236.828H134.953V233.359H136.789V242H134.953V238.273H130.883V242H129.047V233.359H130.883ZM141.18 233.359V237.789C141.18 238.305 141.138 239.062 141.055 240.062L145.391 233.359H147.633V242H145.867V237.648C145.867 237.409 145.88 237.021 145.906 236.484C145.938 235.948 145.964 235.557 145.984 235.312L141.664 242H139.422V233.359H141.18ZM151.133 242H149.078L151.484 238.461C150.901 238.294 150.443 237.997 150.109 237.57C149.776 237.138 149.609 236.604 149.609 235.969C149.609 235.151 149.901 234.513 150.484 234.055C151.068 233.591 151.865 233.359 152.875 233.359H156.812V242H154.969V238.672H153.227L151.133 242ZM151.398 235.984C151.398 236.427 151.565 236.76 151.898 236.984C152.237 237.203 152.69 237.312 153.258 237.312H154.969V234.75H152.969C152.469 234.75 152.081 234.857 151.805 235.07C151.534 235.284 151.398 235.589 151.398 235.984Z" fill="white"/>
<path d="M28 226H44C45.1 226 46 226.9 46 228V240C46 241.1 45.1 242 44 242H28C26.9 242 26 241.1 26 240V228C26 226.9 26.9 226 28 226Z" stroke="white" stroke-width="2" stroke-linecap="round" stroke-linejoin="round"/>
<path d="M46 228L36 235L26 228" stroke="white" stroke-width="2" stroke-linecap="round" stroke-linejoin="round"/>
<circle cx="264" cy="234" r="6" fill="white"/>
<g clip-path="url(#clip0_59_1064)">
<path d="M36 302.6C37.6569 302.6 39 301.257 39 299.6C39 297.943 37.6569 296.6 36 296.6C34.3431 296.6 33 297.943 33 299.6C33 301.257 34.3431 302.6 36 302.6Z" stroke="white" stroke-width="2" stroke-linecap="round" stroke-linejoin="round"/>
<path d="M43.4 302.6C43.2669 302.902 43.2272 303.236 43.286 303.561C43.3448 303.885 43.4995 304.184 43.73 304.42L43.79 304.48C43.976 304.666 44.1235 304.886 44.2241 305.129C44.3248 305.372 44.3766 305.632 44.3766 305.895C44.3766 306.158 44.3248 306.418 44.2241 306.661C44.1235 306.904 43.976 307.124 43.79 307.31C43.6043 307.496 43.3837 307.644 43.1409 307.744C42.8981 307.845 42.6378 307.897 42.375 307.897C42.1122 307.897 41.8519 307.845 41.6091 307.744C41.3663 307.644 41.1457 307.496 40.96 307.31L40.9 307.25C40.6643 307.019 40.365 306.865 40.0406 306.806C39.7162 306.747 39.3816 306.787 39.08 306.92C38.7842 307.047 38.532 307.257 38.3543 307.526C38.1766 307.794 38.0813 308.108 38.08 308.43V308.6C38.08 309.13 37.8693 309.639 37.4942 310.014C37.1191 310.389 36.6104 310.6 36.08 310.6C35.5496 310.6 35.0409 310.389 34.6658 310.014C34.2907 309.639 34.08 309.13 34.08 308.6V308.51C34.0723 308.179 33.9651 307.858 33.7725 307.589C33.5799 307.319 33.3107 307.114 33 307C32.6984 306.867 32.3638 306.827 32.0394 306.886C31.715 306.945 31.4157 307.099 31.18 307.33L31.12 307.39C30.9343 307.576 30.7137 307.724 30.4709 307.824C30.2281 307.925 29.9678 307.977 29.705 307.977C29.4422 307.977 29.1819 307.925 28.9391 307.824C28.6963 307.724 28.4757 307.576 28.29 307.39C28.104 307.204 27.9565 306.984 27.8559 306.741C27.7552 306.498 27.7034 306.238 27.7034 305.975C27.7034 305.712 27.7552 305.452 27.8559 305.209C27.9565 304.966 28.104 304.746 28.29 304.56L28.35 304.5C28.5805 304.264 28.7352 303.965 28.794 303.641C28.8528 303.316 28.8131 302.982 28.68 302.68C28.5532 302.384 28.3428 302.132 28.0745 301.954C27.8062 301.777 27.4918 301.681 27.17 301.68H27C26.4696 301.68 25.9609 301.469 25.5858 301.094C25.2107 300.719 25 300.21 25 299.68C25 299.15 25.2107 298.641 25.5858 298.266C25.9609 297.891 26.4696 297.68 27 297.68H27.09C27.421 297.672 27.742 297.565 28.0113 297.373C28.2806 297.18 28.4857 296.911 28.6 296.6C28.7331 296.298 28.7728 295.964 28.714 295.639C28.6552 295.315 28.5005 295.016 28.27 294.78L28.21 294.72C28.024 294.534 27.8765 294.314 27.7759 294.071C27.6752 293.828 27.6234 293.568 27.6234 293.305C27.6234 293.042 27.6752 292.782 27.7759 292.539C27.8765 292.296 28.024 292.076 28.21 291.89C28.3957 291.704 28.6163 291.557 28.8591 291.456C29.1019 291.355 29.3622 291.303 29.625 291.303C29.8878 291.303 30.1481 291.355 30.3909 291.456C30.6337 291.557 30.8543 291.704 31.04 291.89L31.1 291.95C31.3357 292.181 31.635 292.335 31.9594 292.394C32.2838 292.453 32.6184 292.413 32.92 292.28H33C33.2958 292.153 33.548 291.943 33.7257 291.675C33.9034 291.406 33.9987 291.092 34 290.77V290.6C34 290.07 34.2107 289.561 34.5858 289.186C34.9609 288.811 35.4696 288.6 36 288.6C36.5304 288.6 37.0391 288.811 37.4142 289.186C37.7893 289.561 38 290.07 38 290.6V290.69C38.0013 291.012 38.0966 291.326 38.2743 291.595C38.452 291.863 38.7042 292.073 39 292.2C39.3016 292.333 39.6362 292.373 39.9606 292.314C40.285 292.255 40.5843 292.101 40.82 291.87L40.88 291.81C41.0657 291.624 41.2863 291.477 41.5291 291.376C41.7719 291.275 42.0322 291.223 42.295 291.223C42.5578 291.223 42.8181 291.275 43.0609 291.376C43.3037 291.477 43.5243 291.624 43.71 291.81C43.896 291.996 44.0435 292.216 44.1441 292.459C44.2448 292.702 44.2966 292.962 44.2966 293.225C44.2966 293.488 44.2448 293.748 44.1441 293.991C44.0435 294.234 43.896 294.454 43.71 294.64L43.65 294.7C43.4195 294.936 43.2648 295.235 43.206 295.559C43.1472 295.884 43.1869 296.218 43.32 296.52V296.6C43.4468 296.896 43.6572 297.148 43.9255 297.326C44.1938 297.503 44.5082 297.599 44.83 297.6H45C45.5304 297.6 46.0391 297.811 46.4142 298.186C46.7893 298.561 47 299.07 47 299.6C47 300.13 46.7893 300.639 46.4142 301.014C46.0391 301.389 45.5304 301.6 45 301.6H44.91C44.5882 301.601 44.2738 301.697 44.0055 301.874C43.7372 302.052 43.5268 302.304 43.4 302.6V302.6Z" stroke="white" stroke-width="2" stroke-linecap="round" stroke-linejoin="round"/>
</g>
<path d="M74.5156 306.1H72.6406V300.952H67.375V306.1H65.5078V294.678H67.375V299.35H72.6406V294.678H74.5156V306.1ZM82.7344 306.1L82.3672 304.897H82.3047C81.888 305.423 81.4688 305.782 81.0469 305.975C80.625 306.163 80.0833 306.256 79.4219 306.256C78.5729 306.256 77.9089 306.027 77.4297 305.569C76.9557 305.11 76.7188 304.462 76.7188 303.623C76.7188 302.733 77.0495 302.061 77.7109 301.608C78.3724 301.155 79.3802 300.907 80.7344 300.866L82.2266 300.819V300.358C82.2266 299.806 82.0964 299.394 81.8359 299.123C81.5807 298.847 81.1823 298.709 80.6406 298.709C80.1979 298.709 79.7734 298.775 79.3672 298.905C78.9609 299.035 78.5703 299.189 78.1953 299.366L77.6016 298.053C78.0703 297.808 78.5833 297.623 79.1406 297.498C79.6979 297.368 80.224 297.303 80.7188 297.303C81.8177 297.303 82.6458 297.543 83.2031 298.022C83.7656 298.501 84.0469 299.254 84.0469 300.28V306.1H82.7344ZM80 304.85C80.6667 304.85 81.2005 304.665 81.6016 304.295C82.0078 303.92 82.2109 303.397 82.2109 302.725V301.975L81.1016 302.022C80.237 302.053 79.6068 302.199 79.2109 302.459C78.8203 302.715 78.625 303.108 78.625 303.639C78.625 304.025 78.7396 304.324 78.9688 304.538C79.1979 304.746 79.5417 304.85 80 304.85ZM90.0938 306.256C88.7865 306.256 87.7917 305.876 87.1094 305.116C86.4323 304.35 86.0938 303.254 86.0938 301.827C86.0938 300.373 86.4479 299.256 87.1562 298.475C87.8698 297.694 88.8984 297.303 90.2422 297.303C91.1536 297.303 91.974 297.472 92.7031 297.811L92.1484 299.288C91.3724 298.985 90.7318 298.834 90.2266 298.834C88.7318 298.834 87.9844 299.827 87.9844 301.811C87.9844 302.78 88.1693 303.509 88.5391 303.998C88.9141 304.483 89.4609 304.725 90.1797 304.725C90.9974 304.725 91.7708 304.522 92.5 304.116V305.717C92.1719 305.91 91.8203 306.048 91.4453 306.131C91.0755 306.215 90.625 306.256 90.0938 306.256ZM101.023 297.459V298.897H98.2109V306.1H96.3672V298.897H93.5547V297.459H101.023ZM107.07 306.256C105.977 306.256 105.128 305.863 104.523 305.077H104.414C104.487 305.806 104.523 306.248 104.523 306.405V309.944H102.688V297.459H104.172C104.214 297.621 104.299 298.006 104.43 298.616H104.523C105.096 297.741 105.956 297.303 107.102 297.303C108.18 297.303 109.018 297.694 109.617 298.475C110.221 299.256 110.523 300.353 110.523 301.764C110.523 303.176 110.216 304.277 109.602 305.069C108.992 305.86 108.148 306.256 107.07 306.256ZM106.625 298.803C105.896 298.803 105.362 299.017 105.023 299.444C104.69 299.871 104.523 300.553 104.523 301.491V301.764C104.523 302.816 104.69 303.579 105.023 304.053C105.357 304.522 105.901 304.756 106.656 304.756C107.292 304.756 107.781 304.496 108.125 303.975C108.469 303.454 108.641 302.712 108.641 301.748C108.641 300.78 108.469 300.048 108.125 299.553C107.786 299.053 107.286 298.803 106.625 298.803ZM120.32 301.764C120.32 303.176 119.958 304.277 119.234 305.069C118.51 305.86 117.503 306.256 116.211 306.256C115.404 306.256 114.69 306.074 114.07 305.709C113.451 305.345 112.974 304.821 112.641 304.139C112.307 303.457 112.141 302.665 112.141 301.764C112.141 300.363 112.5 299.269 113.219 298.483C113.938 297.696 114.951 297.303 116.258 297.303C117.508 297.303 118.497 297.707 119.227 298.514C119.956 299.316 120.32 300.4 120.32 301.764ZM114.031 301.764C114.031 303.759 114.768 304.756 116.242 304.756C117.701 304.756 118.43 303.759 118.43 301.764C118.43 299.79 117.695 298.803 116.227 298.803C115.456 298.803 114.896 299.058 114.547 299.569C114.203 300.079 114.031 300.811 114.031 301.764ZM124.195 297.459V301.889C124.195 302.405 124.154 303.163 124.07 304.163L128.406 297.459H130.648V306.1H128.883V301.748C128.883 301.509 128.896 301.121 128.922 300.584C128.953 300.048 128.979 299.657 129 299.413L124.68 306.1H122.438V297.459H124.195ZM126.484 296.405C125.38 296.405 124.57 296.207 124.055 295.811C123.544 295.41 123.26 294.743 123.203 293.811H124.867C124.898 294.186 124.969 294.478 125.078 294.686C125.193 294.894 125.354 295.045 125.562 295.139C125.776 295.228 126.099 295.272 126.531 295.272C127.042 295.272 127.43 295.16 127.695 294.936C127.961 294.707 128.122 294.332 128.18 293.811H129.875C129.797 294.707 129.482 295.363 128.93 295.78C128.378 296.196 127.562 296.405 126.484 296.405ZM138.625 297.459H140.641L137.07 301.623L140.945 306.1H138.836L135.102 301.717V306.1H133.266V297.459H135.102V301.655L138.625 297.459ZM144.133 297.459V301.889C144.133 302.405 144.091 303.163 144.008 304.163L148.344 297.459H150.586V306.1H148.82V301.748C148.82 301.509 148.833 301.121 148.859 300.584C148.891 300.048 148.917 299.657 148.938 299.413L144.617 306.1H142.375V297.459H144.133Z" fill="white"/>
<path d="M36 374.4C41.5228 374.4 46 369.923 46 364.4C46 358.877 41.5228 354.4 36 354.4C30.4772 354.4 26 358.877 26 364.4C26 369.923 30.4772 374.4 36 374.4Z" stroke="white" stroke-width="2" stroke-linecap="round" stroke-linejoin="round"/>
<path d="M36 360.4V364.4" stroke="white" stroke-width="2" stroke-linecap="round" stroke-linejoin="round"/>
<path d="M36 368.4H36.01" stroke="white" stroke-width="2" stroke-linecap="round" stroke-linejoin="round"/>
<path d="M74.2891 369.4H72.4141V359.58H67.375V369.4H65.5078V357.978H74.2891V369.4ZM84.7734 365.064C84.7734 366.476 84.4115 367.577 83.6875 368.369C82.9635 369.16 81.9557 369.556 80.6641 369.556C79.8568 369.556 79.1432 369.374 78.5234 369.009C77.9036 368.645 77.4271 368.121 77.0938 367.439C76.7604 366.757 76.5938 365.965 76.5938 365.064C76.5938 363.663 76.9531 362.569 77.6719 361.783C78.3906 360.996 79.4036 360.603 80.7109 360.603C81.9609 360.603 82.9505 361.007 83.6797 361.814C84.4089 362.616 84.7734 363.7 84.7734 365.064ZM78.4844 365.064C78.4844 367.059 79.2214 368.056 80.6953 368.056C82.1536 368.056 82.8828 367.059 82.8828 365.064C82.8828 363.09 82.1484 362.103 80.6797 362.103C79.9089 362.103 79.349 362.358 79 362.869C78.6562 363.379 78.4844 364.111 78.4844 365.064ZM91.8516 367.642L91.9531 367.267C92.1667 366.491 92.3516 365.895 92.5078 365.478L94.4453 360.759H96.8906V369.4H95.1953V362.423L95.0547 362.892C94.8203 363.731 94.6224 364.348 94.4609 364.744L92.5703 369.4H91.1797L89.2891 364.713C89.0286 364.035 88.7891 363.272 88.5703 362.423V369.4H86.8906V360.759H89.3203L91.1953 365.338C91.362 365.759 91.5807 366.528 91.8516 367.642ZM107.18 365.064C107.18 366.476 106.818 367.577 106.094 368.369C105.37 369.16 104.362 369.556 103.07 369.556C102.263 369.556 101.549 369.374 100.93 369.009C100.31 368.645 99.8333 368.121 99.5 367.439C99.1667 366.757 99 365.965 99 365.064C99 363.663 99.3594 362.569 100.078 361.783C100.797 360.996 101.81 360.603 103.117 360.603C104.367 360.603 105.357 361.007 106.086 361.814C106.815 362.616 107.18 363.7 107.18 365.064ZM100.891 365.064C100.891 367.059 101.628 368.056 103.102 368.056C104.56 368.056 105.289 367.059 105.289 365.064C105.289 363.09 104.555 362.103 103.086 362.103C102.315 362.103 101.755 362.358 101.406 362.869C101.062 363.379 100.891 364.111 100.891 365.064ZM121.539 367.978H122.781V372.439H121.055V369.4H109.297V360.759H111.133V367.947H114.5V360.759H116.336V367.947H119.695V360.759H121.539V367.978ZM126.195 364.213H128.359C130.771 364.213 131.977 365.046 131.977 366.713C131.977 367.593 131.669 368.262 131.055 368.72C130.44 369.173 129.542 369.4 128.359 369.4H124.359V360.759H126.195V364.213ZM130.133 366.759C130.133 366.327 129.969 366.025 129.641 365.853C129.312 365.681 128.849 365.595 128.25 365.595H126.195V368.041H128.281C128.885 368.041 129.344 367.931 129.656 367.713C129.974 367.494 130.133 367.176 130.133 366.759Z" fill="white"/>
<defs>
<filter id="filter0_d_59_1064" x="-4" y="139.6" width="308" height="59.6" filterUnits="userSpaceOnUse" color-interpolation-filters="sRGB">
<feFlood flood-opacity="0" result="BackgroundImageFix"/>
<feColorMatrix in="SourceAlpha" type="matrix" values="0 0 0 0 0 0 0 0 0 0 0 0 0 0 0 0 0 0 127 0" result="hardAlpha"/>
<feOffset dx="1" dy="1"/>
<feGaussianBlur stdDeviation="2.5"/>
<feComposite in2="hardAlpha" operator="out"/>
<feColorMatrix type="matrix" values="0 0 0 0 0 0 0 0 0 0 0 0 0 0 0 0 0 0 0.07 0"/>
<feBlend mode="normal" in2="BackgroundImageFix" result="effect1_dropShadow_59_1064"/>
<feBlend mode="normal" in="SourceGraphic" in2="effect1_dropShadow_59_1064" result="shape"/>
</filter>
<clipPath id="clip0_59_1064">
<rect width="24" height="24" fill="white" transform="translate(24 287.6)"/>
</clipPath>
</defs>
</svg>
