<svg width="173" height="50" viewBox="0 0 173 50" fill="none" xmlns="http://www.w3.org/2000/svg">
<path d="M68.6828 1.02282C69.7478 1.67847 70.5599 2.55704 71.119 3.65854C71.971 2.55704 72.9695 1.67847 74.1143 1.02282C75.2858 0.340939 76.6704 0 78.2679 0C80.5842 0 82.3947 0.694991 83.6994 2.08497C85.004 3.44873 85.6563 5.40258 85.6563 7.94651V21.2038H80.8239V9.40205C80.8239 7.74981 80.4511 6.49096 79.7056 5.6255C78.9601 4.76004 77.9084 4.32731 76.5505 4.32731C75.2193 4.32731 74.1277 4.77315 73.2757 5.66484C72.4503 6.5303 72.0376 7.80226 72.0376 9.48073V21.2038H67.2051V9.36271C67.2051 7.7367 66.8324 6.49096 66.0869 5.6255C65.3414 4.76004 64.2897 4.32731 62.9318 4.32731C61.5739 4.32731 60.4823 4.78626 59.6569 5.70417C58.8315 6.62209 58.4188 7.89405 58.4188 9.52007V21.2038H58.4039V31.9827C58.75 31.4844 59.1227 31.0254 59.5221 30.6058C59.9481 30.16 60.4274 29.7666 60.9599 29.4256C61.519 29.0847 62.1181 28.8224 62.7571 28.6389C63.4227 28.429 64.1682 28.3241 64.9936 28.3241C67.3898 28.3241 69.2403 29.0454 70.5449 30.4878C71.8495 31.9302 72.5019 33.871 72.5019 36.31V50H67.6694V37.7262C67.6694 36.1002 67.27 34.8544 66.4713 33.989C65.6991 33.0973 64.5942 32.6514 63.1564 32.6514C61.7453 32.6514 60.6004 33.1104 59.7218 34.0283C58.8432 34.92 58.4039 36.1789 58.4039 37.8049V50H53.5714V20.8104H53.5864V0H58.4188V3.57986C58.765 3.10779 59.1377 2.66195 59.5371 2.24233C59.9365 1.82271 60.3891 1.44244 60.895 1.1015C61.4275 0.760556 62.0132 0.498295 62.6522 0.314714C63.3179 0.104905 64.0501 0 64.8488 0C66.3664 0 67.6444 0.340939 68.6828 1.02282Z" fill="white"/>
<path d="M105.567 0H110.599L102.212 21.7939C101.786 22.8692 101.347 23.7739 100.894 24.5083C100.442 25.2426 99.9359 25.8327 99.3768 26.2785C98.8176 26.7506 98.2053 27.0915 97.5396 27.3014C96.874 27.5112 96.1152 27.6161 95.2632 27.6161C94.2514 27.6161 93.3462 27.4981 92.5474 27.262C91.7753 27.0522 91.0165 26.7506 90.271 26.3572L91.9084 22.8167C92.3611 23.0527 92.8137 23.2363 93.2663 23.3674C93.7456 23.5248 94.2381 23.6035 94.744 23.6035C95.4363 23.6035 96.0087 23.433 96.4613 23.0921C96.914 22.7511 97.34 22.1217 97.7393 21.2038L88.9531 0H94.105L100.096 15.8537L105.567 0Z" fill="white"/>
<path d="M130.992 20.2381V50H126.16V20.2381H130.992Z" fill="white"/>
<path fill-rule="evenodd" clip-rule="evenodd" d="M97.5075 40.834H82.0117C82.3046 42.5387 82.9968 43.85 84.0885 44.7679C85.1801 45.6596 86.5113 46.1054 88.0822 46.1054C89.2804 46.1054 90.3187 45.8956 91.1974 45.476C92.076 45.0564 92.9413 44.4401 93.7933 43.6271L96.6289 46.1054C95.6171 47.2856 94.4057 48.2297 92.9946 48.9378C91.6101 49.646 89.946 50 88.0023 50C86.4847 50 85.0603 49.7377 83.729 49.2132C82.4244 48.6887 81.2795 47.9544 80.2944 47.0102C79.3359 46.0661 78.5771 44.9384 78.0179 43.6271C77.4588 42.2895 77.1792 40.8078 77.1792 39.1817C77.1792 37.6869 77.4322 36.2838 77.9381 34.9725C78.4439 33.6611 79.1495 32.5203 80.0548 31.5499C80.9866 30.5534 82.0783 29.7666 83.3296 29.1896C84.581 28.6126 85.9655 28.3241 87.4832 28.3241C89.1605 28.3241 90.6249 28.6257 91.8763 29.2289C93.1543 29.8321 94.206 30.6451 95.0314 31.668C95.8834 32.6908 96.5224 33.8841 96.9484 35.2478C97.3744 36.6116 97.5874 38.0409 97.5874 39.5358C97.5874 39.7456 97.5741 39.9554 97.5474 40.1652C97.5474 40.375 97.5341 40.5979 97.5075 40.834ZM83.729 33.7529C82.7705 34.7495 82.1848 36.0608 81.9718 37.6869H92.7949C92.715 36.9263 92.5419 36.2182 92.2757 35.5625C92.0094 34.8807 91.65 34.3037 91.1974 33.8316C90.7447 33.3333 90.1989 32.9399 89.5599 32.6514C88.9475 32.363 88.242 32.2187 87.4432 32.2187C85.9522 32.2187 84.7141 32.7301 83.729 33.7529Z" fill="white"/>
<path fill-rule="evenodd" clip-rule="evenodd" d="M120.133 50V37.2148C120.133 34.4348 119.374 32.2843 117.856 30.7632C116.339 29.2158 114.009 28.4422 110.867 28.4422C109.137 28.4422 107.659 28.5995 106.434 28.9142C105.209 29.2289 104.011 29.6486 102.84 30.1731L104.158 33.989C105.116 33.5956 106.061 33.2809 106.993 33.0448C107.925 32.8088 108.99 32.6908 110.188 32.6908C111.866 32.6908 113.144 33.0711 114.022 33.8316C114.928 34.5922 115.38 35.6937 115.38 37.1361V37.6475C114.555 37.3853 113.69 37.1754 112.784 37.0181C111.906 36.8607 110.827 36.7821 109.549 36.7821C108.325 36.7821 107.18 36.9263 106.115 37.2148C105.076 37.477 104.171 37.8835 103.399 38.4343C102.653 38.985 102.068 39.68 101.642 40.5193C101.216 41.3585 101.003 42.342 101.003 43.4697V43.5484C101.003 44.5974 101.202 45.5285 101.602 46.3415C102.028 47.1282 102.574 47.797 103.239 48.3478C103.931 48.8723 104.73 49.2657 105.635 49.5279C106.541 49.8164 107.499 49.9607 108.511 49.9607C110.108 49.9607 111.466 49.6722 112.585 49.0952C113.703 48.5182 114.621 47.8101 115.34 46.9709V50H120.133ZM115.46 42.0142C115.46 42.6698 115.314 43.273 115.021 43.8238C114.755 44.3483 114.368 44.8072 113.863 45.2006C113.357 45.5678 112.758 45.8563 112.065 46.0661C111.4 46.2759 110.668 46.3808 109.869 46.3808C108.724 46.3808 107.752 46.1185 106.953 45.594C106.181 45.0695 105.795 44.3089 105.795 43.3123V43.2337C105.795 42.1584 106.221 41.3323 107.073 40.7553C107.925 40.1783 109.11 39.8898 110.628 39.8898C111.56 39.8898 112.438 39.9685 113.264 40.1259C114.116 40.2832 114.848 40.4799 115.46 40.716V42.0142Z" fill="white"/>
<path d="M143.139 32.8481H148.81V28.7569H143.139V23.0527H138.306V28.7569H135.63V32.8481H138.306V43.7844C138.306 44.9384 138.453 45.9087 138.746 46.6955C139.039 47.4561 139.451 48.0724 139.984 48.5444C140.543 49.0165 141.195 49.3575 141.941 49.5673C142.686 49.7771 143.498 49.882 144.377 49.882C145.282 49.882 146.081 49.7902 146.773 49.6066C147.465 49.423 148.118 49.1608 148.73 48.8198V44.9253C147.772 45.3973 146.773 45.6334 145.735 45.6334C144.909 45.6334 144.27 45.4367 143.818 45.0433C143.365 44.6237 143.139 43.9549 143.139 43.037V32.8481Z" fill="white"/>
<path d="M159.839 34.0283C158.96 34.92 158.521 36.1789 158.521 37.8049V49.882H153.689V20.2381H158.521V31.9827C158.867 31.4844 159.24 31.0254 159.639 30.6058C160.065 30.16 160.545 29.7666 161.077 29.4256C161.636 29.0847 162.235 28.8224 162.874 28.6389C163.54 28.429 164.285 28.3241 165.111 28.3241C167.507 28.3241 169.357 29.0454 170.662 30.4878C171.967 31.9302 172.619 33.871 172.619 36.31V49.882H167.787V37.7262C167.787 36.1002 167.387 34.8544 166.588 33.989C165.816 33.0973 164.711 32.6514 163.274 32.6514C161.862 32.6514 160.718 33.1104 159.839 34.0283Z" fill="white"/>
<path fill-rule="evenodd" clip-rule="evenodd" d="M21.0946 4H46V23H38.5714L36.648 24.4518L31.7857 41.5125L21.0946 4ZM15.3339 4H4V23H9.91893L15.3339 4ZM4 27V46H28.9053L18.2143 8.48745L13.352 25.5482L11.4286 27H4ZM34.6661 46H46V27H40.081L34.6661 46ZM0 0H4H46H50V4V46V50H46H4H0V46V4V0Z" fill="white"/>
</svg>
