<svg width="298" height="50" viewBox="0 0 298 50" fill="none" xmlns="http://www.w3.org/2000/svg">
<path d="M40 17H42C42.5304 17 43.0391 17.2107 43.4142 17.5858C43.7893 17.9609 44 18.4696 44 19V33C44 33.5304 43.7893 34.0391 43.4142 34.4142C43.0391 34.7893 42.5304 35 42 35H30C29.4696 35 28.9609 34.7893 28.5858 34.4142C28.2107 34.0391 28 33.5304 28 33V19C28 18.4696 28.2107 17.9609 28.5858 17.5858C28.9609 17.2107 29.4696 17 30 17H32" stroke="white" stroke-width="2" stroke-linecap="round" stroke-linejoin="round"/>
<path d="M39 15H33C32.4477 15 32 15.4477 32 16V18C32 18.5523 32.4477 19 33 19H39C39.5523 19 40 18.5523 40 18V16C40 15.4477 39.5523 15 39 15Z" stroke="white" stroke-width="2" stroke-linecap="round" stroke-linejoin="round"/>
<path d="M70.4453 31.5L67.1328 21.9609H67.0703C67.1589 23.3776 67.2031 24.7057 67.2031 25.9453V31.5H65.5078V20.0781H68.1406L71.3125 29.1641H71.3594L74.625 20.0781H77.2656V31.5H75.4688V25.8516C75.4688 25.2839 75.4818 24.5443 75.5078 23.6328C75.5391 22.7214 75.5651 22.1693 75.5859 21.9766H75.5234L72.0938 31.5H70.4453ZM83.8516 31.6562C82.5078 31.6562 81.4557 31.2656 80.6953 30.4844C79.9401 29.6979 79.5625 28.6172 79.5625 27.2422C79.5625 25.8307 79.9141 24.7214 80.6172 23.9141C81.3203 23.1068 82.2865 22.7031 83.5156 22.7031C84.6562 22.7031 85.5573 23.0495 86.2188 23.7422C86.8802 24.4349 87.2109 25.388 87.2109 26.6016V27.5938H81.4531C81.4792 28.4323 81.7057 29.0781 82.1328 29.5312C82.5599 29.9792 83.1615 30.2031 83.9375 30.2031C84.4479 30.2031 84.9219 30.1562 85.3594 30.0625C85.8021 29.9635 86.276 29.8021 86.7812 29.5781V31.0703C86.3333 31.2839 85.8802 31.4349 85.4219 31.5234C84.9635 31.612 84.4401 31.6562 83.8516 31.6562ZM83.5156 24.0938C82.9323 24.0938 82.4635 24.2786 82.1094 24.6484C81.7604 25.0182 81.5521 25.5573 81.4844 26.2656H85.4062C85.3958 25.5521 85.224 25.013 84.8906 24.6484C84.5573 24.2786 84.099 24.0938 83.5156 24.0938ZM97.5859 34.5547H95.875V31.5H89.9531V34.5547H88.2578V30.0781H88.9609C89.5755 29.1979 90.0625 28.1354 90.4219 26.8906C90.7865 25.6406 91.0026 24.2969 91.0703 22.8594H96.3203V30.0781H97.5859V34.5547ZM94.5156 30.0781V24.2656H92.6562C92.5573 25.3385 92.349 26.3958 92.0312 27.4375C91.7188 28.4792 91.3359 29.3594 90.8828 30.0781H94.5156ZM100.945 22.8594V27.2891C100.945 27.8047 100.904 28.5625 100.82 29.5625L105.156 22.8594H107.398V31.5H105.633V27.1484C105.633 26.9089 105.646 26.5208 105.672 25.9844C105.703 25.4479 105.729 25.0573 105.75 24.8125L101.43 31.5H99.1875V22.8594H100.945ZM117.711 30.0781H118.961V34.5391H117.234V31.5H110.016V22.8594H111.852V30.0469H115.875V22.8594H117.711V30.0781ZM122.289 22.8594V27.2891C122.289 27.8047 122.247 28.5625 122.164 29.5625L126.5 22.8594H128.742V31.5H126.977V27.1484C126.977 26.9089 126.99 26.5208 127.016 25.9844C127.047 25.4479 127.073 25.0573 127.094 24.8125L122.773 31.5H120.531V22.8594H122.289ZM133.195 22.8594V26.3281H137.266V22.8594H139.102V31.5H137.266V27.7734H133.195V31.5H131.359V22.8594H133.195ZM145.219 31.6562C143.911 31.6562 142.917 31.276 142.234 30.5156C141.557 29.75 141.219 28.6536 141.219 27.2266C141.219 25.7734 141.573 24.6562 142.281 23.875C142.995 23.0938 144.023 22.7031 145.367 22.7031C146.279 22.7031 147.099 22.8724 147.828 23.2109L147.273 24.6875C146.497 24.3854 145.857 24.2344 145.352 24.2344C143.857 24.2344 143.109 25.2266 143.109 27.2109C143.109 28.1797 143.294 28.9089 143.664 29.3984C144.039 29.8828 144.586 30.125 145.305 30.125C146.122 30.125 146.896 29.9219 147.625 29.5156V31.1172C147.297 31.3099 146.945 31.4479 146.57 31.5312C146.201 31.6146 145.75 31.6562 145.219 31.6562ZM155.016 22.8594H157.031L153.461 27.0234L157.336 31.5H155.227L151.492 27.1172V31.5H149.656V22.8594H151.492V27.0547L155.016 22.8594ZM164.172 31.5L163.805 30.2969H163.742C163.326 30.8229 162.906 31.1823 162.484 31.375C162.062 31.5625 161.521 31.6562 160.859 31.6562C160.01 31.6562 159.346 31.4271 158.867 30.9688C158.393 30.5104 158.156 29.862 158.156 29.0234C158.156 28.1328 158.487 27.4609 159.148 27.0078C159.81 26.5547 160.818 26.3073 162.172 26.2656L163.664 26.2188V25.7578C163.664 25.2057 163.534 24.7943 163.273 24.5234C163.018 24.2474 162.62 24.1094 162.078 24.1094C161.635 24.1094 161.211 24.1745 160.805 24.3047C160.398 24.4349 160.008 24.5885 159.633 24.7656L159.039 23.4531C159.508 23.2083 160.021 23.0234 160.578 22.8984C161.135 22.7682 161.661 22.7031 162.156 22.7031C163.255 22.7031 164.083 22.9427 164.641 23.4219C165.203 23.901 165.484 24.6536 165.484 25.6797V31.5H164.172ZM161.438 30.25C162.104 30.25 162.638 30.0651 163.039 29.6953C163.445 29.3203 163.648 28.7969 163.648 28.125V27.375L162.539 27.4219C161.674 27.4531 161.044 27.599 160.648 27.8594C160.258 28.1146 160.062 28.5078 160.062 29.0391C160.062 29.4245 160.177 29.724 160.406 29.9375C160.635 30.1458 160.979 30.25 161.438 30.25ZM168.93 31.5H166.875L169.281 27.9609C168.698 27.7943 168.24 27.4974 167.906 27.0703C167.573 26.638 167.406 26.1042 167.406 25.4688C167.406 24.651 167.698 24.013 168.281 23.5547C168.865 23.0911 169.661 22.8594 170.672 22.8594H174.609V31.5H172.766V28.1719H171.023L168.93 31.5ZM169.195 25.4844C169.195 25.9271 169.362 26.2604 169.695 26.4844C170.034 26.7031 170.487 26.8125 171.055 26.8125H172.766V24.25H170.766C170.266 24.25 169.878 24.3568 169.602 24.5703C169.331 24.7839 169.195 25.0885 169.195 25.4844ZM186.75 22.8594H188.766L185.195 27.0234L189.07 31.5H186.961L183.227 27.1172V31.5H181.391V22.8594H183.227V27.0547L186.75 22.8594ZM195.906 31.5L195.539 30.2969H195.477C195.06 30.8229 194.641 31.1823 194.219 31.375C193.797 31.5625 193.255 31.6562 192.594 31.6562C191.745 31.6562 191.081 31.4271 190.602 30.9688C190.128 30.5104 189.891 29.862 189.891 29.0234C189.891 28.1328 190.221 27.4609 190.883 27.0078C191.544 26.5547 192.552 26.3073 193.906 26.2656L195.398 26.2188V25.7578C195.398 25.2057 195.268 24.7943 195.008 24.5234C194.753 24.2474 194.354 24.1094 193.812 24.1094C193.37 24.1094 192.945 24.1745 192.539 24.3047C192.133 24.4349 191.742 24.5885 191.367 24.7656L190.773 23.4531C191.242 23.2083 191.755 23.0234 192.312 22.8984C192.87 22.7682 193.396 22.7031 193.891 22.7031C194.99 22.7031 195.818 22.9427 196.375 23.4219C196.938 23.901 197.219 24.6536 197.219 25.6797V31.5H195.906ZM193.172 30.25C193.839 30.25 194.372 30.0651 194.773 29.6953C195.18 29.3203 195.383 28.7969 195.383 28.125V27.375L194.273 27.4219C193.409 27.4531 192.779 27.599 192.383 27.8594C191.992 28.1146 191.797 28.5078 191.797 29.0391C191.797 29.4245 191.911 29.724 192.141 29.9375C192.37 30.1458 192.714 30.25 193.172 30.25ZM204.164 31.6562C203.07 31.6562 202.221 31.263 201.617 30.4766H201.508C201.581 31.2057 201.617 31.6484 201.617 31.8047V35.3438H199.781V22.8594H201.266C201.307 23.0208 201.393 23.4062 201.523 24.0156H201.617C202.19 23.1406 203.049 22.7031 204.195 22.7031C205.273 22.7031 206.112 23.0938 206.711 23.875C207.315 24.6562 207.617 25.7526 207.617 27.1641C207.617 28.5755 207.31 29.6771 206.695 30.4688C206.086 31.2604 205.242 31.6562 204.164 31.6562ZM203.719 24.2031C202.99 24.2031 202.456 24.4167 202.117 24.8438C201.784 25.2708 201.617 25.9531 201.617 26.8906V27.1641C201.617 28.2161 201.784 28.9792 202.117 29.4531C202.451 29.9219 202.995 30.1562 203.75 30.1562C204.385 30.1562 204.875 29.8958 205.219 29.375C205.562 28.8542 205.734 28.112 205.734 27.1484C205.734 26.1797 205.562 25.4479 205.219 24.9531C204.88 24.4531 204.38 24.2031 203.719 24.2031ZM216.242 22.8594V24.2969H213.43V31.5H211.586V24.2969H208.773V22.8594H216.242ZM223.312 31.5L222.945 30.2969H222.883C222.466 30.8229 222.047 31.1823 221.625 31.375C221.203 31.5625 220.661 31.6562 220 31.6562C219.151 31.6562 218.487 31.4271 218.008 30.9688C217.534 30.5104 217.297 29.862 217.297 29.0234C217.297 28.1328 217.628 27.4609 218.289 27.0078C218.951 26.5547 219.958 26.3073 221.312 26.2656L222.805 26.2188V25.7578C222.805 25.2057 222.674 24.7943 222.414 24.5234C222.159 24.2474 221.76 24.1094 221.219 24.1094C220.776 24.1094 220.352 24.1745 219.945 24.3047C219.539 24.4349 219.148 24.5885 218.773 24.7656L218.18 23.4531C218.648 23.2083 219.161 23.0234 219.719 22.8984C220.276 22.7682 220.802 22.7031 221.297 22.7031C222.396 22.7031 223.224 22.9427 223.781 23.4219C224.344 23.901 224.625 24.6536 224.625 25.6797V31.5H223.312ZM220.578 30.25C221.245 30.25 221.779 30.0651 222.18 29.6953C222.586 29.3203 222.789 28.7969 222.789 28.125V27.375L221.68 27.4219C220.815 27.4531 220.185 27.599 219.789 27.8594C219.398 28.1146 219.203 28.5078 219.203 29.0391C219.203 29.4245 219.318 29.724 219.547 29.9375C219.776 30.1458 220.12 30.25 220.578 30.25Z" fill="white"/>
</svg>
