<svg width="135" height="24" viewBox="0 0 135 24" fill="none" xmlns="http://www.w3.org/2000/svg">
<path d="M46.3672 10.0156C45.2943 10.0156 44.4505 10.3958 43.8359 11.1562C43.2214 11.9167 42.9141 12.9661 42.9141 14.3047C42.9141 15.7057 43.2083 16.7656 43.7969 17.4844C44.3906 18.2031 45.2474 18.5625 46.3672 18.5625C46.8516 18.5625 47.3203 18.5156 47.7734 18.4219C48.2266 18.3229 48.6979 18.1979 49.1875 18.0469V19.6484C48.2917 19.987 47.276 20.1562 46.1406 20.1562C44.4688 20.1562 43.1849 19.651 42.2891 18.6406C41.3932 17.625 40.9453 16.1745 40.9453 14.2891C40.9453 13.1016 41.1615 12.0625 41.5938 11.1719C42.0312 10.2812 42.6615 9.59896 43.4844 9.125C44.3073 8.65104 45.2734 8.41406 46.3828 8.41406C47.5495 8.41406 48.6276 8.65885 49.6172 9.14844L48.9453 10.7031C48.5599 10.5208 48.151 10.362 47.7188 10.2266C47.2917 10.0859 46.8411 10.0156 46.3672 10.0156ZM59.1172 15.6641C59.1172 17.0755 58.7552 18.1771 58.0312 18.9688C57.3073 19.7604 56.2995 20.1562 55.0078 20.1562C54.2005 20.1562 53.487 19.974 52.8672 19.6094C52.2474 19.2448 51.7708 18.7214 51.4375 18.0391C51.1042 17.3568 50.9375 16.5651 50.9375 15.6641C50.9375 14.263 51.2969 13.1693 52.0156 12.3828C52.7344 11.5964 53.7474 11.2031 55.0547 11.2031C56.3047 11.2031 57.2943 11.6068 58.0234 12.4141C58.7526 13.2161 59.1172 14.2995 59.1172 15.6641ZM52.8281 15.6641C52.8281 17.6589 53.5651 18.6562 55.0391 18.6562C56.4974 18.6562 57.2266 17.6589 57.2266 15.6641C57.2266 13.6901 56.4922 12.7031 55.0234 12.7031C54.2526 12.7031 53.6927 12.9583 53.3438 13.4688C53 13.9792 52.8281 14.7109 52.8281 15.6641ZM68.8984 15.6641C68.8984 17.0755 68.5365 18.1771 67.8125 18.9688C67.0885 19.7604 66.0807 20.1562 64.7891 20.1562C63.9818 20.1562 63.2682 19.974 62.6484 19.6094C62.0286 19.2448 61.5521 18.7214 61.2188 18.0391C60.8854 17.3568 60.7188 16.5651 60.7188 15.6641C60.7188 14.263 61.0781 13.1693 61.7969 12.3828C62.5156 11.5964 63.5286 11.2031 64.8359 11.2031C66.0859 11.2031 67.0755 11.6068 67.8047 12.4141C68.5339 13.2161 68.8984 14.2995 68.8984 15.6641ZM62.6094 15.6641C62.6094 17.6589 63.3464 18.6562 64.8203 18.6562C66.2786 18.6562 67.0078 17.6589 67.0078 15.6641C67.0078 13.6901 66.2734 12.7031 64.8047 12.7031C64.0339 12.7031 63.474 12.9583 63.125 13.4688C62.7812 13.9792 62.6094 14.7109 62.6094 15.6641ZM70.5156 14.8125C70.5156 12.8854 70.8411 11.4036 71.4922 10.3672C72.1484 9.33073 73.1901 8.66406 74.6172 8.36719C75.6953 8.14844 76.9375 7.9349 78.3438 7.72656L78.6016 9.34375C76.8932 9.60417 75.6432 9.80729 74.8516 9.95312C74.0339 10.1042 73.4427 10.4401 73.0781 10.9609C72.7188 11.4818 72.5104 12.2656 72.4531 13.3125H72.5703C72.8672 12.8802 73.2552 12.5469 73.7344 12.3125C74.2135 12.0729 74.7266 11.9531 75.2734 11.9531C76.3359 11.9531 77.1641 12.2891 77.7578 12.9609C78.3516 13.6328 78.6484 14.5755 78.6484 15.7891C78.6484 17.1797 78.2865 18.2552 77.5625 19.0156C76.8438 19.776 75.8464 20.1562 74.5703 20.1562C73.3047 20.1562 72.3125 19.6875 71.5938 18.75C70.875 17.8125 70.5156 16.5 70.5156 14.8125ZM74.6953 18.6562C76.0599 18.6562 76.7422 17.7604 76.7422 15.9688C76.7422 14.2396 76.125 13.375 74.8906 13.375C74.5521 13.375 74.224 13.4479 73.9062 13.5938C73.5885 13.7396 73.2943 13.9323 73.0234 14.1719C72.7578 14.4115 72.5521 14.6589 72.4062 14.9141C72.4062 16.1432 72.6016 17.0755 72.9922 17.7109C73.3828 18.3411 73.9505 18.6562 74.6953 18.6562ZM93.0078 18.5781H94.25V23.0391H92.5234V20H80.7656V11.3594H82.6016V18.5469H85.9688V11.3594H87.8047V18.5469H91.1641V11.3594H93.0078V18.5781ZM99.6016 20.1562C98.2578 20.1562 97.2057 19.7656 96.4453 18.9844C95.6901 18.1979 95.3125 17.1172 95.3125 15.7422C95.3125 14.3307 95.6641 13.2214 96.3672 12.4141C97.0703 11.6068 98.0365 11.2031 99.2656 11.2031C100.406 11.2031 101.307 11.5495 101.969 12.2422C102.63 12.9349 102.961 13.888 102.961 15.1016V16.0938H97.2031C97.2292 16.9323 97.4557 17.5781 97.8828 18.0312C98.3099 18.4792 98.9115 18.7031 99.6875 18.7031C100.198 18.7031 100.672 18.6562 101.109 18.5625C101.552 18.4635 102.026 18.3021 102.531 18.0781V19.5703C102.083 19.7839 101.63 19.9349 101.172 20.0234C100.714 20.112 100.19 20.1562 99.6016 20.1562ZM99.2656 12.5938C98.6823 12.5938 98.2135 12.7786 97.8594 13.1484C97.5104 13.5182 97.3021 14.0573 97.2344 14.7656H101.156C101.146 14.0521 100.974 13.513 100.641 13.1484C100.307 12.7786 99.849 12.5938 99.2656 12.5938ZM106.883 11.3594V14.8281H110.953V11.3594H112.789V20H110.953V16.2734H106.883V20H105.047V11.3594H106.883ZM117.18 11.3594V15.7891C117.18 16.3047 117.138 17.0625 117.055 18.0625L121.391 11.3594H123.633V20H121.867V15.6484C121.867 15.4089 121.88 15.0208 121.906 14.4844C121.938 13.9479 121.964 13.5573 121.984 13.3125L117.664 20H115.422V11.3594H117.18ZM127.133 20H125.078L127.484 16.4609C126.901 16.2943 126.443 15.9974 126.109 15.5703C125.776 15.138 125.609 14.6042 125.609 13.9688C125.609 13.151 125.901 12.513 126.484 12.0547C127.068 11.5911 127.865 11.3594 128.875 11.3594H132.812V20H130.969V16.6719H129.227L127.133 20ZM127.398 13.9844C127.398 14.4271 127.565 14.7604 127.898 14.9844C128.237 15.2031 128.69 15.3125 129.258 15.3125H130.969V12.75H128.969C128.469 12.75 128.081 12.8568 127.805 13.0703C127.534 13.2839 127.398 13.5885 127.398 13.9844Z" fill="white"/>
<path d="M4 4H20C21.1 4 22 4.9 22 6V18C22 19.1 21.1 20 20 20H4C2.9 20 2 19.1 2 18V6C2 4.9 2.9 4 4 4Z" stroke="white" stroke-width="2" stroke-linecap="round" stroke-linejoin="round"/>
<path d="M22 6L12 13L2 6" stroke="white" stroke-width="2" stroke-linecap="round" stroke-linejoin="round"/>
</svg>
