<svg width="298" height="51" viewBox="0 0 298 51" fill="none" xmlns="http://www.w3.org/2000/svg">
<g clip-path="url(#clip0_55_1978)">
<path d="M36 28.6C37.6569 28.6 39 27.2569 39 25.6C39 23.9432 37.6569 22.6 36 22.6C34.3431 22.6 33 23.9432 33 25.6C33 27.2569 34.3431 28.6 36 28.6Z" stroke="white" stroke-width="2" stroke-linecap="round" stroke-linejoin="round"/>
<path d="M43.4 28.6C43.2669 28.9017 43.2272 29.2362 43.286 29.5606C43.3448 29.885 43.4995 30.1844 43.73 30.42L43.79 30.48C43.976 30.6658 44.1235 30.8864 44.2241 31.1292C44.3248 31.372 44.3766 31.6322 44.3766 31.895C44.3766 32.1579 44.3248 32.4181 44.2241 32.6609C44.1235 32.9037 43.976 33.1243 43.79 33.31C43.6043 33.496 43.3837 33.6435 43.1409 33.7442C42.8981 33.8448 42.6378 33.8966 42.375 33.8966C42.1122 33.8966 41.8519 33.8448 41.6091 33.7442C41.3663 33.6435 41.1457 33.496 40.96 33.31L40.9 33.25C40.6643 33.0195 40.365 32.8649 40.0406 32.806C39.7162 32.7472 39.3816 32.7869 39.08 32.92C38.7842 33.0468 38.532 33.2573 38.3543 33.5256C38.1766 33.7939 38.0813 34.1082 38.08 34.43V34.6C38.08 35.1305 37.8693 35.6392 37.4942 36.0142C37.1191 36.3893 36.6104 36.6 36.08 36.6C35.5496 36.6 35.0409 36.3893 34.6658 36.0142C34.2907 35.6392 34.08 35.1305 34.08 34.6V34.51C34.0723 34.179 33.9651 33.858 33.7725 33.5887C33.5799 33.3194 33.3107 33.1143 33 33C32.6984 32.8669 32.3638 32.8272 32.0394 32.886C31.715 32.9449 31.4157 33.0995 31.18 33.33L31.12 33.39C30.9343 33.576 30.7137 33.7235 30.4709 33.8242C30.2281 33.9248 29.9678 33.9766 29.705 33.9766C29.4422 33.9766 29.1819 33.9248 28.9391 33.8242C28.6963 33.7235 28.4757 33.576 28.29 33.39C28.104 33.2043 27.9565 32.9837 27.8559 32.7409C27.7552 32.4981 27.7034 32.2379 27.7034 31.975C27.7034 31.7122 27.7552 31.452 27.8559 31.2092C27.9565 30.9664 28.104 30.7458 28.29 30.56L28.35 30.5C28.5805 30.2644 28.7352 29.965 28.794 29.6406C28.8528 29.3162 28.8131 28.9817 28.68 28.68C28.5532 28.3843 28.3428 28.132 28.0745 27.9543C27.8062 27.7767 27.4918 27.6813 27.17 27.68H27C26.4696 27.68 25.9609 27.4693 25.5858 27.0942C25.2107 26.7192 25 26.2105 25 25.68C25 25.1496 25.2107 24.6409 25.5858 24.2658C25.9609 23.8908 26.4696 23.68 27 23.68H27.09C27.421 23.6723 27.742 23.5652 28.0113 23.3725C28.2806 23.1799 28.4857 22.9108 28.6 22.6C28.7331 22.2984 28.7728 21.9638 28.714 21.6394C28.6552 21.3151 28.5005 21.0157 28.27 20.78L28.21 20.72C28.024 20.5343 27.8765 20.3137 27.7759 20.0709C27.6752 19.8281 27.6234 19.5679 27.6234 19.305C27.6234 19.0422 27.6752 18.782 27.7759 18.5392C27.8765 18.2964 28.024 18.0758 28.21 17.89C28.3957 17.7041 28.6163 17.5566 28.8591 17.4559C29.1019 17.3553 29.3622 17.3035 29.625 17.3035C29.8878 17.3035 30.1481 17.3553 30.3909 17.4559C30.6337 17.5566 30.8543 17.7041 31.04 17.89L31.1 17.95C31.3357 18.1806 31.635 18.3352 31.9594 18.394C32.2838 18.4529 32.6184 18.4132 32.92 18.28H33C33.2958 18.1533 33.548 17.9428 33.7257 17.6745C33.9034 17.4062 33.9987 17.0918 34 16.77V16.6C34 16.0696 34.2107 15.5609 34.5858 15.1858C34.9609 14.8108 35.4696 14.6 36 14.6C36.5304 14.6 37.0391 14.8108 37.4142 15.1858C37.7893 15.5609 38 16.0696 38 16.6V16.69C38.0013 17.0118 38.0966 17.3262 38.2743 17.5945C38.452 17.8628 38.7042 18.0733 39 18.2C39.3016 18.3332 39.6362 18.3729 39.9606 18.314C40.285 18.2552 40.5843 18.1006 40.82 17.87L40.88 17.81C41.0657 17.6241 41.2863 17.4766 41.5291 17.3759C41.7719 17.2753 42.0322 17.2235 42.295 17.2235C42.5578 17.2235 42.8181 17.2753 43.0609 17.3759C43.3037 17.4766 43.5243 17.6241 43.71 17.81C43.896 17.9958 44.0435 18.2164 44.1441 18.4592C44.2448 18.702 44.2966 18.9622 44.2966 19.225C44.2966 19.4879 44.2448 19.7481 44.1441 19.9909C44.0435 20.2337 43.896 20.4543 43.71 20.64L43.65 20.7C43.4195 20.9357 43.2648 21.2351 43.206 21.5594C43.1472 21.8838 43.1869 22.2184 43.32 22.52V22.6C43.4468 22.8958 43.6572 23.1481 43.9255 23.3257C44.1938 23.5034 44.5082 23.5988 44.83 23.6H45C45.5304 23.6 46.0391 23.8108 46.4142 24.1858C46.7893 24.5609 47 25.0696 47 25.6C47 26.1305 46.7893 26.6392 46.4142 27.0142C46.0391 27.3893 45.5304 27.6 45 27.6H44.91C44.5882 27.6013 44.2738 27.6967 44.0055 27.8743C43.7372 28.052 43.5268 28.3043 43.4 28.6V28.6Z" stroke="white" stroke-width="2" stroke-linecap="round" stroke-linejoin="round"/>
</g>
<path d="M74.5156 32.1H72.6406V26.9516H67.375V32.1H65.5078V20.6782H67.375V25.35H72.6406V20.6782H74.5156V32.1ZM82.7344 32.1L82.3672 30.8969H82.3047C81.888 31.423 81.4688 31.7823 81.0469 31.975C80.625 32.1625 80.0833 32.2563 79.4219 32.2563C78.5729 32.2563 77.9089 32.0271 77.4297 31.5688C76.9557 31.1105 76.7188 30.462 76.7188 29.6235C76.7188 28.7328 77.0495 28.061 77.7109 27.6078C78.3724 27.1547 79.3802 26.9073 80.7344 26.8657L82.2266 26.8188V26.3578C82.2266 25.8058 82.0964 25.3943 81.8359 25.1235C81.5807 24.8474 81.1823 24.7094 80.6406 24.7094C80.1979 24.7094 79.7734 24.7745 79.3672 24.9047C78.9609 25.0349 78.5703 25.1886 78.1953 25.3657L77.6016 24.0532C78.0703 23.8084 78.5833 23.6235 79.1406 23.4985C79.6979 23.3683 80.224 23.3032 80.7188 23.3032C81.8177 23.3032 82.6458 23.5427 83.2031 24.0219C83.7656 24.5011 84.0469 25.2537 84.0469 26.2797V32.1H82.7344ZM80 30.85C80.6667 30.85 81.2005 30.6651 81.6016 30.2953C82.0078 29.9203 82.2109 29.3969 82.2109 28.725V27.975L81.1016 28.0219C80.237 28.0532 79.6068 28.199 79.2109 28.4594C78.8203 28.7146 78.625 29.1078 78.625 29.6391C78.625 30.0245 78.7396 30.324 78.9688 30.5375C79.1979 30.7459 79.5417 30.85 80 30.85ZM90.0938 32.2563C88.7865 32.2563 87.7917 31.8761 87.1094 31.1157C86.4323 30.35 86.0938 29.2537 86.0938 27.8266C86.0938 26.3735 86.4479 25.2563 87.1562 24.475C87.8698 23.6938 88.8984 23.3032 90.2422 23.3032C91.1536 23.3032 91.974 23.4724 92.7031 23.811L92.1484 25.2875C91.3724 24.9855 90.7318 24.8344 90.2266 24.8344C88.7318 24.8344 87.9844 25.8266 87.9844 27.811C87.9844 28.7797 88.1693 29.5089 88.5391 29.9985C88.9141 30.4828 89.4609 30.725 90.1797 30.725C90.9974 30.725 91.7708 30.5219 92.5 30.1157V31.7172C92.1719 31.9099 91.8203 32.048 91.4453 32.1313C91.0755 32.2146 90.625 32.2563 90.0938 32.2563ZM101.023 23.4594V24.8969H98.2109V32.1H96.3672V24.8969H93.5547V23.4594H101.023ZM107.07 32.2563C105.977 32.2563 105.128 31.8631 104.523 31.0766H104.414C104.487 31.8058 104.523 32.2485 104.523 32.4047V35.9438H102.688V23.4594H104.172C104.214 23.6209 104.299 24.0063 104.43 24.6157H104.523C105.096 23.7407 105.956 23.3032 107.102 23.3032C108.18 23.3032 109.018 23.6938 109.617 24.475C110.221 25.2563 110.523 26.3526 110.523 27.7641C110.523 29.1756 110.216 30.2771 109.602 31.0688C108.992 31.8605 108.148 32.2563 107.07 32.2563ZM106.625 24.8032C105.896 24.8032 105.362 25.0167 105.023 25.4438C104.69 25.8709 104.523 26.5532 104.523 27.4907V27.7641C104.523 28.8162 104.69 29.5792 105.023 30.0532C105.357 30.5219 105.901 30.7563 106.656 30.7563C107.292 30.7563 107.781 30.4959 108.125 29.975C108.469 29.4542 108.641 28.712 108.641 27.7485C108.641 26.7797 108.469 26.048 108.125 25.5532C107.786 25.0532 107.286 24.8032 106.625 24.8032ZM120.32 27.7641C120.32 29.1756 119.958 30.2771 119.234 31.0688C118.51 31.8605 117.503 32.2563 116.211 32.2563C115.404 32.2563 114.69 32.074 114.07 31.7094C113.451 31.3448 112.974 30.8214 112.641 30.1391C112.307 29.4568 112.141 28.6651 112.141 27.7641C112.141 26.3631 112.5 25.2693 113.219 24.4828C113.938 23.6964 114.951 23.3032 116.258 23.3032C117.508 23.3032 118.497 23.7068 119.227 24.5141C119.956 25.3162 120.32 26.3995 120.32 27.7641ZM114.031 27.7641C114.031 29.7589 114.768 30.7563 116.242 30.7563C117.701 30.7563 118.43 29.7589 118.43 27.7641C118.43 25.7901 117.695 24.8032 116.227 24.8032C115.456 24.8032 114.896 25.0584 114.547 25.5688C114.203 26.0792 114.031 26.811 114.031 27.7641ZM124.195 23.4594V27.8891C124.195 28.4047 124.154 29.1625 124.07 30.1625L128.406 23.4594H130.648V32.1H128.883V27.7485C128.883 27.5089 128.896 27.1209 128.922 26.5844C128.953 26.048 128.979 25.6573 129 25.4125L124.68 32.1H122.438V23.4594H124.195ZM126.484 22.4047C125.38 22.4047 124.57 22.2068 124.055 21.811C123.544 21.4099 123.26 20.7433 123.203 19.811H124.867C124.898 20.186 124.969 20.4776 125.078 20.686C125.193 20.8943 125.354 21.0453 125.562 21.1391C125.776 21.2276 126.099 21.2719 126.531 21.2719C127.042 21.2719 127.43 21.1599 127.695 20.936C127.961 20.7068 128.122 20.3318 128.18 19.811H129.875C129.797 20.7068 129.482 21.3631 128.93 21.7797C128.378 22.1964 127.562 22.4047 126.484 22.4047ZM138.625 23.4594H140.641L137.07 27.6235L140.945 32.1H138.836L135.102 27.7172V32.1H133.266V23.4594H135.102V27.6547L138.625 23.4594ZM144.133 23.4594V27.8891C144.133 28.4047 144.091 29.1625 144.008 30.1625L148.344 23.4594H150.586V32.1H148.82V27.7485C148.82 27.5089 148.833 27.1209 148.859 26.5844C148.891 26.048 148.917 25.6573 148.938 25.4125L144.617 32.1H142.375V23.4594H144.133Z" fill="white"/>
<defs>
<clipPath id="clip0_55_1978">
<rect width="24" height="24" fill="white" transform="translate(24 13.6)"/>
</clipPath>
</defs>
</svg>
