<svg width="292" height="104" viewBox="0 0 292 104" fill="none" xmlns="http://www.w3.org/2000/svg">
<g filter="url(#filter0_d_55_1845)">
<rect x="6.5" y="4.5" width="277" height="89" rx="7.5" fill="#6556D9"/>
<path d="M54.6406 35.5H52.7656V25.6797H47.7266V35.5H45.8594V24.0781H54.6406V35.5ZM65.125 31.1641C65.125 32.5755 64.763 33.6771 64.0391 34.4688C63.3151 35.2604 62.3073 35.6562 61.0156 35.6562C60.2083 35.6562 59.4948 35.474 58.875 35.1094C58.2552 34.7448 57.7786 34.2214 57.4453 33.5391C57.112 32.8568 56.9453 32.0651 56.9453 31.1641C56.9453 29.763 57.3047 28.6693 58.0234 27.8828C58.7422 27.0964 59.7552 26.7031 61.0625 26.7031C62.3125 26.7031 63.3021 27.1068 64.0312 27.9141C64.7604 28.7161 65.125 29.7995 65.125 31.1641ZM58.8359 31.1641C58.8359 33.1589 59.5729 34.1562 61.0469 34.1562C62.5052 34.1562 63.2344 33.1589 63.2344 31.1641C63.2344 29.1901 62.5 28.2031 61.0312 28.2031C60.2604 28.2031 59.7005 28.4583 59.3516 28.9688C59.0078 29.4792 58.8359 30.2109 58.8359 31.1641ZM75.5312 38.5547H73.8203V35.5H67.8984V38.5547H66.2031V34.0781H66.9062C67.5208 33.1979 68.0078 32.1354 68.3672 30.8906C68.7318 29.6406 68.9479 28.2969 69.0156 26.8594H74.2656V34.0781H75.5312V38.5547ZM72.4609 34.0781V28.2656H70.6016C70.5026 29.3385 70.2943 30.3958 69.9766 31.4375C69.6641 32.4792 69.2812 33.3594 68.8281 34.0781H72.4609ZM80.9062 35.6562C79.5625 35.6562 78.5104 35.2656 77.75 34.4844C76.9948 33.6979 76.6172 32.6172 76.6172 31.2422C76.6172 29.8307 76.9688 28.7214 77.6719 27.9141C78.375 27.1068 79.3411 26.7031 80.5703 26.7031C81.7109 26.7031 82.612 27.0495 83.2734 27.7422C83.9349 28.4349 84.2656 29.388 84.2656 30.6016V31.5938H78.5078C78.5339 32.4323 78.7604 33.0781 79.1875 33.5312C79.6146 33.9792 80.2161 34.2031 80.9922 34.2031C81.5026 34.2031 81.9766 34.1562 82.4141 34.0625C82.8568 33.9635 83.3307 33.8021 83.8359 33.5781V35.0703C83.388 35.2839 82.9349 35.4349 82.4766 35.5234C82.0182 35.612 81.4948 35.6562 80.9062 35.6562ZM80.5703 28.0938C79.987 28.0938 79.5182 28.2786 79.1641 28.6484C78.8151 29.0182 78.6068 29.5573 78.5391 30.2656H82.4609C82.4505 29.5521 82.2786 29.013 81.9453 28.6484C81.612 28.2786 81.1536 28.0938 80.5703 28.0938ZM93.4531 35.5H91.6016V28.2969H89.2188C89.0729 30.151 88.875 31.599 88.625 32.6406C88.3802 33.6823 88.0573 34.4427 87.6562 34.9219C87.2604 35.401 86.7448 35.6406 86.1094 35.6406C85.7083 35.6406 85.3724 35.5833 85.1016 35.4688V34.0312C85.2943 34.1042 85.487 34.1406 85.6797 34.1406C86.2109 34.1406 86.6276 33.5443 86.9297 32.3516C87.237 31.1536 87.4766 29.3229 87.6484 26.8594H93.4531V35.5ZM97.8438 26.8594V31.2891C97.8438 31.8047 97.8021 32.5625 97.7188 33.5625L102.055 26.8594H104.297V35.5H102.531V31.1484C102.531 30.9089 102.544 30.5208 102.57 29.9844C102.602 29.4479 102.628 29.0573 102.648 28.8125L98.3281 35.5H96.0859V26.8594H97.8438ZM113.406 26.8594V28.2969H110.594V35.5H108.75V28.2969H105.938V26.8594H113.406ZM116.906 30.3125H119.07C121.482 30.3125 122.688 31.1458 122.688 32.8125C122.688 33.6927 122.38 34.362 121.766 34.8203C121.151 35.2734 120.253 35.5 119.07 35.5H115.07V26.8594H116.906V30.3125ZM120.844 32.8594C120.844 32.4271 120.68 32.125 120.352 31.9531C120.023 31.7812 119.56 31.6953 118.961 31.6953H116.906V34.1406H118.992C119.596 34.1406 120.055 34.0312 120.367 33.8125C120.685 33.5938 120.844 33.276 120.844 32.8594ZM128.211 35.6562C126.904 35.6562 125.909 35.276 125.227 34.5156C124.549 33.75 124.211 32.6536 124.211 31.2266C124.211 29.7734 124.565 28.6562 125.273 27.875C125.987 27.0938 127.016 26.7031 128.359 26.7031C129.271 26.7031 130.091 26.8724 130.82 27.2109L130.266 28.6875C129.49 28.3854 128.849 28.2344 128.344 28.2344C126.849 28.2344 126.102 29.2266 126.102 31.2109C126.102 32.1797 126.286 32.9089 126.656 33.3984C127.031 33.8828 127.578 34.125 128.297 34.125C129.115 34.125 129.888 33.9219 130.617 33.5156V35.1172C130.289 35.3099 129.938 35.4479 129.562 35.5312C129.193 35.6146 128.742 35.6562 128.211 35.6562ZM133.531 35.5H131.477L133.883 31.9609C133.299 31.7943 132.841 31.4974 132.508 31.0703C132.174 30.638 132.008 30.1042 132.008 29.4688C132.008 28.651 132.299 28.013 132.883 27.5547C133.466 27.0911 134.263 26.8594 135.273 26.8594H139.211V35.5H137.367V32.1719H135.625L133.531 35.5ZM133.797 29.4844C133.797 29.9271 133.964 30.2604 134.297 30.4844C134.635 30.7031 135.089 30.8125 135.656 30.8125H137.367V28.25H135.367C134.867 28.25 134.479 28.3568 134.203 28.5703C133.932 28.7839 133.797 29.0885 133.797 29.4844ZM149.477 35.6562C148.169 35.6562 147.174 35.276 146.492 34.5156C145.815 33.75 145.477 32.6536 145.477 31.2266C145.477 29.7734 145.831 28.6562 146.539 27.875C147.253 27.0938 148.281 26.7031 149.625 26.7031C150.536 26.7031 151.357 26.8724 152.086 27.2109L151.531 28.6875C150.755 28.3854 150.115 28.2344 149.609 28.2344C148.115 28.2344 147.367 29.2266 147.367 31.2109C147.367 32.1797 147.552 32.9089 147.922 33.3984C148.297 33.8828 148.844 34.125 149.562 34.125C150.38 34.125 151.154 33.9219 151.883 33.5156V35.1172C151.555 35.3099 151.203 35.4479 150.828 35.5312C150.458 35.6146 150.008 35.6562 149.477 35.6562ZM160.406 26.8594V28.2969H157.594V35.5H155.75V28.2969H152.938V26.8594H160.406ZM167.477 35.5L167.109 34.2969H167.047C166.63 34.8229 166.211 35.1823 165.789 35.375C165.367 35.5625 164.826 35.6562 164.164 35.6562C163.315 35.6562 162.651 35.4271 162.172 34.9688C161.698 34.5104 161.461 33.862 161.461 33.0234C161.461 32.1328 161.792 31.4609 162.453 31.0078C163.115 30.5547 164.122 30.3073 165.477 30.2656L166.969 30.2188V29.7578C166.969 29.2057 166.839 28.7943 166.578 28.5234C166.323 28.2474 165.924 28.1094 165.383 28.1094C164.94 28.1094 164.516 28.1745 164.109 28.3047C163.703 28.4349 163.312 28.5885 162.938 28.7656L162.344 27.4531C162.812 27.2083 163.326 27.0234 163.883 26.8984C164.44 26.7682 164.966 26.7031 165.461 26.7031C166.56 26.7031 167.388 26.9427 167.945 27.4219C168.508 27.901 168.789 28.6536 168.789 29.6797V35.5H167.477ZM164.742 34.25C165.409 34.25 165.943 34.0651 166.344 33.6953C166.75 33.3203 166.953 32.7969 166.953 32.125V31.375L165.844 31.4219C164.979 31.4531 164.349 31.599 163.953 31.8594C163.562 32.1146 163.367 32.5078 163.367 33.0391C163.367 33.4245 163.482 33.724 163.711 33.9375C163.94 34.1458 164.284 34.25 164.742 34.25ZM177.844 26.8594V28.2969H175.031V35.5H173.188V28.2969H170.375V26.8594H177.844ZM181.266 26.8594V31.2891C181.266 31.8047 181.224 32.5625 181.141 33.5625L185.477 26.8594H187.719V35.5H185.953V31.1484C185.953 30.9089 185.966 30.5208 185.992 29.9844C186.023 29.4479 186.049 29.0573 186.07 28.8125L181.75 35.5H179.508V26.8594H181.266ZM193.82 35.6562C192.513 35.6562 191.518 35.276 190.836 34.5156C190.159 33.75 189.82 32.6536 189.82 31.2266C189.82 29.7734 190.174 28.6562 190.883 27.875C191.596 27.0938 192.625 26.7031 193.969 26.7031C194.88 26.7031 195.701 26.8724 196.43 27.2109L195.875 28.6875C195.099 28.3854 194.458 28.2344 193.953 28.2344C192.458 28.2344 191.711 29.2266 191.711 31.2109C191.711 32.1797 191.896 32.9089 192.266 33.3984C192.641 33.8828 193.188 34.125 193.906 34.125C194.724 34.125 195.497 33.9219 196.227 33.5156V35.1172C195.898 35.3099 195.547 35.4479 195.172 35.5312C194.802 35.6146 194.352 35.6562 193.82 35.6562ZM204.75 26.8594V28.2969H201.938V35.5H200.094V28.2969H197.281V26.8594H204.75ZM208.172 26.8594V31.2891C208.172 31.8047 208.13 32.5625 208.047 33.5625L212.383 26.8594H214.625V35.5H212.859V31.1484C212.859 30.9089 212.872 30.5208 212.898 29.9844C212.93 29.4479 212.956 29.0573 212.977 28.8125L208.656 35.5H206.414V26.8594H208.172ZM222.602 26.8594H224.617L221.047 31.0234L224.922 35.5H222.812L219.078 31.1172V35.5H217.242V26.8594H219.078V31.0547L222.602 26.8594ZM234.016 31.1641C234.016 32.5755 233.654 33.6771 232.93 34.4688C232.206 35.2604 231.198 35.6562 229.906 35.6562C229.099 35.6562 228.385 35.474 227.766 35.1094C227.146 34.7448 226.669 34.2214 226.336 33.5391C226.003 32.8568 225.836 32.0651 225.836 31.1641C225.836 29.763 226.195 28.6693 226.914 27.8828C227.633 27.0964 228.646 26.7031 229.953 26.7031C231.203 26.7031 232.193 27.1068 232.922 27.9141C233.651 28.7161 234.016 29.7995 234.016 31.1641ZM227.727 31.1641C227.727 33.1589 228.464 34.1562 229.938 34.1562C231.396 34.1562 232.125 33.1589 232.125 31.1641C232.125 29.1901 231.391 28.2031 229.922 28.2031C229.151 28.2031 228.591 28.4583 228.242 28.9688C227.898 29.4792 227.727 30.2109 227.727 31.1641ZM237.891 26.8594V31.2891C237.891 31.8047 237.849 32.5625 237.766 33.5625L242.102 26.8594H244.344V35.5H242.578V31.1484C242.578 30.9089 242.591 30.5208 242.617 29.9844C242.648 29.4479 242.674 29.0573 242.695 28.8125L238.375 35.5H236.133V26.8594H237.891ZM240.18 25.8047C239.076 25.8047 238.266 25.6068 237.75 25.2109C237.24 24.8099 236.956 24.1432 236.898 23.2109H238.562C238.594 23.5859 238.664 23.8776 238.773 24.0859C238.888 24.2943 239.049 24.4453 239.258 24.5391C239.471 24.6276 239.794 24.6719 240.227 24.6719C240.737 24.6719 241.125 24.5599 241.391 24.3359C241.656 24.1068 241.818 23.7318 241.875 23.2109H243.57C243.492 24.1068 243.177 24.763 242.625 25.1797C242.073 25.5964 241.258 25.8047 240.18 25.8047Z" fill="white"/>
<rect x="195" y="47.5" width="32" height="32" rx="16" fill="white"/>
<path d="M211 56.0601C212.257 56.0601 213.279 57.0826 213.279 58.3397C213.279 59.5957 212.257 60.6183 211 60.6183C209.744 60.6183 208.721 59.5957 208.721 58.3397C208.721 57.0824 209.744 56.0601 211 56.0601ZM211 63.8435C214.036 63.8435 216.506 61.3749 216.506 58.3397C216.506 55.3029 214.037 52.8333 211 52.8333C207.964 52.8333 205.494 55.3032 205.494 58.3397C205.494 61.3749 207.964 63.8435 211 63.8435ZM213.227 68.3344C214.36 68.0765 215.441 67.6289 216.424 67.0107C216.786 66.7829 217.043 66.4206 217.138 66.0035C217.233 65.5864 217.158 65.1487 216.931 64.7867C216.818 64.6072 216.671 64.4517 216.498 64.3291C216.325 64.2065 216.13 64.1191 215.924 64.072C215.717 64.025 215.503 64.019 215.294 64.0547C215.085 64.0903 214.886 64.1667 214.706 64.2796C212.451 65.6977 209.548 65.6967 207.294 64.2796C207.114 64.1667 206.915 64.0902 206.706 64.0546C206.497 64.019 206.283 64.0249 206.077 64.072C205.87 64.1191 205.675 64.2064 205.502 64.3291C205.329 64.4517 205.182 64.6072 205.07 64.7867C204.842 65.1486 204.767 65.5863 204.862 66.0033C204.957 66.4204 205.213 66.7828 205.575 67.0107C206.559 67.6287 207.639 68.0762 208.772 68.3344L205.694 71.4128C205.391 71.7154 205.221 72.1258 205.221 72.5536C205.222 72.9814 205.392 73.3917 205.694 73.6942C205.997 73.9966 206.407 74.1665 206.835 74.1664C207.263 74.1664 207.673 73.9963 207.975 73.6938L210.999 70.6694L214.025 73.694C214.175 73.8439 214.352 73.9627 214.548 74.0438C214.743 74.1249 214.953 74.1666 215.165 74.1666C215.377 74.1666 215.586 74.1249 215.782 74.0438C215.977 73.9627 216.155 73.8439 216.305 73.694C216.455 73.5444 216.574 73.3667 216.655 73.171C216.736 72.9754 216.778 72.7656 216.778 72.5537C216.778 72.3418 216.736 72.132 216.655 71.9364C216.574 71.7407 216.455 71.563 216.305 71.4134L213.227 68.3344Z" fill="#6556D9"/>
<rect x="151" y="47.5" width="32" height="32" rx="16" fill="white"/>
<path fill-rule="evenodd" clip-rule="evenodd" d="M177.177 58.5231C177.326 58.0286 177.177 57.6652 176.471 57.6652H174.138C173.544 57.6652 173.271 57.9791 173.122 58.3254C173.122 58.3254 171.935 61.2182 170.254 63.0973C169.71 63.6413 169.463 63.8142 169.166 63.8142C169.018 63.8142 168.803 63.6413 168.803 63.1468V58.5231C168.803 57.9296 168.631 57.6652 168.136 57.6652H164.469C164.098 57.6652 163.875 57.9406 163.875 58.2017C163.875 58.7643 164.715 58.894 164.802 60.4764V63.9133C164.802 64.6669 164.666 64.8036 164.369 64.8036C163.578 64.8036 161.654 61.8975 160.512 58.5726C160.288 57.9263 160.064 57.6652 159.467 57.6652H157.134C156.467 57.6652 156.333 57.9791 156.333 58.3254C156.333 58.9435 157.125 62.0096 160.018 66.0645C161.946 68.8335 164.663 70.3348 167.136 70.3348C168.62 70.3348 168.803 70.0014 168.803 69.4271V67.3341C168.803 66.6673 168.943 66.5343 169.413 66.5343C169.76 66.5343 170.353 66.7073 171.738 68.0425C173.32 69.6247 173.581 70.3348 174.471 70.3348H176.805C177.472 70.3348 177.805 70.0014 177.613 69.3434C177.402 68.6876 176.647 67.7364 175.644 66.6085C175.1 65.9655 174.284 65.2732 174.037 64.9271C173.691 64.482 173.79 64.2843 174.037 63.8888C174.037 63.8888 176.881 59.8832 177.177 58.5233V58.5231Z" fill="#6556D9"/>
<rect x="107" y="47.5" width="32" height="32" rx="16" fill="white"/>
<path d="M130.842 60.0417C130.842 60.2167 130.842 60.3917 130.842 60.5417C130.842 65.7167 126.892 71.6917 119.692 71.6917C117.467 71.6917 115.417 71.0417 113.667 69.9417C113.967 69.9667 114.292 69.9917 114.592 69.9917C116.417 69.9917 118.117 69.3667 119.467 68.3167C117.742 68.2917 116.292 67.1417 115.817 65.5917C116.067 65.6417 116.292 65.6667 116.567 65.6667C116.917 65.6667 117.267 65.6167 117.592 65.5167C115.792 65.1667 114.442 63.5917 114.442 61.6917C114.442 61.6667 114.442 61.6667 114.442 61.6417C114.967 61.9417 115.567 62.1167 116.217 62.1417C115.167 61.4417 114.467 60.2417 114.467 58.8667C114.467 58.1417 114.667 57.4667 114.992 56.8917C116.917 59.2667 119.817 60.8167 123.067 60.9917C122.992 60.7167 122.967 60.3917 122.967 60.0917C122.967 57.9167 124.717 56.1667 126.892 56.1667C128.017 56.1667 129.042 56.6417 129.742 57.3917C130.642 57.2167 131.467 56.8917 132.242 56.4417C131.942 57.3667 131.317 58.1167 130.517 58.6167C131.317 58.5167 132.067 58.3167 132.767 57.9917C132.267 58.7917 131.617 59.4917 130.842 60.0417Z" fill="#6556D9"/>
<rect x="63" y="47.5" width="32" height="32" rx="16" fill="white"/>
<path d="M80.0683 74.1665V64.4354H83.3347L83.8237 60.643H80.0683V58.2217C80.0683 57.1237 80.3733 56.3754 81.9479 56.3754L83.9561 56.3744V52.9826C83.6086 52.9365 82.4166 52.8333 81.0298 52.8333C78.1344 52.8333 76.1521 54.6006 76.1521 57.8463V60.6431H72.8773V64.4355H76.152V74.1666L80.0683 74.1665Z" fill="#6556D9"/>
<rect x="6.5" y="4.5" width="277" height="89" rx="7.5" stroke="#F7F5F5"/>
</g>
<defs>
<filter id="filter0_d_55_1845" x="0" y="0" width="292" height="104" filterUnits="userSpaceOnUse" color-interpolation-filters="sRGB">
<feFlood flood-opacity="0" result="BackgroundImageFix"/>
<feColorMatrix in="SourceAlpha" type="matrix" values="0 0 0 0 0 0 0 0 0 0 0 0 0 0 0 0 0 0 127 0" result="hardAlpha"/>
<feOffset dx="1" dy="3"/>
<feGaussianBlur stdDeviation="3.5"/>
<feComposite in2="hardAlpha" operator="out"/>
<feColorMatrix type="matrix" values="0 0 0 0 0 0 0 0 0 0 0 0 0 0 0 0 0 0 0.1 0"/>
<feBlend mode="normal" in2="BackgroundImageFix" result="effect1_dropShadow_55_1845"/>
<feBlend mode="normal" in="SourceGraphic" in2="effect1_dropShadow_55_1845" result="shape"/>
</filter>
</defs>
</svg>
