<svg width="304" height="61" viewBox="0 0 304 61" fill="none" xmlns="http://www.w3.org/2000/svg">
<g filter="url(#filter0_d_55_1970)">
<rect width="298" height="49.6" transform="translate(0 4.60001)" fill="white"/>
<path d="M44.2395 31.1119H38.9132C38.493 31.1119 38.1523 31.4526 38.1523 31.8728V37.1991C38.1523 37.6193 38.493 37.96 38.9132 37.96H44.2395C44.6597 37.96 45.0004 37.6193 45.0004 37.1991V31.8728C45.0004 31.4526 44.6597 31.1119 44.2395 31.1119Z" stroke="#6556D9" stroke-width="2" stroke-linecap="round" stroke-linejoin="round"/>
<path d="M33.0871 31.112H27.7609C27.3407 31.112 27 31.4527 27 31.8729V37.1991C27 37.6194 27.3407 37.96 27.7609 37.96H33.0871C33.5074 37.96 33.848 37.6194 33.848 37.1991V31.8729C33.848 31.4527 33.5074 31.112 33.0871 31.112Z" stroke="#6556D9" stroke-width="2" stroke-linecap="round" stroke-linejoin="round"/>
<path d="M44.2395 20.84H38.9132C38.493 20.84 38.1523 21.1806 38.1523 21.6009V26.9271C38.1523 27.3473 38.493 27.688 38.9132 27.688H44.2395C44.6597 27.688 45.0004 27.3473 45.0004 26.9271V21.6009C45.0004 21.1806 44.6597 20.84 44.2395 20.84Z" stroke="#6556D9" stroke-width="2" stroke-linecap="round" stroke-linejoin="round"/>
<path d="M33.0871 20.84H27.7609C27.3407 20.84 27 21.1806 27 21.6009V26.9271C27 27.3473 27.3407 27.688 27.7609 27.688H33.0871C33.5074 27.688 33.848 27.3473 33.848 26.9271V21.6009C33.848 21.1806 33.5074 20.84 33.0871 20.84Z" stroke="#6556D9" stroke-width="2" stroke-linecap="round" stroke-linejoin="round"/>
<path d="M70.3672 25.9156C69.2943 25.9156 68.4505 26.2958 67.8359 27.0562C67.2214 27.8167 66.9141 28.8661 66.9141 30.2047C66.9141 31.6057 67.2083 32.6656 67.7969 33.3844C68.3906 34.1031 69.2474 34.4625 70.3672 34.4625C70.8516 34.4625 71.3203 34.4156 71.7734 34.3219C72.2266 34.2229 72.6979 34.0979 73.1875 33.9469V35.5484C72.2917 35.887 71.276 36.0562 70.1406 36.0562C68.4688 36.0562 67.1849 35.551 66.2891 34.5406C65.3932 33.525 64.9453 32.0745 64.9453 30.1891C64.9453 29.0016 65.1615 27.9625 65.5938 27.0719C66.0312 26.1812 66.6615 25.499 67.4844 25.025C68.3073 24.551 69.2734 24.3141 70.3828 24.3141C71.5495 24.3141 72.6276 24.5588 73.6172 25.0484L72.9453 26.6031C72.5599 26.4208 72.151 26.262 71.7188 26.1266C71.2917 25.9859 70.8411 25.9156 70.3672 25.9156ZM81.9453 27.2594V28.6969H79.1328V35.9H77.2891V28.6969H74.4766V27.2594H81.9453ZM89.0156 35.9L88.6484 34.6969H88.5859C88.1693 35.2229 87.75 35.5823 87.3281 35.775C86.9062 35.9625 86.3646 36.0562 85.7031 36.0562C84.8542 36.0562 84.1901 35.8271 83.7109 35.3687C83.237 34.9104 83 34.262 83 33.4234C83 32.5328 83.3307 31.8609 83.9922 31.4078C84.6536 30.9547 85.6615 30.7073 87.0156 30.6656L88.5078 30.6187V30.1578C88.5078 29.6057 88.3776 29.1943 88.1172 28.9234C87.862 28.6474 87.4635 28.5094 86.9219 28.5094C86.4792 28.5094 86.0547 28.5745 85.6484 28.7047C85.2422 28.8349 84.8516 28.9885 84.4766 29.1656L83.8828 27.8531C84.3516 27.6083 84.8646 27.4234 85.4219 27.2984C85.9792 27.1682 86.5052 27.1031 87 27.1031C88.099 27.1031 88.9271 27.3427 89.4844 27.8219C90.0469 28.301 90.3281 29.0536 90.3281 30.0797V35.9H89.0156ZM86.2812 34.65C86.9479 34.65 87.4818 34.4651 87.8828 34.0953C88.2891 33.7203 88.4922 33.1969 88.4922 32.525V31.775L87.3828 31.8219C86.5182 31.8531 85.888 31.999 85.4922 32.2594C85.1016 32.5146 84.9062 32.9078 84.9062 33.4391C84.9062 33.8245 85.0208 34.124 85.25 34.3375C85.4792 34.5458 85.8229 34.65 86.2812 34.65ZM99.3828 27.2594V28.6969H96.5703V35.9H94.7266V28.6969H91.9141V27.2594H99.3828ZM102.805 27.2594V31.6891C102.805 32.2047 102.763 32.9625 102.68 33.9625L107.016 27.2594H109.258V35.9H107.492V31.5484C107.492 31.3088 107.505 30.9208 107.531 30.3844C107.562 29.8479 107.589 29.4573 107.609 29.2125L103.289 35.9H101.047V27.2594H102.805ZM115.359 36.0562C114.052 36.0562 113.057 35.676 112.375 34.9156C111.698 34.15 111.359 33.0536 111.359 31.6266C111.359 30.1734 111.714 29.0562 112.422 28.275C113.135 27.4937 114.164 27.1031 115.508 27.1031C116.419 27.1031 117.24 27.2724 117.969 27.6109L117.414 29.0875C116.638 28.7854 115.997 28.6344 115.492 28.6344C113.997 28.6344 113.25 29.6266 113.25 31.6109C113.25 32.5797 113.435 33.3088 113.805 33.7984C114.18 34.2828 114.727 34.525 115.445 34.525C116.263 34.525 117.036 34.3219 117.766 33.9156V35.5172C117.438 35.7099 117.086 35.8479 116.711 35.9312C116.341 36.0146 115.891 36.0562 115.359 36.0562ZM126.289 27.2594V28.6969H123.477V35.9H121.633V28.6969H118.82V27.2594H126.289ZM129.711 27.2594V31.6891C129.711 32.2047 129.669 32.9625 129.586 33.9625L133.922 27.2594H136.164V35.9H134.398V31.5484C134.398 31.3088 134.411 30.9208 134.438 30.3844C134.469 29.8479 134.495 29.4573 134.516 29.2125L130.195 35.9H127.953V27.2594H129.711ZM144.141 27.2594H146.156L142.586 31.4234L146.461 35.9H144.352L140.617 31.5172V35.9H138.781V27.2594H140.617V31.4547L144.141 27.2594ZM153.297 35.9L152.93 34.6969H152.867C152.451 35.2229 152.031 35.5823 151.609 35.775C151.188 35.9625 150.646 36.0562 149.984 36.0562C149.135 36.0562 148.471 35.8271 147.992 35.3687C147.518 34.9104 147.281 34.262 147.281 33.4234C147.281 32.5328 147.612 31.8609 148.273 31.4078C148.935 30.9547 149.943 30.7073 151.297 30.6656L152.789 30.6187V30.1578C152.789 29.6057 152.659 29.1943 152.398 28.9234C152.143 28.6474 151.745 28.5094 151.203 28.5094C150.76 28.5094 150.336 28.5745 149.93 28.7047C149.523 28.8349 149.133 28.9885 148.758 29.1656L148.164 27.8531C148.633 27.6083 149.146 27.4234 149.703 27.2984C150.26 27.1682 150.786 27.1031 151.281 27.1031C152.38 27.1031 153.208 27.3427 153.766 27.8219C154.328 28.301 154.609 29.0536 154.609 30.0797V35.9H153.297ZM150.562 34.65C151.229 34.65 151.763 34.4651 152.164 34.0953C152.57 33.7203 152.773 33.1969 152.773 32.525V31.775L151.664 31.8219C150.799 31.8531 150.169 31.999 149.773 32.2594C149.383 32.5146 149.188 32.9078 149.188 33.4391C149.188 33.8245 149.302 34.124 149.531 34.3375C149.76 34.5458 150.104 34.65 150.562 34.65Z" fill="#6556D9"/>
</g>
<defs>
<filter id="filter0_d_55_1970" x="-4" y="0.600006" width="308" height="59.6" filterUnits="userSpaceOnUse" color-interpolation-filters="sRGB">
<feFlood flood-opacity="0" result="BackgroundImageFix"/>
<feColorMatrix in="SourceAlpha" type="matrix" values="0 0 0 0 0 0 0 0 0 0 0 0 0 0 0 0 0 0 127 0" result="hardAlpha"/>
<feOffset dx="1" dy="1"/>
<feGaussianBlur stdDeviation="2.5"/>
<feComposite in2="hardAlpha" operator="out"/>
<feColorMatrix type="matrix" values="0 0 0 0 0 0 0 0 0 0 0 0 0 0 0 0 0 0 0.07 0"/>
<feBlend mode="normal" in2="BackgroundImageFix" result="effect1_dropShadow_55_1970"/>
<feBlend mode="normal" in="SourceGraphic" in2="effect1_dropShadow_55_1970" result="shape"/>
</filter>
</defs>
</svg>
