<svg width="168" height="24" viewBox="0 0 168 24" fill="none" xmlns="http://www.w3.org/2000/svg">
<path d="M5.45312 17H3.58594V7.17969H0.226562V5.57812H8.8125V7.17969H5.45312V17ZM14.1484 17.1562C12.8047 17.1562 11.7526 16.7656 10.9922 15.9844C10.237 15.1979 9.85938 14.1172 9.85938 12.7422C9.85938 11.3307 10.2109 10.2214 10.9141 9.41406C11.6172 8.60677 12.5833 8.20312 13.8125 8.20312C14.9531 8.20312 15.8542 8.54948 16.5156 9.24219C17.1771 9.9349 17.5078 10.888 17.5078 12.1016V13.0938H11.75C11.776 13.9323 12.0026 14.5781 12.4297 15.0312C12.8568 15.4792 13.4583 15.7031 14.2344 15.7031C14.7448 15.7031 15.2188 15.6562 15.6562 15.5625C16.099 15.4635 16.5729 15.3021 17.0781 15.0781V16.5703C16.6302 16.7839 16.1771 16.9349 15.7188 17.0234C15.2604 17.112 14.737 17.1562 14.1484 17.1562ZM13.8125 9.59375C13.2292 9.59375 12.7604 9.77865 12.4062 10.1484C12.0573 10.5182 11.849 11.0573 11.7812 11.7656H15.7031C15.6927 11.0521 15.5208 10.513 15.1875 10.1484C14.8542 9.77865 14.3958 9.59375 13.8125 9.59375ZM24.5547 15.2422L24.6562 14.8672C24.8698 14.0911 25.0547 13.4948 25.2109 13.0781L27.1484 8.35938H29.5938V17H27.8984V10.0234L27.7578 10.4922C27.5234 11.3307 27.3255 11.9479 27.1641 12.3438L25.2734 17H23.8828L21.9922 12.3125C21.7318 11.6354 21.4922 10.8724 21.2734 10.0234V17H19.5938V8.35938H22.0234L23.8984 12.9375C24.0651 13.3594 24.2839 14.1276 24.5547 15.2422ZM34.0547 8.35938V11.8281H38.125V8.35938H39.9609V17H38.125V13.2734H34.0547V17H32.2188V8.35938H34.0547ZM48 17L47.6328 15.7969H47.5703C47.1536 16.3229 46.7344 16.6823 46.3125 16.875C45.8906 17.0625 45.349 17.1562 44.6875 17.1562C43.8385 17.1562 43.1745 16.9271 42.6953 16.4688C42.2214 16.0104 41.9844 15.362 41.9844 14.5234C41.9844 13.6328 42.3151 12.9609 42.9766 12.5078C43.638 12.0547 44.6458 11.8073 46 11.7656L47.4922 11.7188V11.2578C47.4922 10.7057 47.362 10.2943 47.1016 10.0234C46.8464 9.7474 46.4479 9.60938 45.9062 9.60938C45.4635 9.60938 45.0391 9.67448 44.6328 9.80469C44.2266 9.9349 43.8359 10.0885 43.4609 10.2656L42.8672 8.95312C43.3359 8.70833 43.849 8.52344 44.4062 8.39844C44.9635 8.26823 45.4896 8.20312 45.9844 8.20312C47.0833 8.20312 47.9115 8.44271 48.4688 8.92188C49.0312 9.40104 49.3125 10.1536 49.3125 11.1797V17H48ZM45.2656 15.75C45.9323 15.75 46.4661 15.5651 46.8672 15.1953C47.2734 14.8203 47.4766 14.2969 47.4766 13.625V12.875L46.3672 12.9219C45.5026 12.9531 44.8724 13.099 44.4766 13.3594C44.0859 13.6146 43.8906 14.0078 43.8906 14.5391C43.8906 14.9245 44.0052 15.224 44.2344 15.4375C44.4635 15.6458 44.8073 15.75 45.2656 15.75ZM52.7578 17H50.7031L53.1094 13.4609C52.526 13.2943 52.0677 12.9974 51.7344 12.5703C51.401 12.138 51.2344 11.6042 51.2344 10.9688C51.2344 10.151 51.526 9.51302 52.1094 9.05469C52.6927 8.59115 53.4896 8.35938 54.5 8.35938H58.4375V17H56.5938V13.6719H54.8516L52.7578 17ZM53.0234 10.9844C53.0234 11.4271 53.1901 11.7604 53.5234 11.9844C53.862 12.2031 54.3151 12.3125 54.8828 12.3125H56.5938V9.75H54.5938C54.0938 9.75 53.7057 9.85677 53.4297 10.0703C53.1589 10.2839 53.0234 10.5885 53.0234 10.9844ZM71.7109 8.35938V9.79688H68.8984V17H67.0547V9.79688H64.2422V8.35938H71.7109ZM77.1484 17.1562C75.8047 17.1562 74.7526 16.7656 73.9922 15.9844C73.237 15.1979 72.8594 14.1172 72.8594 12.7422C72.8594 11.3307 73.2109 10.2214 73.9141 9.41406C74.6172 8.60677 75.5833 8.20312 76.8125 8.20312C77.9531 8.20312 78.8542 8.54948 79.5156 9.24219C80.1771 9.9349 80.5078 10.888 80.5078 12.1016V13.0938H74.75C74.776 13.9323 75.0026 14.5781 75.4297 15.0312C75.8568 15.4792 76.4583 15.7031 77.2344 15.7031C77.7448 15.7031 78.2188 15.6562 78.6562 15.5625C79.099 15.4635 79.5729 15.3021 80.0781 15.0781V16.5703C79.6302 16.7839 79.1771 16.9349 78.7188 17.0234C78.2604 17.112 77.737 17.1562 77.1484 17.1562ZM76.8125 9.59375C76.2292 9.59375 75.7604 9.77865 75.4062 10.1484C75.0573 10.5182 74.849 11.0573 74.7812 11.7656H78.7031C78.6927 11.0521 78.5208 10.513 78.1875 10.1484C77.8542 9.77865 77.3958 9.59375 76.8125 9.59375ZM87.5547 15.2422L87.6562 14.8672C87.8698 14.0911 88.0547 13.4948 88.2109 13.0781L90.1484 8.35938H92.5938V17H90.8984V10.0234L90.7578 10.4922C90.5234 11.3307 90.3255 11.9479 90.1641 12.3438L88.2734 17H86.8828L84.9922 12.3125C84.7318 11.6354 84.4922 10.8724 84.2734 10.0234V17H82.5938V8.35938H85.0234L86.8984 12.9375C87.0651 13.3594 87.2839 14.1276 87.5547 15.2422ZM100.625 17L100.258 15.7969H100.195C99.7786 16.3229 99.3594 16.6823 98.9375 16.875C98.5156 17.0625 97.974 17.1562 97.3125 17.1562C96.4635 17.1562 95.7995 16.9271 95.3203 16.4688C94.8464 16.0104 94.6094 15.362 94.6094 14.5234C94.6094 13.6328 94.9401 12.9609 95.6016 12.5078C96.263 12.0547 97.2708 11.8073 98.625 11.7656L100.117 11.7188V11.2578C100.117 10.7057 99.987 10.2943 99.7266 10.0234C99.4714 9.7474 99.0729 9.60938 98.5312 9.60938C98.0885 9.60938 97.6641 9.67448 97.2578 9.80469C96.8516 9.9349 96.4609 10.0885 96.0859 10.2656L95.4922 8.95312C95.9609 8.70833 96.474 8.52344 97.0312 8.39844C97.5885 8.26823 98.1146 8.20312 98.6094 8.20312C99.7083 8.20312 100.536 8.44271 101.094 8.92188C101.656 9.40104 101.938 10.1536 101.938 11.1797V17H100.625ZM97.8906 15.75C98.5573 15.75 99.0911 15.5651 99.4922 15.1953C99.8984 14.8203 100.102 14.2969 100.102 13.625V12.875L98.9922 12.9219C98.1276 12.9531 97.4974 13.099 97.1016 13.3594C96.7109 13.6146 96.5156 14.0078 96.5156 14.5391C96.5156 14.9245 96.6302 15.224 96.8594 15.4375C97.0885 15.6458 97.4323 15.75 97.8906 15.75Z" fill="#FAFBFC"/>
<path d="M168 12C168 18.6274 162.627 24 156 24L132 24C125.373 24 120 18.6274 120 12C120 5.37258 125.373 -3.72661e-06 132 -3.14722e-06L156 -1.04907e-06C162.627 -4.69686e-07 168 5.37258 168 12Z" fill="#D4D4DE"/>
<circle cx="132" cy="12" r="8" transform="rotate(-180 132 12)" fill="white"/>
</svg>
