<svg width="389" height="255" viewBox="0 0 389 255" fill="none" xmlns="http://www.w3.org/2000/svg">
<g filter="url(#filter0_d_55_1854)">
<g filter="url(#filter1_d_55_1854)">
<rect x="20" y="5" width="108.333" height="215" rx="8" fill="white"/>
<path d="M55.8654 56.8012C73.3721 46.6937 95.7579 52.692 105.865 70.1987C115.973 87.7054 109.975 110.091 92.4679 120.199C74.9612 130.306 52.5754 124.308 42.4679 106.801C32.3604 89.2945 38.3587 66.9088 55.8654 56.8012ZM88.9589 114.121C103.109 105.951 107.957 87.8578 99.7875 73.7078C91.618 59.5577 73.5244 54.7096 59.3744 62.8791C45.2244 71.0486 40.3763 89.1422 48.5458 103.292C56.7153 117.442 74.8089 122.29 88.9589 114.121Z" fill="#F53126" fill-opacity="0.25"/>
<path d="M74.1603 55.4065C74.1599 53.4685 75.7342 51.8797 77.6634 52.0648C82.1385 52.4943 86.5067 53.7457 90.5451 55.7663C95.6321 58.3116 100.056 62.0075 103.465 66.5608C106.875 71.114 109.176 76.3992 110.187 81.9969C111.197 87.5947 110.89 93.351 109.287 98.809C107.685 104.267 104.833 109.276 100.957 113.44C97.0816 117.603 92.2887 120.806 86.9592 122.794C81.6296 124.782 75.9101 125.501 70.2544 124.893C65.7645 124.41 61.413 123.102 57.4157 121.045C55.6925 120.158 55.2267 117.97 56.2745 116.34C57.3223 114.709 59.4863 114.258 61.2292 115.106C64.2931 116.596 67.5996 117.549 71.0045 117.915C75.5758 118.406 80.1987 117.826 84.5063 116.219C88.814 114.612 92.6879 112.023 95.8206 108.658C98.9533 105.293 101.259 101.244 102.553 96.8324C103.848 92.4209 104.097 87.7683 103.28 83.2438C102.464 78.7194 100.603 74.4475 97.8477 70.7673C95.092 67.0872 91.5164 64.0999 87.4047 62.0426C84.3422 60.5102 81.045 59.5252 77.6619 59.1227C75.7374 58.8938 74.1606 57.3445 74.1603 55.4065Z" fill="#F53126"/>
<path d="M62.2057 88.3672C63.3568 88.3672 64.2682 88.6719 64.9401 89.2812C65.612 89.8906 65.9479 90.7214 65.9479 91.7734C65.9479 92.9922 65.5651 93.9453 64.7995 94.6328C64.0391 95.3151 62.9557 95.6562 61.5495 95.6562C60.2734 95.6562 59.2708 95.4505 58.5417 95.0391V93.375C58.9635 93.6146 59.4479 93.7995 59.9948 93.9297C60.5417 94.0599 61.0495 94.125 61.5182 94.125C62.3463 94.125 62.9766 93.9401 63.4088 93.5703C63.8411 93.2005 64.0573 92.6589 64.0573 91.9453C64.0573 90.5807 63.1875 89.8984 61.4479 89.8984C61.2031 89.8984 60.901 89.9245 60.5417 89.9766C60.1823 90.0234 59.8672 90.0781 59.5963 90.1406L58.776 89.6562L59.2135 84.0781H65.151V85.7109H60.8307L60.5729 88.5391C60.7552 88.5078 60.9766 88.4714 61.237 88.4297C61.5026 88.388 61.8255 88.3672 62.2057 88.3672ZM71.3307 83.9297C72.4141 83.9297 73.2708 84.1797 73.901 84.6797C74.5312 85.1745 74.8463 85.8385 74.8463 86.6719C74.8463 87.8438 74.1432 88.776 72.737 89.4688C73.6328 89.9167 74.2682 90.388 74.6432 90.8828C75.0234 91.3776 75.2135 91.9297 75.2135 92.5391C75.2135 93.4818 74.8672 94.237 74.1745 94.8047C73.4818 95.3724 72.5443 95.6562 71.362 95.6562C70.1224 95.6562 69.1614 95.3906 68.4792 94.8594C67.7969 94.3281 67.4557 93.5755 67.4557 92.6016C67.4557 91.9661 67.6328 91.3958 67.987 90.8906C68.3463 90.3802 68.9323 89.9271 69.7448 89.5312C69.0469 89.1146 68.5495 88.6745 68.2526 88.2109C67.9557 87.7474 67.8073 87.2266 67.8073 86.6484C67.8073 85.8203 68.1328 85.1615 68.7838 84.6719C69.4349 84.1771 70.2838 83.9297 71.3307 83.9297ZM69.2135 92.5391C69.2135 93.0807 69.4036 93.5026 69.7838 93.8047C70.1641 94.1016 70.6797 94.25 71.3307 94.25C72.0026 94.25 72.5234 94.0964 72.8932 93.7891C73.2682 93.4766 73.4557 93.0547 73.4557 92.5234C73.4557 92.1016 73.2838 91.7161 72.9401 91.3672C72.5963 91.0182 72.0755 90.6953 71.3776 90.3984L71.151 90.2969C70.4635 90.599 69.9687 90.9323 69.6667 91.2969C69.3646 91.6562 69.2135 92.0703 69.2135 92.5391ZM71.3151 85.3438C70.7943 85.3438 70.375 85.474 70.0573 85.7344C69.7396 85.9896 69.5807 86.3385 69.5807 86.7812C69.5807 87.0521 69.638 87.2943 69.7526 87.5078C69.8672 87.7214 70.0338 87.9167 70.2526 88.0938C70.4713 88.2656 70.8411 88.474 71.362 88.7188C71.987 88.4427 72.4271 88.1536 72.6823 87.8516C72.9427 87.5443 73.0729 87.1875 73.0729 86.7812C73.0729 86.3385 72.9114 85.9896 72.5885 85.7344C72.2708 85.474 71.8463 85.3438 71.3151 85.3438ZM78.0885 87.5C78.0885 88.276 78.1641 88.8542 78.3151 89.2344C78.4661 89.6146 78.7135 89.8047 79.0573 89.8047C79.7448 89.8047 80.0885 89.0365 80.0885 87.5C80.0885 85.9635 79.7448 85.1953 79.0573 85.1953C78.7135 85.1953 78.4661 85.3854 78.3151 85.7656C78.1641 86.1458 78.0885 86.724 78.0885 87.5ZM81.6042 87.4844C81.6042 88.6823 81.388 89.5833 80.9557 90.1875C80.5286 90.7865 79.8958 91.0859 79.0573 91.0859C78.2656 91.0859 77.651 90.776 77.2135 90.1562C76.7812 89.5312 76.5651 88.6406 76.5651 87.4844C76.5651 85.1042 77.3958 83.9141 79.0573 83.9141C79.875 83.9141 80.5026 84.224 80.9401 84.8438C81.3828 85.4583 81.6042 86.3385 81.6042 87.4844ZM85.526 92.0625C85.526 92.8385 85.6016 93.4193 85.7526 93.8047C85.9088 94.1901 86.1588 94.3828 86.5026 94.3828C87.1849 94.3828 87.526 93.6094 87.526 92.0625C87.526 90.5365 87.1849 89.7734 86.5026 89.7734C86.1588 89.7734 85.9088 89.9609 85.7526 90.3359C85.6016 90.7109 85.526 91.2865 85.526 92.0625ZM89.0417 92.0625C89.0417 93.2604 88.8255 94.1589 88.3932 94.7578C87.9609 95.3568 87.3307 95.6562 86.5026 95.6562C85.7109 95.6562 85.0963 95.349 84.6588 94.7344C84.2213 94.1146 84.0026 93.224 84.0026 92.0625C84.0026 89.6823 84.8359 88.4922 86.5026 88.4922C87.3047 88.4922 87.9271 88.7995 88.3698 89.4141C88.8177 90.0286 89.0417 90.9115 89.0417 92.0625ZM86.7213 84.0781L80.3854 95.5H78.8698L85.2057 84.0781H86.7213Z" fill="#F53126"/>
<path d="M65.3854 150.516C64.3125 150.516 63.4687 150.896 62.8542 151.656C62.2396 152.417 61.9323 153.466 61.9323 154.805C61.9323 156.206 62.2266 157.266 62.8151 157.984C63.4088 158.703 64.2656 159.062 65.3854 159.062C65.8698 159.062 66.3385 159.016 66.7917 158.922C67.2448 158.823 67.7161 158.698 68.2057 158.547V160.148C67.3099 160.487 66.2943 160.656 65.1588 160.656C63.487 160.656 62.2031 160.151 61.3073 159.141C60.4114 158.125 59.9635 156.674 59.9635 154.789C59.9635 153.602 60.1797 152.562 60.612 151.672C61.0495 150.781 61.6797 150.099 62.5026 149.625C63.3255 149.151 64.2917 148.914 65.401 148.914C66.5677 148.914 67.6458 149.159 68.6354 149.648L67.9635 151.203C67.5781 151.021 67.1693 150.862 66.737 150.727C66.3099 150.586 65.8594 150.516 65.3854 150.516ZM78.1354 156.164C78.1354 157.576 77.7734 158.677 77.0495 159.469C76.3255 160.26 75.3177 160.656 74.026 160.656C73.2187 160.656 72.5052 160.474 71.8854 160.109C71.2656 159.745 70.7891 159.221 70.4557 158.539C70.1224 157.857 69.9557 157.065 69.9557 156.164C69.9557 154.763 70.3151 153.669 71.0338 152.883C71.7526 152.096 72.7656 151.703 74.0729 151.703C75.3229 151.703 76.3125 152.107 77.0417 152.914C77.7708 153.716 78.1354 154.799 78.1354 156.164ZM71.8463 156.164C71.8463 158.159 72.5833 159.156 74.0573 159.156C75.5156 159.156 76.2448 158.159 76.2448 156.164C76.2448 154.19 75.5104 153.203 74.0417 153.203C73.2708 153.203 72.7109 153.458 72.362 153.969C72.0182 154.479 71.8463 155.211 71.8463 156.164ZM82.0885 151.859V155.328H86.1588V151.859H87.9948V160.5H86.1588V156.773H82.0885V160.5H80.2526V151.859H82.0885Z" fill="#2C3339"/>
<path d="M64.61 178.15C65.4733 178.15 66.1569 178.379 66.6608 178.836C67.1647 179.293 67.4167 179.916 67.4167 180.705C67.4167 181.619 67.1295 182.334 66.5553 182.85C65.985 183.361 65.1725 183.617 64.1178 183.617C63.1608 183.617 62.4088 183.463 61.862 183.154V181.906C62.1784 182.086 62.5417 182.225 62.9518 182.322C63.362 182.42 63.7428 182.469 64.0944 182.469C64.7155 182.469 65.1881 182.33 65.5124 182.053C65.8366 181.775 65.9987 181.369 65.9987 180.834C65.9987 179.811 65.3463 179.299 64.0417 179.299C63.8581 179.299 63.6315 179.318 63.362 179.357C63.0924 179.393 62.8561 179.434 62.653 179.48L62.0378 179.117L62.3659 174.934H66.819V176.158H63.5788L63.3854 178.279C63.5221 178.256 63.6881 178.229 63.8835 178.197C64.0827 178.166 64.3249 178.15 64.61 178.15ZM72.6139 174.934L69.4264 183.5H68.1256L71.319 174.934H72.6139ZM76.1413 174.822C76.9538 174.822 77.5963 175.01 78.069 175.385C78.5417 175.756 78.778 176.254 78.778 176.879C78.778 177.758 78.2506 178.457 77.196 178.977C77.8678 179.312 78.3444 179.666 78.6256 180.037C78.9108 180.408 79.0534 180.822 79.0534 181.279C79.0534 181.986 78.7936 182.553 78.2741 182.979C77.7545 183.404 77.0514 183.617 76.1647 183.617C75.235 183.617 74.5143 183.418 74.0026 183.02C73.4909 182.621 73.235 182.057 73.235 181.326C73.235 180.85 73.3678 180.422 73.6335 180.043C73.903 179.66 74.3424 179.32 74.9518 179.023C74.4284 178.711 74.0553 178.381 73.8327 178.033C73.61 177.686 73.4987 177.295 73.4987 176.861C73.4987 176.24 73.7428 175.746 74.2311 175.379C74.7194 175.008 75.3561 174.822 76.1413 174.822ZM74.5534 181.279C74.5534 181.686 74.696 182.002 74.9811 182.229C75.2663 182.451 75.653 182.562 76.1413 182.562C76.6452 182.562 77.0358 182.447 77.3131 182.217C77.5944 181.982 77.735 181.666 77.735 181.268C77.735 180.951 77.6061 180.662 77.3483 180.4C77.0905 180.139 76.6999 179.896 76.1764 179.674L76.0065 179.598C75.4909 179.824 75.1198 180.074 74.8932 180.348C74.6667 180.617 74.5534 180.928 74.5534 181.279ZM76.1295 175.883C75.7389 175.883 75.4245 175.98 75.1862 176.176C74.9479 176.367 74.8288 176.629 74.8288 176.961C74.8288 177.164 74.8717 177.346 74.9577 177.506C75.0436 177.666 75.1686 177.812 75.3327 177.945C75.4967 178.074 75.7741 178.23 76.1647 178.414C76.6335 178.207 76.9635 177.99 77.1549 177.764C77.3503 177.533 77.4479 177.266 77.4479 176.961C77.4479 176.629 77.3268 176.367 77.0846 176.176C76.8463 175.98 76.528 175.883 76.1295 175.883ZM81.7721 177.02V179.387C81.7721 180.051 82.1159 180.383 82.8034 180.383C83.1354 180.383 83.4596 180.338 83.776 180.248C84.0924 180.154 84.4323 180.006 84.7956 179.803V177.02H86.1725V183.5H84.7956V180.752C84.4167 180.986 84.0495 181.16 83.694 181.273C83.3424 181.383 82.9577 181.438 82.5397 181.438C81.8639 181.438 81.3366 181.264 80.9577 180.916C80.5788 180.564 80.3893 180.074 80.3893 179.445V177.02H81.7721Z" fill="#898989"/>
<rect x="20.5" y="5.5" width="107.333" height="214" rx="7.5" stroke="#F7F5F5"/>
</g>
<g filter="url(#filter2_d_55_1854)">
<rect x="140.333" y="5" width="108.333" height="215" rx="8" fill="white"/>
<path d="M176.199 56.8012C193.705 46.6937 216.091 52.692 226.199 70.1987C236.306 87.7054 230.308 110.091 212.801 120.199C195.295 130.306 172.909 124.308 162.801 106.801C152.694 89.2945 158.692 66.9088 176.199 56.8012ZM209.292 114.121C223.442 105.951 228.29 87.8578 220.121 73.7078C211.951 59.5577 193.858 54.7096 179.708 62.8791C165.558 71.0486 160.71 89.1422 168.879 103.292C177.049 117.442 195.142 122.29 209.292 114.121Z" fill="#1CC336" fill-opacity="0.25"/>
<path d="M194.494 55.4065C194.493 53.4685 196.068 51.8797 197.997 52.0648C205.556 52.7901 212.734 55.8534 218.51 60.8723C225.171 66.6616 229.517 74.663 230.746 83.4028C231.975 92.1425 230.005 101.032 225.198 108.434C220.391 115.836 213.072 121.252 204.588 123.685C196.104 126.117 187.027 125.403 179.029 121.672C171.03 117.941 164.649 111.446 161.06 103.383C157.471 95.3201 156.917 86.2317 159.499 77.792C161.737 70.4755 166.202 64.0736 172.228 59.4533C173.766 58.2741 175.943 58.7872 176.97 60.431C177.996 62.0747 177.48 64.2242 175.969 65.4381C171.366 69.1365 167.953 74.1477 166.21 79.8452C164.123 86.6666 164.571 94.0124 167.472 100.53C170.372 107.047 175.53 112.296 181.995 115.312C188.46 118.327 195.797 118.905 202.654 116.939C209.511 114.972 215.427 110.595 219.312 104.612C223.197 98.6292 224.79 91.4441 223.796 84.3801C222.803 77.3161 219.29 70.8489 213.906 66.1696C209.409 62.2614 203.859 59.8202 197.995 59.1227C196.071 58.8937 194.494 57.3445 194.494 55.4065Z" fill="#1CC336"/>
<path d="M186.391 88.9531C186.391 91.2031 185.938 92.8828 185.031 93.9922C184.125 95.1016 182.76 95.6562 180.938 95.6562C180.245 95.6562 179.747 95.6146 179.445 95.5312V93.9922C179.909 94.1224 180.375 94.1875 180.844 94.1875C182.083 94.1875 183.008 93.8542 183.617 93.1875C184.227 92.5208 184.56 91.474 184.617 90.0469H184.523C184.216 90.5156 183.844 90.8542 183.406 91.0625C182.974 91.2708 182.466 91.375 181.883 91.375C180.872 91.375 180.078 91.0599 179.5 90.4297C178.922 89.7995 178.633 88.9349 178.633 87.8359C178.633 86.6432 178.966 85.6953 179.633 84.9922C180.305 84.2839 181.219 83.9297 182.375 83.9297C183.188 83.9297 183.896 84.1276 184.5 84.5234C185.104 84.9193 185.57 85.4948 185.898 86.25C186.227 87 186.391 87.901 186.391 88.9531ZM182.406 85.4531C181.771 85.4531 181.284 85.6615 180.945 86.0781C180.607 86.4896 180.438 87.0703 180.438 87.8203C180.438 88.4714 180.594 88.9844 180.906 89.3594C181.224 89.7292 181.703 89.9141 182.344 89.9141C182.964 89.9141 183.484 89.7292 183.906 89.3594C184.328 88.9896 184.539 88.5573 184.539 88.0625C184.539 87.599 184.448 87.1667 184.266 86.7656C184.089 86.3594 183.839 86.0391 183.516 85.8047C183.193 85.5703 182.823 85.4531 182.406 85.4531ZM195.117 86.7031C195.117 87.4271 194.906 88.0312 194.484 88.5156C194.062 88.9948 193.469 89.3177 192.703 89.4844V89.5469C193.62 89.6615 194.307 89.9479 194.766 90.4062C195.224 90.8594 195.453 91.4635 195.453 92.2188C195.453 93.3177 195.065 94.1667 194.289 94.7656C193.513 95.3594 192.409 95.6562 190.977 95.6562C189.711 95.6562 188.643 95.4505 187.773 95.0391V93.4062C188.258 93.6458 188.771 93.8307 189.312 93.9609C189.854 94.0911 190.375 94.1562 190.875 94.1562C191.76 94.1562 192.422 93.9922 192.859 93.6641C193.297 93.3359 193.516 92.8281 193.516 92.1406C193.516 91.5312 193.273 91.0833 192.789 90.7969C192.305 90.5104 191.544 90.3672 190.508 90.3672H189.516V88.875H190.523C192.346 88.875 193.258 88.2448 193.258 86.9844C193.258 86.4948 193.099 86.1172 192.781 85.8516C192.464 85.5859 191.995 85.4531 191.375 85.4531C190.943 85.4531 190.526 85.5156 190.125 85.6406C189.724 85.7604 189.25 85.9974 188.703 86.3516L187.805 85.0703C188.852 84.2995 190.068 83.9141 191.453 83.9141C192.604 83.9141 193.503 84.1615 194.148 84.6562C194.794 85.151 195.117 85.8333 195.117 86.7031ZM198.422 87.5C198.422 88.276 198.497 88.8542 198.648 89.2344C198.799 89.6146 199.047 89.8047 199.391 89.8047C200.078 89.8047 200.422 89.0365 200.422 87.5C200.422 85.9635 200.078 85.1953 199.391 85.1953C199.047 85.1953 198.799 85.3854 198.648 85.7656C198.497 86.1458 198.422 86.724 198.422 87.5ZM201.938 87.4844C201.938 88.6823 201.721 89.5833 201.289 90.1875C200.862 90.7865 200.229 91.0859 199.391 91.0859C198.599 91.0859 197.984 90.776 197.547 90.1562C197.115 89.5312 196.898 88.6406 196.898 87.4844C196.898 85.1042 197.729 83.9141 199.391 83.9141C200.208 83.9141 200.836 84.224 201.273 84.8438C201.716 85.4583 201.938 86.3385 201.938 87.4844ZM205.859 92.0625C205.859 92.8385 205.935 93.4193 206.086 93.8047C206.242 94.1901 206.492 94.3828 206.836 94.3828C207.518 94.3828 207.859 93.6094 207.859 92.0625C207.859 90.5365 207.518 89.7734 206.836 89.7734C206.492 89.7734 206.242 89.9609 206.086 90.3359C205.935 90.7109 205.859 91.2865 205.859 92.0625ZM209.375 92.0625C209.375 93.2604 209.159 94.1589 208.727 94.7578C208.294 95.3568 207.664 95.6562 206.836 95.6562C206.044 95.6562 205.43 95.349 204.992 94.7344C204.555 94.1146 204.336 93.224 204.336 92.0625C204.336 89.6823 205.169 88.4922 206.836 88.4922C207.638 88.4922 208.26 88.7995 208.703 89.4141C209.151 90.0286 209.375 90.9115 209.375 92.0625ZM207.055 84.0781L200.719 95.5H199.203L205.539 84.0781H207.055Z" fill="#1CC336"/>
<path d="M181.75 158.898H185.859V149.078H187.75V160.5H173.883V149.078H175.75V158.898H179.859V149.078H181.75V158.898ZM195.984 160.5L195.617 159.297H195.555C195.138 159.823 194.719 160.182 194.297 160.375C193.875 160.562 193.333 160.656 192.672 160.656C191.823 160.656 191.159 160.427 190.68 159.969C190.206 159.51 189.969 158.862 189.969 158.023C189.969 157.133 190.299 156.461 190.961 156.008C191.622 155.555 192.63 155.307 193.984 155.266L195.477 155.219V154.758C195.477 154.206 195.346 153.794 195.086 153.523C194.831 153.247 194.432 153.109 193.891 153.109C193.448 153.109 193.023 153.174 192.617 153.305C192.211 153.435 191.82 153.589 191.445 153.766L190.852 152.453C191.32 152.208 191.833 152.023 192.391 151.898C192.948 151.768 193.474 151.703 193.969 151.703C195.068 151.703 195.896 151.943 196.453 152.422C197.016 152.901 197.297 153.654 197.297 154.68V160.5H195.984ZM193.25 159.25C193.917 159.25 194.451 159.065 194.852 158.695C195.258 158.32 195.461 157.797 195.461 157.125V156.375L194.352 156.422C193.487 156.453 192.857 156.599 192.461 156.859C192.07 157.115 191.875 157.508 191.875 158.039C191.875 158.424 191.99 158.724 192.219 158.938C192.448 159.146 192.792 159.25 193.25 159.25ZM205.445 151.859V153.297H201.695V160.5H199.859V151.859H205.445ZM208.867 151.859V156.289C208.867 156.805 208.826 157.562 208.742 158.562L213.078 151.859H215.32V160.5H213.555V156.148C213.555 155.909 213.568 155.521 213.594 154.984C213.625 154.448 213.651 154.057 213.672 153.812L209.352 160.5H207.109V151.859H208.867Z" fill="#2C3339"/>
<path d="M167.629 178.59C167.629 180.277 167.289 181.537 166.609 182.369C165.93 183.201 164.906 183.617 163.539 183.617C163.02 183.617 162.646 183.586 162.42 183.523V182.369C162.768 182.467 163.117 182.516 163.469 182.516C164.398 182.516 165.092 182.266 165.549 181.766C166.006 181.266 166.256 180.48 166.299 179.41H166.229C165.998 179.762 165.719 180.016 165.391 180.172C165.066 180.328 164.686 180.406 164.248 180.406C163.49 180.406 162.895 180.17 162.461 179.697C162.027 179.225 161.811 178.576 161.811 177.752C161.811 176.857 162.061 176.146 162.561 175.619C163.064 175.088 163.75 174.822 164.617 174.822C165.227 174.822 165.758 174.971 166.211 175.268C166.664 175.564 167.014 175.996 167.26 176.562C167.506 177.125 167.629 177.801 167.629 178.59ZM164.641 175.965C164.164 175.965 163.799 176.121 163.545 176.434C163.291 176.742 163.164 177.178 163.164 177.74C163.164 178.229 163.281 178.613 163.516 178.895C163.754 179.172 164.113 179.311 164.594 179.311C165.059 179.311 165.449 179.172 165.766 178.895C166.082 178.617 166.24 178.293 166.24 177.922C166.24 177.574 166.172 177.25 166.035 176.949C165.902 176.645 165.715 176.404 165.473 176.229C165.23 176.053 164.953 175.965 164.641 175.965ZM174.496 179.217C174.496 180.705 174.256 181.811 173.775 182.533C173.299 183.256 172.568 183.617 171.584 183.617C170.631 183.617 169.908 183.244 169.416 182.498C168.924 181.752 168.678 180.658 168.678 179.217C168.678 177.705 168.916 176.592 169.393 175.877C169.873 175.158 170.604 174.799 171.584 174.799C172.541 174.799 173.266 175.174 173.758 175.924C174.25 176.674 174.496 177.771 174.496 179.217ZM170.072 179.217C170.072 180.385 170.191 181.219 170.43 181.719C170.672 182.219 171.057 182.469 171.584 182.469C172.111 182.469 172.496 182.215 172.738 181.707C172.984 181.199 173.107 180.369 173.107 179.217C173.107 178.068 172.984 177.238 172.738 176.727C172.496 176.211 172.111 175.953 171.584 175.953C171.057 175.953 170.672 176.205 170.43 176.709C170.191 177.213 170.072 178.049 170.072 179.217ZM181.029 176.902C181.029 177.445 180.871 177.898 180.555 178.262C180.238 178.621 179.793 178.863 179.219 178.988V179.035C179.906 179.121 180.422 179.336 180.766 179.68C181.109 180.02 181.281 180.473 181.281 181.039C181.281 181.863 180.99 182.5 180.408 182.949C179.826 183.395 178.998 183.617 177.924 183.617C176.975 183.617 176.174 183.463 175.521 183.154V181.93C175.885 182.109 176.27 182.248 176.676 182.346C177.082 182.443 177.473 182.492 177.848 182.492C178.512 182.492 179.008 182.369 179.336 182.123C179.664 181.877 179.828 181.496 179.828 180.98C179.828 180.523 179.646 180.188 179.283 179.973C178.92 179.758 178.35 179.65 177.572 179.65H176.828V178.531H177.584C178.951 178.531 179.635 178.059 179.635 177.113C179.635 176.746 179.516 176.463 179.277 176.264C179.039 176.064 178.688 175.965 178.223 175.965C177.898 175.965 177.586 176.012 177.285 176.105C176.984 176.195 176.629 176.373 176.219 176.639L175.545 175.678C176.33 175.1 177.242 174.811 178.281 174.811C179.145 174.811 179.818 174.996 180.303 175.367C180.787 175.738 181.029 176.25 181.029 176.902ZM185.307 178.15C186.17 178.15 186.854 178.379 187.357 178.836C187.861 179.293 188.113 179.916 188.113 180.705C188.113 181.619 187.826 182.334 187.252 182.85C186.682 183.361 185.869 183.617 184.814 183.617C183.857 183.617 183.105 183.463 182.559 183.154V181.906C182.875 182.086 183.238 182.225 183.648 182.322C184.059 182.42 184.439 182.469 184.791 182.469C185.412 182.469 185.885 182.33 186.209 182.053C186.533 181.775 186.695 181.369 186.695 180.834C186.695 179.811 186.043 179.299 184.738 179.299C184.555 179.299 184.328 179.318 184.059 179.357C183.789 179.393 183.553 179.434 183.35 179.48L182.734 179.117L183.062 174.934H187.516V176.158H184.275L184.082 178.279C184.219 178.256 184.385 178.229 184.58 178.197C184.779 178.166 185.021 178.15 185.307 178.15ZM193.311 174.934L190.123 183.5H188.822L192.016 174.934H193.311ZM197.986 183.5H196.609V177.969C196.609 177.309 196.625 176.785 196.656 176.398C196.566 176.492 196.455 176.596 196.322 176.709C196.193 176.822 195.756 177.182 195.01 177.787L194.318 176.914L196.838 174.934H197.986V183.5ZM206.605 179.217C206.605 180.705 206.365 181.811 205.885 182.533C205.408 183.256 204.678 183.617 203.693 183.617C202.74 183.617 202.018 183.244 201.525 182.498C201.033 181.752 200.787 180.658 200.787 179.217C200.787 177.705 201.025 176.592 201.502 175.877C201.982 175.158 202.713 174.799 203.693 174.799C204.65 174.799 205.375 175.174 205.867 175.924C206.359 176.674 206.605 177.771 206.605 179.217ZM202.182 179.217C202.182 180.385 202.301 181.219 202.539 181.719C202.781 182.219 203.166 182.469 203.693 182.469C204.221 182.469 204.605 182.215 204.848 181.707C205.094 181.199 205.217 180.369 205.217 179.217C205.217 178.068 205.094 177.238 204.848 176.727C204.605 176.211 204.221 175.953 203.693 175.953C203.166 175.953 202.781 176.205 202.539 176.709C202.301 177.213 202.182 178.049 202.182 179.217ZM213.461 179.217C213.461 180.705 213.221 181.811 212.74 182.533C212.264 183.256 211.533 183.617 210.549 183.617C209.596 183.617 208.873 183.244 208.381 182.498C207.889 181.752 207.643 180.658 207.643 179.217C207.643 177.705 207.881 176.592 208.357 175.877C208.838 175.158 209.568 174.799 210.549 174.799C211.506 174.799 212.23 175.174 212.723 175.924C213.215 176.674 213.461 177.771 213.461 179.217ZM209.037 179.217C209.037 180.385 209.156 181.219 209.395 181.719C209.637 182.219 210.021 182.469 210.549 182.469C211.076 182.469 211.461 182.215 211.703 181.707C211.949 181.199 212.072 180.369 212.072 179.217C212.072 178.068 211.949 177.238 211.703 176.727C211.461 176.211 211.076 175.953 210.549 175.953C210.021 175.953 209.637 176.205 209.395 176.709C209.156 177.213 209.037 178.049 209.037 179.217ZM220.316 179.217C220.316 180.705 220.076 181.811 219.596 182.533C219.119 183.256 218.389 183.617 217.404 183.617C216.451 183.617 215.729 183.244 215.236 182.498C214.744 181.752 214.498 180.658 214.498 179.217C214.498 177.705 214.736 176.592 215.213 175.877C215.693 175.158 216.424 174.799 217.404 174.799C218.361 174.799 219.086 175.174 219.578 175.924C220.07 176.674 220.316 177.771 220.316 179.217ZM215.893 179.217C215.893 180.385 216.012 181.219 216.25 181.719C216.492 182.219 216.877 182.469 217.404 182.469C217.932 182.469 218.316 182.215 218.559 181.707C218.805 181.199 218.928 180.369 218.928 179.217C218.928 178.068 218.805 177.238 218.559 176.727C218.316 176.211 217.932 175.953 217.404 175.953C216.877 175.953 216.492 176.205 216.25 176.709C216.012 177.213 215.893 178.049 215.893 179.217ZM227.172 179.217C227.172 180.705 226.932 181.811 226.451 182.533C225.975 183.256 225.244 183.617 224.26 183.617C223.307 183.617 222.584 183.244 222.092 182.498C221.6 181.752 221.354 180.658 221.354 179.217C221.354 177.705 221.592 176.592 222.068 175.877C222.549 175.158 223.279 174.799 224.26 174.799C225.217 174.799 225.941 175.174 226.434 175.924C226.926 176.674 227.172 177.771 227.172 179.217ZM222.748 179.217C222.748 180.385 222.867 181.219 223.105 181.719C223.348 182.219 223.732 182.469 224.26 182.469C224.787 182.469 225.172 182.215 225.414 181.707C225.66 181.199 225.783 180.369 225.783 179.217C225.783 178.068 225.66 177.238 225.414 176.727C225.172 176.211 224.787 175.953 224.26 175.953C223.732 175.953 223.348 176.205 223.105 176.709C222.867 177.213 222.748 178.049 222.748 179.217Z" fill="#898989"/>
<rect x="140.833" y="5.5" width="107.333" height="214" rx="7.5" stroke="#F7F5F5"/>
</g>
<g filter="url(#filter3_d_55_1854)">
<rect x="260.667" y="5" width="108.333" height="215" rx="8" fill="white"/>
<path d="M296.532 56.8012C314.039 46.6937 336.425 52.692 346.532 70.1987C356.64 87.7054 350.641 110.091 333.135 120.199C315.628 130.306 293.242 124.308 283.135 106.801C273.027 89.2945 279.025 66.9088 296.532 56.8012ZM329.626 114.121C343.776 105.951 348.624 87.8578 340.454 73.7078C332.285 59.5577 314.191 54.7096 300.041 62.8791C285.891 71.0486 281.043 89.1422 289.212 103.292C297.382 117.442 315.476 122.29 329.626 114.121Z" fill="#0070F5" fill-opacity="0.25"/>
<path d="M314.827 55.4065C314.827 53.4685 316.401 51.8797 318.33 52.0648C324.332 52.6408 330.119 54.6931 335.163 58.0621C341.183 62.0829 345.875 67.7985 348.647 74.4863C351.419 81.174 352.145 88.5334 350.734 95.6338C349.323 102.734 345.838 109.257 340.72 114.377C335.602 119.497 329.081 122.984 321.981 124.398C314.881 125.812 307.521 125.088 300.833 122.319C294.144 119.55 288.427 114.86 284.403 108.841C281.032 103.798 278.978 98.0126 278.4 92.0108C278.214 90.0817 279.802 88.5067 281.74 88.5064C283.678 88.506 285.228 90.0822 285.457 92.0066C286.008 96.6181 287.639 101.053 290.238 104.941C293.49 109.805 298.111 113.596 303.517 115.835C308.923 118.073 314.872 118.657 320.611 117.515C326.349 116.372 331.62 113.554 335.757 109.415C339.893 105.277 342.71 100.005 343.85 94.266C344.991 88.527 344.404 82.5786 342.164 77.1732C339.923 71.7678 336.131 67.1481 331.265 63.8982C327.376 61.3006 322.94 59.6714 318.329 59.1227C316.404 58.8937 314.827 57.3445 314.827 55.4065Z" fill="#0070F5"/>
<path d="M302.857 83.9297C303.94 83.9297 304.797 84.1797 305.427 84.6797C306.057 85.1745 306.372 85.8385 306.372 86.6719C306.372 87.8438 305.669 88.776 304.263 89.4688C305.159 89.9167 305.794 90.388 306.169 90.8828C306.55 91.3776 306.74 91.9297 306.74 92.5391C306.74 93.4818 306.393 94.237 305.701 94.8047C305.008 95.3724 304.07 95.6562 302.888 95.6562C301.648 95.6562 300.688 95.3906 300.005 94.8594C299.323 94.3281 298.982 93.5755 298.982 92.6016C298.982 91.9661 299.159 91.3958 299.513 90.8906C299.872 90.3802 300.458 89.9271 301.271 89.5312C300.573 89.1146 300.076 88.6745 299.779 88.2109C299.482 87.7474 299.333 87.2266 299.333 86.6484C299.333 85.8203 299.659 85.1615 300.31 84.6719C300.961 84.1771 301.81 83.9297 302.857 83.9297ZM300.74 92.5391C300.74 93.0807 300.93 93.5026 301.31 93.8047C301.69 94.1016 302.206 94.25 302.857 94.25C303.529 94.25 304.05 94.0964 304.419 93.7891C304.794 93.4766 304.982 93.0547 304.982 92.5234C304.982 92.1016 304.81 91.7161 304.466 91.3672C304.122 91.0182 303.602 90.6953 302.904 90.3984L302.677 90.2969C301.99 90.599 301.495 90.9323 301.193 91.2969C300.891 91.6562 300.74 92.0703 300.74 92.5391ZM302.841 85.3438C302.32 85.3438 301.901 85.474 301.583 85.7344C301.266 85.9896 301.107 86.3385 301.107 86.7812C301.107 87.0521 301.164 87.2943 301.279 87.5078C301.393 87.7214 301.56 87.9167 301.779 88.0938C301.997 88.2656 302.367 88.474 302.888 88.7188C303.513 88.4427 303.953 88.1536 304.208 87.8516C304.469 87.5443 304.599 87.1875 304.599 86.7812C304.599 86.3385 304.438 85.9896 304.115 85.7344C303.797 85.474 303.372 85.3438 302.841 85.3438ZM312.013 88.3672C313.164 88.3672 314.076 88.6719 314.747 89.2812C315.419 89.8906 315.755 90.7214 315.755 91.7734C315.755 92.9922 315.372 93.9453 314.607 94.6328C313.846 95.3151 312.763 95.6562 311.357 95.6562C310.081 95.6562 309.078 95.4505 308.349 95.0391V93.375C308.771 93.6146 309.255 93.7995 309.802 93.9297C310.349 94.0599 310.857 94.125 311.326 94.125C312.154 94.125 312.784 93.9401 313.216 93.5703C313.648 93.2005 313.865 92.6589 313.865 91.9453C313.865 90.5807 312.995 89.8984 311.255 89.8984C311.01 89.8984 310.708 89.9245 310.349 89.9766C309.99 90.0234 309.675 90.0781 309.404 90.1406L308.583 89.6562L309.021 84.0781H314.958V85.7109H310.638L310.38 88.5391C310.563 88.5078 310.784 88.4714 311.044 88.4297C311.31 88.388 311.633 88.3672 312.013 88.3672ZM318.755 87.5C318.755 88.276 318.831 88.8542 318.982 89.2344C319.133 89.6146 319.38 89.8047 319.724 89.8047C320.411 89.8047 320.755 89.0365 320.755 87.5C320.755 85.9635 320.411 85.1953 319.724 85.1953C319.38 85.1953 319.133 85.3854 318.982 85.7656C318.831 86.1458 318.755 86.724 318.755 87.5ZM322.271 87.4844C322.271 88.6823 322.055 89.5833 321.622 90.1875C321.195 90.7865 320.563 91.0859 319.724 91.0859C318.932 91.0859 318.318 90.776 317.88 90.1562C317.448 89.5312 317.232 88.6406 317.232 87.4844C317.232 85.1042 318.063 83.9141 319.724 83.9141C320.542 83.9141 321.169 84.224 321.607 84.8438C322.05 85.4583 322.271 86.3385 322.271 87.4844ZM326.193 92.0625C326.193 92.8385 326.268 93.4193 326.419 93.8047C326.576 94.1901 326.826 94.3828 327.169 94.3828C327.852 94.3828 328.193 93.6094 328.193 92.0625C328.193 90.5365 327.852 89.7734 327.169 89.7734C326.826 89.7734 326.576 89.9609 326.419 90.3359C326.268 90.7109 326.193 91.2865 326.193 92.0625ZM329.708 92.0625C329.708 93.2604 329.492 94.1589 329.06 94.7578C328.628 95.3568 327.997 95.6562 327.169 95.6562C326.378 95.6562 325.763 95.349 325.326 94.7344C324.888 94.1146 324.669 93.224 324.669 92.0625C324.669 89.6823 325.503 88.4922 327.169 88.4922C327.971 88.4922 328.594 88.7995 329.036 89.4141C329.484 90.0286 329.708 90.9115 329.708 92.0625ZM327.388 84.0781L321.052 95.5H319.536L325.872 84.0781H327.388Z" fill="#0070F5"/>
<path d="M289.755 160.5H287.56L282.857 154.711V160.5H280.99V149.078H282.857V154.609L287.482 149.078H289.529L284.919 154.594L289.755 160.5ZM296.482 160.5L296.115 159.297H296.052C295.635 159.823 295.216 160.182 294.794 160.375C294.372 160.562 293.831 160.656 293.169 160.656C292.32 160.656 291.656 160.427 291.177 159.969C290.703 159.51 290.466 158.862 290.466 158.023C290.466 157.133 290.797 156.461 291.458 156.008C292.12 155.555 293.128 155.307 294.482 155.266L295.974 155.219V154.758C295.974 154.206 295.844 153.794 295.583 153.523C295.328 153.247 294.93 153.109 294.388 153.109C293.945 153.109 293.521 153.174 293.115 153.305C292.708 153.435 292.318 153.589 291.943 153.766L291.349 152.453C291.818 152.208 292.331 152.023 292.888 151.898C293.445 151.768 293.971 151.703 294.466 151.703C295.565 151.703 296.393 151.943 296.951 152.422C297.513 152.901 297.794 153.654 297.794 154.68V160.5H296.482ZM293.747 159.25C294.414 159.25 294.948 159.065 295.349 158.695C295.755 158.32 295.958 157.797 295.958 157.125V156.375L294.849 156.422C293.984 156.453 293.354 156.599 292.958 156.859C292.568 157.115 292.372 157.508 292.372 158.039C292.372 158.424 292.487 158.724 292.716 158.938C292.945 159.146 293.289 159.25 293.747 159.25ZM307.458 160.5H305.607V153.297H303.224C303.078 155.151 302.88 156.599 302.63 157.641C302.385 158.682 302.063 159.443 301.661 159.922C301.266 160.401 300.75 160.641 300.115 160.641C299.714 160.641 299.378 160.583 299.107 160.469V159.031C299.3 159.104 299.492 159.141 299.685 159.141C300.216 159.141 300.633 158.544 300.935 157.352C301.242 156.154 301.482 154.323 301.654 151.859H307.458V160.5ZM317.755 156.164C317.755 157.576 317.393 158.677 316.669 159.469C315.945 160.26 314.938 160.656 313.646 160.656C312.839 160.656 312.125 160.474 311.505 160.109C310.885 159.745 310.409 159.221 310.076 158.539C309.742 157.857 309.576 157.065 309.576 156.164C309.576 154.763 309.935 153.669 310.654 152.883C311.372 152.096 312.385 151.703 313.693 151.703C314.943 151.703 315.932 152.107 316.661 152.914C317.391 153.716 317.755 154.799 317.755 156.164ZM311.466 156.164C311.466 158.159 312.203 159.156 313.677 159.156C315.135 159.156 315.865 158.159 315.865 156.164C315.865 154.19 315.13 153.203 313.661 153.203C312.891 153.203 312.331 153.458 311.982 153.969C311.638 154.479 311.466 155.211 311.466 156.164ZM324.255 160.656C323.161 160.656 322.313 160.263 321.708 159.477H321.599C321.672 160.206 321.708 160.648 321.708 160.805V164.344H319.872V151.859H321.357C321.398 152.021 321.484 152.406 321.615 153.016H321.708C322.281 152.141 323.141 151.703 324.286 151.703C325.365 151.703 326.203 152.094 326.802 152.875C327.406 153.656 327.708 154.753 327.708 156.164C327.708 157.576 327.401 158.677 326.786 159.469C326.177 160.26 325.333 160.656 324.255 160.656ZM323.81 153.203C323.081 153.203 322.547 153.417 322.208 153.844C321.875 154.271 321.708 154.953 321.708 155.891V156.164C321.708 157.216 321.875 157.979 322.208 158.453C322.542 158.922 323.086 159.156 323.841 159.156C324.477 159.156 324.966 158.896 325.31 158.375C325.654 157.854 325.826 157.112 325.826 156.148C325.826 155.18 325.654 154.448 325.31 153.953C324.971 153.453 324.471 153.203 323.81 153.203ZM331.599 151.859V156.289C331.599 156.805 331.557 157.562 331.474 158.562L335.81 151.859H338.052V160.5H336.286V156.148C336.286 155.909 336.3 155.521 336.326 154.984C336.357 154.448 336.383 154.057 336.404 153.812L332.083 160.5H329.841V151.859H331.599ZM342.427 151.859V156.289C342.427 156.805 342.385 157.562 342.302 158.562L346.638 151.859H348.88V160.5H347.115V156.148C347.115 155.909 347.128 155.521 347.154 154.984C347.185 154.448 347.211 154.057 347.232 153.812L342.911 160.5H340.669V151.859H342.427Z" fill="#2C3339"/>
<path d="M295.357 178.15C296.22 178.15 296.904 178.379 297.408 178.836C297.911 179.293 298.163 179.916 298.163 180.705C298.163 181.619 297.876 182.334 297.302 182.85C296.732 183.361 295.919 183.617 294.865 183.617C293.908 183.617 293.156 183.463 292.609 183.154V181.906C292.925 182.086 293.288 182.225 293.699 182.322C294.109 182.42 294.49 182.469 294.841 182.469C295.462 182.469 295.935 182.33 296.259 182.053C296.583 181.775 296.745 181.369 296.745 180.834C296.745 179.811 296.093 179.299 294.788 179.299C294.605 179.299 294.378 179.318 294.109 179.357C293.839 179.393 293.603 179.434 293.4 179.48L292.785 179.117L293.113 174.934H297.566V176.158H294.326L294.132 178.279C294.269 178.256 294.435 178.229 294.63 178.197C294.829 178.166 295.072 178.15 295.357 178.15ZM300.279 183.5L303.665 176.158H299.212V174.945H305.136V175.906L301.767 183.5H300.279ZM307.134 183.5L310.521 176.158H306.068V174.945H311.992V175.906L308.622 183.5H307.134ZM317.072 174.934L313.884 183.5H312.583L315.777 174.934H317.072ZM320.599 174.822C321.411 174.822 322.054 175.01 322.527 175.385C322.999 175.756 323.236 176.254 323.236 176.879C323.236 177.758 322.708 178.457 321.654 178.977C322.326 179.312 322.802 179.666 323.083 180.037C323.369 180.408 323.511 180.822 323.511 181.279C323.511 181.986 323.251 182.553 322.732 182.979C322.212 183.404 321.509 183.617 320.622 183.617C319.693 183.617 318.972 183.418 318.46 183.02C317.949 182.621 317.693 182.057 317.693 181.326C317.693 180.85 317.826 180.422 318.091 180.043C318.361 179.66 318.8 179.32 319.41 179.023C318.886 178.711 318.513 178.381 318.29 178.033C318.068 177.686 317.956 177.295 317.956 176.861C317.956 176.24 318.201 175.746 318.689 175.379C319.177 175.008 319.814 174.822 320.599 174.822ZM319.011 181.279C319.011 181.686 319.154 182.002 319.439 182.229C319.724 182.451 320.111 182.562 320.599 182.562C321.103 182.562 321.494 182.447 321.771 182.217C322.052 181.982 322.193 181.666 322.193 181.268C322.193 180.951 322.064 180.662 321.806 180.4C321.548 180.139 321.158 179.896 320.634 179.674L320.464 179.598C319.949 179.824 319.578 180.074 319.351 180.348C319.124 180.617 319.011 180.928 319.011 181.279ZM320.587 175.883C320.197 175.883 319.882 175.98 319.644 176.176C319.406 176.367 319.286 176.629 319.286 176.961C319.286 177.164 319.329 177.346 319.415 177.506C319.501 177.666 319.626 177.812 319.79 177.945C319.954 178.074 320.232 178.23 320.622 178.414C321.091 178.207 321.421 177.99 321.613 177.764C321.808 177.533 321.906 177.266 321.906 176.961C321.906 176.629 321.785 176.367 321.542 176.176C321.304 175.98 320.986 175.883 320.587 175.883ZM327.466 178.15C328.329 178.15 329.013 178.379 329.517 178.836C330.021 179.293 330.273 179.916 330.273 180.705C330.273 181.619 329.986 182.334 329.411 182.85C328.841 183.361 328.029 183.617 326.974 183.617C326.017 183.617 325.265 183.463 324.718 183.154V181.906C325.035 182.086 325.398 182.225 325.808 182.322C326.218 182.42 326.599 182.469 326.951 182.469C327.572 182.469 328.044 182.33 328.369 182.053C328.693 181.775 328.855 181.369 328.855 180.834C328.855 179.811 328.203 179.299 326.898 179.299C326.714 179.299 326.488 179.318 326.218 179.357C325.949 179.393 325.712 179.434 325.509 179.48L324.894 179.117L325.222 174.934H329.675V176.158H326.435L326.242 178.279C326.378 178.256 326.544 178.229 326.74 178.197C326.939 178.166 327.181 178.15 327.466 178.15ZM337.222 179.217C337.222 180.705 336.982 181.811 336.501 182.533C336.025 183.256 335.294 183.617 334.31 183.617C333.357 183.617 332.634 183.244 332.142 182.498C331.65 181.752 331.404 180.658 331.404 179.217C331.404 177.705 331.642 176.592 332.119 175.877C332.599 175.158 333.329 174.799 334.31 174.799C335.267 174.799 335.992 175.174 336.484 175.924C336.976 176.674 337.222 177.771 337.222 179.217ZM332.798 179.217C332.798 180.385 332.917 181.219 333.156 181.719C333.398 182.219 333.783 182.469 334.31 182.469C334.837 182.469 335.222 182.215 335.464 181.707C335.71 181.199 335.833 180.369 335.833 179.217C335.833 178.068 335.71 177.238 335.464 176.727C335.222 176.211 334.837 175.953 334.31 175.953C333.783 175.953 333.398 176.205 333.156 176.709C332.917 177.213 332.798 178.049 332.798 179.217Z" fill="#898989"/>
<rect x="261.167" y="5.5" width="107.333" height="214" rx="7.5" stroke="#F7F5F5"/>
</g>
</g>
<defs>
<filter id="filter0_d_55_1854" x="0" y="0" width="389" height="255" filterUnits="userSpaceOnUse" color-interpolation-filters="sRGB">
<feFlood flood-opacity="0" result="BackgroundImageFix"/>
<feColorMatrix in="SourceAlpha" type="matrix" values="0 0 0 0 0 0 0 0 0 0 0 0 0 0 0 0 0 0 127 0" result="hardAlpha"/>
<feOffset dy="15"/>
<feGaussianBlur stdDeviation="10"/>
<feColorMatrix type="matrix" values="0 0 0 0 0 0 0 0 0 0 0 0 0 0 0 0 0 0 0.05 0"/>
<feBlend mode="normal" in2="BackgroundImageFix" result="effect1_dropShadow_55_1854"/>
<feBlend mode="normal" in="SourceGraphic" in2="effect1_dropShadow_55_1854" result="shape"/>
</filter>
<filter id="filter1_d_55_1854" x="14" y="1" width="122.333" height="229" filterUnits="userSpaceOnUse" color-interpolation-filters="sRGB">
<feFlood flood-opacity="0" result="BackgroundImageFix"/>
<feColorMatrix in="SourceAlpha" type="matrix" values="0 0 0 0 0 0 0 0 0 0 0 0 0 0 0 0 0 0 127 0" result="hardAlpha"/>
<feOffset dx="1" dy="3"/>
<feGaussianBlur stdDeviation="3.5"/>
<feComposite in2="hardAlpha" operator="out"/>
<feColorMatrix type="matrix" values="0 0 0 0 0 0 0 0 0 0 0 0 0 0 0 0 0 0 0.1 0"/>
<feBlend mode="normal" in2="BackgroundImageFix" result="effect1_dropShadow_55_1854"/>
<feBlend mode="normal" in="SourceGraphic" in2="effect1_dropShadow_55_1854" result="shape"/>
</filter>
<filter id="filter2_d_55_1854" x="134.333" y="1" width="122.333" height="229" filterUnits="userSpaceOnUse" color-interpolation-filters="sRGB">
<feFlood flood-opacity="0" result="BackgroundImageFix"/>
<feColorMatrix in="SourceAlpha" type="matrix" values="0 0 0 0 0 0 0 0 0 0 0 0 0 0 0 0 0 0 127 0" result="hardAlpha"/>
<feOffset dx="1" dy="3"/>
<feGaussianBlur stdDeviation="3.5"/>
<feComposite in2="hardAlpha" operator="out"/>
<feColorMatrix type="matrix" values="0 0 0 0 0 0 0 0 0 0 0 0 0 0 0 0 0 0 0.1 0"/>
<feBlend mode="normal" in2="BackgroundImageFix" result="effect1_dropShadow_55_1854"/>
<feBlend mode="normal" in="SourceGraphic" in2="effect1_dropShadow_55_1854" result="shape"/>
</filter>
<filter id="filter3_d_55_1854" x="254.667" y="1" width="122.333" height="229" filterUnits="userSpaceOnUse" color-interpolation-filters="sRGB">
<feFlood flood-opacity="0" result="BackgroundImageFix"/>
<feColorMatrix in="SourceAlpha" type="matrix" values="0 0 0 0 0 0 0 0 0 0 0 0 0 0 0 0 0 0 127 0" result="hardAlpha"/>
<feOffset dx="1" dy="3"/>
<feGaussianBlur stdDeviation="3.5"/>
<feComposite in2="hardAlpha" operator="out"/>
<feColorMatrix type="matrix" values="0 0 0 0 0 0 0 0 0 0 0 0 0 0 0 0 0 0 0.1 0"/>
<feBlend mode="normal" in2="BackgroundImageFix" result="effect1_dropShadow_55_1854"/>
<feBlend mode="normal" in="SourceGraphic" in2="effect1_dropShadow_55_1854" result="shape"/>
</filter>
</defs>
</svg>
